<?xml version="1.0" encoding="utf-8" ?>
<svg baseProfile="full" height="20cm" version="1.1" viewBox="0,0,8000,8000" width="20cm" xmlns="http://www.w3.org/2000/svg" xmlns:ev="http://www.w3.org/2001/xml-events" xmlns:xlink="http://www.w3.org/1999/xlink"><defs /><line stroke="rgb(0,0,0)" stroke-linecap="square" stroke-width="9" x1="3447.552666529423" x2="3447.552666529423" y1="759.3424711110263" y2="342.38084379724074" /><line stroke="rgb(0,0,0)" stroke-linecap="square" stroke-width="9" x1="3595.669050145158" x2="3595.669050145158" y1="595.0964331146047" y2="468.1787603358288" /><line stroke="rgb(0,0,0)" stroke-linecap="square" stroke-width="9" x1="3381.5730830072544" x2="3381.5730830072544" y1="550.8616574541335" y2="221.44269814264874" /><line stroke="rgb(0,0,0)" stroke-linecap="square" stroke-width="9" x1="3251.5384303764367" x2="3251.5384303764367" y1="486.80658834548495" y2="212.95327271617447" /><line stroke="rgb(0,0,0)" stroke-linecap="square" stroke-width="9" x1="3338.9999936476843" x2="3539.413463346687" y1="881.4435234393258" y2="881.4435234393258" /><line stroke="rgb(0,0,0)" stroke-linecap="square" stroke-width="9" x1="4291.034197337085" x2="4604.188102591715" y1="881.4435234393258" y2="881.4435234393258" /><line stroke="rgb(0,0,0)" stroke-linecap="square" stroke-width="9" x1="4604.188102591715" x2="4762.762676575852" y1="881.4435234393258" y2="881.4435234393258" /><line stroke="rgb(0,0,0)" stroke-linecap="square" stroke-width="9" x1="4762.762676575852" x2="5127.805640659627" y1="881.4435234393258" y2="881.4435234393258" /><line stroke="rgb(0,0,0)" stroke-linecap="square" stroke-width="9" x1="5127.805640659627" x2="5370.530584860447" y1="881.4435234393258" y2="881.4435234393258" /><line stroke="rgb(0,0,0)" stroke-linecap="square" stroke-width="9" x1="5370.530584860447" x2="5737.586014866398" y1="881.4435234393258" y2="881.4435234393258" /><line stroke="rgb(0,0,0)" stroke-linecap="square" stroke-width="9" x1="5737.586014866398" x2="6194.881197870604" y1="881.4435234393258" y2="881.4435234393258" /><line stroke="rgb(0,0,0)" stroke-linecap="square" stroke-width="9" x1="3651.924636943629" x2="3784.0755347492195" y1="881.4435234393258" y2="881.4435234393258" /><line stroke="rgb(0,0,0)" stroke-linecap="square" stroke-width="9" x1="3784.0755347492195" x2="4092.1410205307475" y1="881.4435234393258" y2="881.4435234393258" /><line stroke="rgb(0,0,0)" stroke-linecap="square" stroke-width="9" x1="4092.1410205307475" x2="4291.034197337085" y1="881.4435234393258" y2="881.4435234393258" /><circle cx="3938.1082776399835" cy="917.6083888062176" fill="none" r="36.164865366891775" stroke="rgb(0,0,0)" stroke-width="9" /><line stroke="rgb(0,0,0)" stroke-linecap="square" stroke-width="9" x1="4191.587608933916" x2="4191.587608933916" y1="881.4435234393258" y2="1017.6483039821201" /><line stroke="rgb(0,0,0)" stroke-linecap="square" stroke-width="9" x1="4191.587608933916" x2="4191.587608933916" y1="1017.6483039821201" y2="1194.939717219291" /><line stroke="rgb(0,0,0)" stroke-linecap="square" stroke-width="9" x1="4683.475389583784" x2="4683.475389583784" y1="881.4435234393258" y2="532.3285187463937" /><line stroke="rgb(0,0,0)" stroke-linecap="square" stroke-width="9" x1="4683.475389583784" x2="4683.475389583784" y1="532.3285187463937" y2="95.6429392634185" /><line stroke="rgb(0,0,0)" stroke-linecap="square" stroke-width="9" x1="4945.28415861774" x2="4945.28415861774" y1="881.4435234393258" y2="621.2422728437903" /><line stroke="rgb(0,0,0)" stroke-linecap="square" stroke-width="9" x1="4945.28415861774" x2="4945.28415861774" y1="621.2422728437903" y2="351.13670801272684" /><line stroke="rgb(0,0,0)" stroke-linecap="square" stroke-width="9" x1="5249.168112760037" x2="5249.168112760037" y1="881.4435234393258" y2="698.1535978853927" /><line stroke="rgb(0,0,0)" stroke-linecap="square" stroke-width="9" x1="5249.168112760037" x2="5249.168112760037" y1="698.1535978853927" y2="281.1912100086777" /><line stroke="rgb(0,0,0)" stroke-linecap="square" stroke-width="9" x1="5554.058299863422" x2="5554.058299863422" y1="881.4435234393258" y2="614.4405731792864" /><line stroke="rgb(0,0,0)" stroke-linecap="square" stroke-width="9" x1="5554.058299863422" x2="5554.058299863422" y1="614.4405731792864" y2="254.3902825187601" /><circle cx="5966.233606368502" cy="817.5201857201075" fill="none" r="63.923337719218246" stroke="rgb(0,0,0)" stroke-width="9" /><line stroke="rgb(0,0,0)" stroke-linecap="square" stroke-width="9" x1="5966.233606368502" x2="5966.233606368502" y1="753.5968480008893" y2="278.84997203233513" /><circle cx="3595.669050145158" cy="881.4435234393258" fill="none" r="56.255586798470894" stroke="rgb(0,0,0)" stroke-width="9" /><circle cx="3595.669050145158" cy="986.6536739763781" fill="none" r="48.954563738581484" stroke="rgb(0,0,0)" stroke-width="9" /><circle cx="3595.669050145158" cy="751.8161372997481" fill="none" r="73.3717993411068" stroke="rgb(0,0,0)" stroke-width="9" /><circle cx="3595.669050145158" cy="636.770385536623" fill="none" r="41.67395242201832" stroke="rgb(0,0,0)" stroke-width="9" /><circle cx="3439.2067284971854" cy="1137.3868389691172" fill="none" r="40.417087352594116" stroke="rgb(0,0,0)" stroke-width="9" /><line stroke="rgb(0,0,0)" stroke-linecap="square" stroke-width="9" x1="3595.669050145158" x2="3595.669050145158" y1="1035.6082377149596" y2="1328.5584342796114" /><line stroke="rgb(0,0,0)" stroke-linecap="square" stroke-width="9" x1="3718.0000858464246" x2="3718.0000858464246" y1="881.4435234393258" y2="1277.0648355241397" /><line stroke="rgb(0,0,0)" stroke-linecap="square" stroke-width="9" x1="3718.0000858464246" x2="3718.0000858464246" y1="1277.0648355241397" y2="1616.04022334019" /><line stroke="rgb(0,0,0)" stroke-linecap="square" stroke-width="9" x1="3938.1082776399835" x2="3938.1082776399835" y1="953.7732541731093" y2="1156.05265103185" /><line stroke="rgb(0,0,0)" stroke-linecap="square" stroke-width="9" x1="3938.1082776399835" x2="3938.1082776399835" y1="1156.05265103185" y2="1639.3522510914493" /><line stroke="rgb(0,0,0)" stroke-linecap="square" stroke-width="9" x1="4191.587608933916" x2="4191.587608933916" y1="1194.939717219291" y2="1494.0148546450532" /><line stroke="rgb(0,0,0)" stroke-linecap="square" stroke-width="9" x1="4447.611149964399" x2="4447.611149964399" y1="881.4435234393258" y2="1346.4938235907757" /><line stroke="rgb(0,0,0)" stroke-linecap="square" stroke-width="9" x1="3447.552666529423" x2="3315.5934994850854" y1="550.8616574541335" y2="550.8616574541335" /><line stroke="rgb(0,0,0)" stroke-linecap="square" stroke-width="9" x1="2948.248351780861" x2="2479.496027985164" y1="550.8616574541335" y2="550.8616574541335" /><line stroke="rgb(0,0,0)" stroke-linecap="square" stroke-width="9" x1="2479.496027985164" x2="1986.9525673472917" y1="550.8616574541335" y2="550.8616574541335" /><circle cx="3251.5384303764367" cy="550.8616574541335" fill="none" r="64.05506910864852" stroke="rgb(0,0,0)" stroke-width="9" /><circle cx="1899.9600726232861" cy="550.8616574541335" fill="none" r="86.99249472400552" stroke="rgb(0,0,0)" stroke-width="9" /><circle cx="1720.7115838990892" cy="550.8616574541335" fill="none" r="92.2559940001913" stroke="rgb(0,0,0)" stroke-width="9" /><line stroke="rgb(0,0,0)" stroke-linecap="square" stroke-width="9" x1="1628.4555898988979" x2="1476.462760874967" y1="550.8616574541335" y2="550.8616574541335" /><line stroke="rgb(0,0,0)" stroke-linecap="square" stroke-width="9" x1="1476.462760874967" x2="1022.0866956293271" y1="550.8616574541335" y2="550.8616574541335" /><line stroke="rgb(0,0,0)" stroke-linecap="square" stroke-width="9" x1="1552.4591753869324" x2="1552.4591753869324" y1="550.8616574541335" y2="432.0252469751088" /><line stroke="rgb(0,0,0)" stroke-linecap="square" stroke-width="9" x1="2233.224297666228" x2="2233.224297666228" y1="550.8616574541335" y2="309.33697297836164" /><circle cx="3067.8658565243245" cy="550.8616574541335" fill="none" r="119.61750474346364" stroke="rgb(0,0,0)" stroke-width="9" /><line stroke="rgb(0,0,0)" stroke-linecap="square" stroke-width="9" x1="2788.2434209743014" x2="3003.9214590967354" y1="773.7613545176896" y2="773.7613545176896" /><circle cx="2896.0824400355186" cy="814.0121199999253" fill="none" r="40.25076548223568" stroke="rgb(0,0,0)" stroke-width="9" /><circle cx="3067.8658565243245" cy="1076.7558913042078" fill="none" r="72.4878243092202" stroke="rgb(0,0,0)" stroke-width="9" /><circle cx="3067.8658565243245" cy="1222.926455293053" fill="none" r="73.68273967962497" stroke="rgb(0,0,0)" stroke-width="9" /><line stroke="rgb(0,0,0)" stroke-linecap="square" stroke-width="9" x1="2896.0824400355186" x2="2896.0824400355186" y1="854.262885482161" y2="1186.3550758367262" /><line stroke="rgb(0,0,0)" stroke-linecap="square" stroke-width="9" x1="2896.0824400355186" x2="2896.0824400355186" y1="1186.3550758367262" y2="1291.5626512714928" /><polygon fill="none" points="2832.7843326330603,1079.6642492052672 2814.8298600700473,1205.3455571463578 2796.8753875070342,1079.6642492052672 2814.8298600700473,953.9829412641766" stroke="rgb(0,0,0)" stroke-width="9" /><line stroke="rgb(0,0,0)" stroke-linecap="square" stroke-width="9" x1="3251.5384303764367" x2="3251.5384303764367" y1="614.9167265627821" y2="813.8122699795381" /><line stroke="rgb(0,0,0)" stroke-linecap="square" stroke-width="9" x1="3251.5384303764367" x2="3251.5384303764367" y1="813.8122699795381" y2="949.0747768991134" /><line stroke="rgb(0,0,0)" stroke-linecap="square" stroke-width="9" x1="3251.5384303764367" x2="3251.5384303764367" y1="949.0747768991134" y2="1033.507721587777" /><line stroke="rgb(0,0,0)" stroke-linecap="square" stroke-width="9" x1="3251.5384303764367" x2="3251.5384303764367" y1="1121.200064590412" y2="1591.6369274254102" /><polygon fill="none" points="3289.385857111117,1356.418496007911 3270.462143743777,1488.8844895792922 3251.5384303764367,1356.418496007911 3270.462143743777,1223.9525024365298" stroke="rgb(0,0,0)" stroke-width="9" /><circle cx="3251.5384303764367" cy="1077.3538930890945" fill="none" r="43.846171501317386" stroke="rgb(0,0,0)" stroke-width="9" /><line stroke="rgb(0,0,0)" stroke-linecap="square" stroke-width="9" x1="3251.5384303764367" x2="3338.9999936476843" y1="881.4435234393258" y2="881.4435234393258" /><line stroke="rgb(0,0,0)" stroke-linecap="square" stroke-width="9" x1="3439.2067284971854" x2="3439.2067284971854" y1="881.4435234393258" y2="1096.9697516165231" /><line stroke="rgb(0,0,0)" stroke-linecap="square" stroke-width="9" x1="3439.2067284971854" x2="3439.2067284971854" y1="1177.8039263217113" y2="1511.8649972147205" /><line stroke="rgb(0,0,0)" stroke-linecap="square" stroke-width="9" x1="2713.8721898830127" x2="2713.8721898830127" y1="550.8616574541335" y2="996.6610515812456" /><line stroke="rgb(0,0,0)" stroke-linecap="square" stroke-width="9" x1="2713.8721898830127" x2="2713.8721898830127" y1="1162.6674468292888" y2="1564.9520403663485" /><circle cx="2713.8721898830127" cy="1079.6642492052672" fill="none" r="83.00319762402161" stroke="rgb(0,0,0)" stroke-width="9" /><circle cx="2751.057805428657" cy="773.7613545176896" fill="none" r="37.185615545644175" stroke="rgb(0,0,0)" stroke-width="9" /><line stroke="rgb(0,0,0)" stroke-linecap="square" stroke-width="9" x1="2524.408668346581" x2="2613.848159619747" y1="743.1324797226174" y2="743.1324797226174" /><polygon fill="none" points="2652.364049380908,743.1324797226174 2633.1061045003275,877.9380938866796 2613.848159619747,743.1324797226174 2633.1061045003275,608.3268655585553" stroke="rgb(0,0,0)" stroke-width="9" /><polygon fill="none" points="2630.868992258991,1079.6642492052672 2612.5676697186773,1207.773506987464 2594.2663471783635,1079.6642492052672 2612.5676697186773,951.5549914230704" stroke="rgb(0,0,0)" stroke-width="9" /><line stroke="rgb(0,0,0)" stroke-linecap="square" stroke-width="9" x1="3067.8658565243245" x2="3067.8658565243245" y1="670.4791621975971" y2="1004.2680669949875" /><line stroke="rgb(0,0,0)" stroke-linecap="square" stroke-width="9" x1="1899.9600726232861" x2="1899.9600726232861" y1="637.854152178139" y2="1105.3346216271216" /><circle cx="1840.742631195847" cy="871.5943869026303" fill="none" r="59.2174414274392" stroke="rgb(0,0,0)" stroke-width="9" /><line stroke="rgb(0,0,0)" stroke-linecap="square" stroke-width="9" x1="1899.9600726232861" x2="1899.9600726232861" y1="1239.254882752452" y2="1674.912860955299" /><line stroke="rgb(0,0,0)" stroke-linecap="square" stroke-width="9" x1="1720.7115838990892" x2="1720.7115838990892" y1="643.1176514543248" y2="902.2261116337327" /><line stroke="rgb(0,0,0)" stroke-linecap="square" stroke-width="9" x1="1720.7115838990892" x2="1720.7115838990892" y1="902.2261116337327" y2="1184.3450972054388" /><line stroke="rgb(0,0,0)" stroke-linecap="square" stroke-width="9" x1="1720.7115838990892" x2="1720.7115838990892" y1="1184.3450972054388" y2="1624.4554312635244" /><circle cx="1899.9600726232861" cy="1172.2947521897868" fill="none" r="66.96013056266526" stroke="rgb(0,0,0)" stroke-width="9" /><line stroke="rgb(0,0,0)" stroke-linecap="square" stroke-width="9" x1="1840.742631195847" x2="1840.742631195847" y1="812.3769454751911" y2="730.8763812052312" /><line stroke="rgb(0,0,0)" stroke-linecap="square" stroke-width="9" x1="1840.742631195847" x2="1840.742631195847" y1="930.8118283300695" y2="1044.3924953090886" /><polygon fill="none" points="2013.0271969753285,1172.2947521897868 1989.97370008064,1333.6692304526064 1966.9202031859513,1172.2947521897868 1989.97370008064,1010.9202739269671" stroke="rgb(0,0,0)" stroke-width="9" /><line stroke="rgb(0,0,0)" stroke-linecap="square" stroke-width="9" x1="1989.97370008064" x2="1989.97370008064" y1="1010.9202739269671" y2="796.0061075851054" /><line stroke="rgb(0,0,0)" stroke-linecap="square" stroke-width="9" x1="1989.97370008064" x2="1989.97370008064" y1="796.0061075851054" y2="690.2588518601294" /><line stroke="rgb(0,0,0)" stroke-linecap="square" stroke-width="9" x1="2095.0688174814477" x2="2095.0688174814477" y1="827.8962909760818" y2="1217.848870212834" /><line stroke="rgb(0,0,0)" stroke-linecap="square" stroke-width="9" x1="2095.0688174814477" x2="2095.0688174814477" y1="1217.848870212834" y2="1401.7368054599963" /><line stroke="rgb(0,0,0)" stroke-linecap="square" stroke-width="9" x1="2291.4544225389086" x2="2291.4544225389086" y1="925.4281861102761" y2="1392.9457534961607" /><line stroke="rgb(0,0,0)" stroke-linecap="square" stroke-width="9" x1="2453.576789271071" x2="2453.576789271071" y1="1048.3565285376778" y2="1291.3725432354152" /><line stroke="rgb(0,0,0)" stroke-linecap="square" stroke-width="9" x1="1989.97370008064" x2="2200.163934882256" y1="743.1324797226174" y2="743.1324797226174" /><line stroke="rgb(0,0,0)" stroke-linecap="square" stroke-width="9" x1="2095.0688174814477" x2="2095.0688174814477" y1="743.1324797226174" y2="827.8962909760818" /><line stroke="rgb(0,0,0)" stroke-linecap="square" stroke-width="9" x1="2291.4544225389086" x2="2291.4544225389086" y1="743.1324797226174" y2="925.4281861102761" /><line stroke="rgb(0,0,0)" stroke-linecap="square" stroke-width="9" x1="2453.576789271071" x2="2453.576789271071" y1="743.1324797226174" y2="1048.3565285376778" /><line stroke="rgb(0,0,0)" stroke-linecap="square" stroke-width="9" x1="2200.163934882256" x2="2382.7449101955613" y1="743.1324797226174" y2="743.1324797226174" /><line stroke="rgb(0,0,0)" stroke-linecap="square" stroke-width="9" x1="2382.7449101955613" x2="2524.408668346581" y1="743.1324797226174" y2="743.1324797226174" /><line stroke="rgb(0,0,0)" stroke-linecap="square" stroke-width="9" x1="1720.7115838990892" x2="1423.8618998951856" y1="772.6718815440288" y2="772.6718815440288" /><line stroke="rgb(0,0,0)" stroke-linecap="square" stroke-width="9" x1="1572.2867418971373" x2="1572.2867418971373" y1="772.6718815440288" y2="685.7950087307516" /><line stroke="rgb(0,0,0)" stroke-linecap="square" stroke-width="9" x1="1572.2867418971373" x2="1572.2867418971373" y1="685.7950087307516" y2="605.777696870358" /><line stroke="rgb(0,0,0)" stroke-linecap="square" stroke-width="9" x1="1425.8555856914115" x2="1425.8555856914115" y1="1542.280107503245" y2="1183.4477623638036" /><line stroke="rgb(0,0,0)" stroke-linecap="square" stroke-width="9" x1="1647.3499969835511" x2="1647.3499969835511" y1="1305.108621346014" y2="996.4462200408375" /><line stroke="rgb(0,0,0)" stroke-linecap="square" stroke-width="9" x1="1647.3499969835511" x2="1647.3499969835511" y1="996.4462200408375" y2="920.0835002461105" /><line stroke="rgb(0,0,0)" stroke-linecap="square" stroke-width="9" x1="1647.3499969835511" x2="1647.3499969835511" y1="920.0835002461105" y2="842.3302514314141" /><line stroke="rgb(0,0,0)" stroke-linecap="square" stroke-width="9" x1="876.7996667165835" x2="876.7996667165835" y1="2578.7610472724355" y2="2868.4936453259943" /><line stroke="rgb(0,0,0)" stroke-linecap="square" stroke-width="9" x1="876.7996667165835" x2="876.7996667165835" y1="2868.4936453259943" y2="3130.3422085327456" /><line stroke="rgb(0,0,0)" stroke-linecap="square" stroke-width="9" x1="876.7996667165835" x2="876.7996667165835" y1="3130.3422085327456" y2="3254.422908752216" /><line stroke="rgb(0,0,0)" stroke-linecap="square" stroke-width="9" x1="876.7996667165835" x2="876.7996667165835" y1="3254.422908752216" y2="3722.3248606951365" /><line stroke="rgb(0,0,0)" stroke-linecap="square" stroke-width="9" x1="876.7996667165835" x2="876.7996667165835" y1="3722.3248606951365" y2="4157.974108437259" /><line stroke="rgb(0,0,0)" stroke-linecap="square" stroke-width="9" x1="876.7996667165835" x2="876.7996667165835" y1="4157.974108437259" y2="4516.218018391338" /><line stroke="rgb(0,0,0)" stroke-linecap="square" stroke-width="9" x1="876.7996667165835" x2="876.7996667165835" y1="4666.938219693043" y2="4772.222646631387" /><line stroke="rgb(0,0,0)" stroke-linecap="square" stroke-width="9" x1="876.7996667165835" x2="876.7996667165835" y1="4772.222646631387" y2="5044.342128463032" /><circle cx="876.7996667165835" cy="4591.57811904219" fill="none" r="75.36010065085256" stroke="rgb(0,0,0)" stroke-width="9" /><line stroke="rgb(0,0,0)" stroke-linecap="square" stroke-width="9" x1="1232.1707317389935" x2="1232.1707317389935" y1="4817.188587773608" y2="4417.317843656099" /><line stroke="rgb(0,0,0)" stroke-linecap="square" stroke-width="9" x1="1232.1707317389935" x2="1232.1707317389935" y1="4149.704740452551" y2="4010.878448793114" /><line stroke="rgb(0,0,0)" stroke-linecap="square" stroke-width="9" x1="1232.1707317389935" x2="1232.1707317389935" y1="4010.878448793114" y2="3616.630325455836" /><circle cx="1232.1707317389935" cy="3518.837345492024" fill="none" r="97.79297996381243" stroke="rgb(0,0,0)" stroke-width="9" /><polygon fill="none" points="1389.1342995143905,3398.620998703155 1232.1707317389935,3421.0443655282115 1075.2071639635965,3398.620998703155 1232.1707317389935,3376.197631878098" stroke="rgb(0,0,0)" stroke-width="9" /><line stroke="rgb(0,0,0)" stroke-linecap="square" stroke-width="9" x1="1232.1707317389935" x2="1350.2966665636927" y1="4617.2532157148535" y2="4617.2532157148535" /><line stroke="rgb(0,0,0)" stroke-linecap="square" stroke-width="9" x1="1291.233699151343" x2="1291.233699151343" y1="4617.2532157148535" y2="4696.822389478298" /><line stroke="rgb(0,0,0)" stroke-linecap="square" stroke-width="9" x1="1463.7471468774747" x2="1585.019693989368" y1="4182.787085472334" y2="4182.787085472334" /><line stroke="rgb(0,0,0)" stroke-linecap="square" stroke-width="9" x1="1412.2490918259596" x2="1657.2916343326142" y1="4316.593637074108" y2="4316.593637074108" /><circle cx="1534.7703630792869" cy="4380.257071704122" fill="none" r="63.66343463001361" stroke="rgb(0,0,0)" stroke-width="9" /><line stroke="rgb(0,0,0)" stroke-linecap="square" stroke-width="9" x1="1524.3834204334214" x2="1524.3834204334214" y1="4182.787085472334" y2="3809.389874703874" /><circle cx="1524.3834204334214" cy="3727.5375378528265" fill="none" r="81.8523368510474" stroke="rgb(0,0,0)" stroke-width="9" /><line stroke="rgb(0,0,0)" stroke-linecap="square" stroke-width="9" x1="1524.3834204334214" x2="1524.3834204334214" y1="3645.685201001779" y2="3367.941753719262" /><circle cx="1198.6871376562347" cy="2999.41792692937" fill="none" r="111.41609863679774" stroke="rgb(0,0,0)" stroke-width="9" /><circle cx="1401.561052163726" cy="2999.41792692937" fill="none" r="91.45781587069365" stroke="rgb(0,0,0)" stroke-width="9" /><line stroke="rgb(0,0,0)" stroke-linecap="square" stroke-width="9" x1="1493.0188680344195" x2="1617.655241174311" y1="2999.41792692937" y2="2999.41792692937" /><polygon fill="none" points="1532.284946705382,3288.8294654303572 1401.561052163726,3307.5043075077365 1270.8371576220698,3288.8294654303572 1401.561052163726,3270.154623352978" stroke="rgb(0,0,0)" stroke-width="9" /><line stroke="rgb(0,0,0)" stroke-linecap="square" stroke-width="9" x1="1401.561052163726" x2="1401.561052163726" y1="2907.9601110586764" y2="2807.320700951766" /><line stroke="rgb(0,0,0)" stroke-linecap="square" stroke-width="9" x1="1401.561052163726" x2="1401.561052163726" y1="3090.8757428000636" y2="3270.154623352978" /><line stroke="rgb(0,0,0)" stroke-linecap="square" stroke-width="9" x1="1198.6871376562347" x2="1198.6871376562347" y1="2888.001828292572" y2="2439.9525668870087" /><line stroke="rgb(0,0,0)" stroke-linecap="square" stroke-width="9" x1="1198.6871376562347" x2="1198.6871376562347" y1="3110.834025566168" y2="3306.275799746607" /><line stroke="rgb(0,0,0)" stroke-linecap="square" stroke-width="9" x1="876.7996667165835" x2="1013.8797360189187" y1="2999.41792692937" y2="2999.41792692937" /><polygon fill="none" points="1087.271039019437,2999.41792692937 1050.5753875191779,3256.287487431184 1013.8797360189187,2999.41792692937 1050.5753875191779,2742.5483664275557" stroke="rgb(0,0,0)" stroke-width="9" /><circle cx="1050.5753875191779" cy="3287.781658888937" fill="none" r="31.49417145775238" stroke="rgb(0,0,0)" stroke-width="9" /><line stroke="rgb(0,0,0)" stroke-linecap="square" stroke-width="9" x1="945.3397013677511" x2="945.3397013677511" y1="2999.41792692937" y2="3225.3014587527796" /><line stroke="rgb(0,0,0)" stroke-linecap="square" stroke-width="9" x1="945.3397013677511" x2="945.3397013677511" y1="3225.3014587527796" y2="3674.227998676472" /><line stroke="rgb(0,0,0)" stroke-linecap="square" stroke-width="9" x1="945.3397013677511" x2="945.3397013677511" y1="3674.227998676472" y2="3796.124206177945" /><line stroke="rgb(0,0,0)" stroke-linecap="square" stroke-width="9" x1="945.3397013677511" x2="945.3397013677511" y1="3796.124206177945" y2="4109.176938592718" /><line stroke="rgb(0,0,0)" stroke-linecap="square" stroke-width="9" x1="945.3397013677511" x2="945.3397013677511" y1="4109.176938592718" y2="4300.091748092109" /><line stroke="rgb(0,0,0)" stroke-linecap="square" stroke-width="9" x1="945.3397013677511" x2="945.3397013677511" y1="4300.091748092109" y2="4447.559205340706" /><circle cx="1232.1707317389935" cy="4316.593637074108" fill="none" r="100.72420658199121" stroke="rgb(0,0,0)" stroke-width="9" /><circle cx="1372.5720150734721" cy="4316.593637074108" fill="none" r="39.67707675248738" stroke="rgb(0,0,0)" stroke-width="9" /><polygon fill="none" points="1463.7471468774747,4182.787085472334 1232.1707317389935,4215.869430492117 1000.5943166005122,4182.787085472334 1232.1707317389935,4149.704740452551" stroke="rgb(0,0,0)" stroke-width="9" /><circle cx="876.7996667165835" cy="5089.815163961038" fill="none" r="45.473035498005245" stroke="rgb(0,0,0)" stroke-width="9" /><line stroke="rgb(0,0,0)" stroke-linecap="square" stroke-width="9" x1="1059.6140222188742" x2="1059.6140222188742" y1="5152.780888550158" y2="4908.567686573155" /><polygon fill="none" points="1164.949662655635,4893.519737939332 1059.6140222188742,4908.567686573155 954.2783817821135,4893.519737939332 1059.6140222188742,4878.471789305509" stroke="rgb(0,0,0)" stroke-width="9" /><line stroke="rgb(0,0,0)" stroke-linecap="square" stroke-width="9" x1="1232.1707317389935" x2="1232.1707317389935" y1="5040.589710894524" y2="4817.188587773608" /><line stroke="rgb(0,0,0)" stroke-linecap="square" stroke-width="9" x1="1291.233699151343" x2="1291.233699151343" y1="4875.454042434022" y2="4976.556794566575" /><line stroke="rgb(0,0,0)" stroke-linecap="square" stroke-width="9" x1="1350.2966665636927" x2="1789.1700065554048" y1="4617.2532157148535" y2="4617.2532157148535" /><circle cx="1569.7333365595487" cy="4707.33883172161" fill="none" r="90.08561600675651" stroke="rgb(0,0,0)" stroke-width="9" /><circle cx="1569.7333365595487" cy="4868.855546643912" fill="none" r="71.43109891554445" stroke="rgb(0,0,0)" stroke-width="9" /><polygon fill="none" points="1727.3492883287547,4962.803210097914 1569.7333365595487,4985.319774636372 1412.1173847903426,4962.803210097914 1569.7333365595487,4940.286645559457" stroke="rgb(0,0,0)" stroke-width="9" /><line stroke="rgb(0,0,0)" stroke-linecap="square" stroke-width="9" x1="1291.233699151343" x2="1291.233699151343" y1="4696.822389478298" y2="4875.454042434022" /><circle cx="1232.1707317389935" cy="5152.780888550158" fill="none" r="112.19117765563425" stroke="rgb(0,0,0)" stroke-width="9" /><circle cx="1232.1707317389935" cy="5297.379168183067" fill="none" r="32.407101977274856" stroke="rgb(0,0,0)" stroke-width="9" /><line stroke="rgb(0,0,0)" stroke-linecap="square" stroke-width="9" x1="1232.1707317389935" x2="1232.1707317389935" y1="5329.786270160342" y2="5412.094373102429" /><line stroke="rgb(0,0,0)" stroke-linecap="square" stroke-width="9" x1="1232.1707317389935" x2="1232.1707317389935" y1="5412.094373102429" y2="5698.261543287656" /><circle cx="1201.9200182438012" cy="5555.177958195043" fill="none" r="30.250713495192297" stroke="rgb(0,0,0)" stroke-width="9" /><line stroke="rgb(0,0,0)" stroke-linecap="square" stroke-width="9" x1="799.7234606977864" x2="1131.048964452727" y1="5467.18027296049" y2="5467.18027296049" /><line stroke="rgb(0,0,0)" stroke-linecap="square" stroke-width="9" x1="1171.669304748609" x2="1043.2637416555967" y1="5555.177958195043" y2="5555.177958195043" /><line stroke="rgb(0,0,0)" stroke-linecap="square" stroke-width="9" x1="1107.466523202103" x2="1107.466523202103" y1="5555.177958195043" y2="5635.306245778152" /><line stroke="rgb(0,0,0)" stroke-linecap="square" stroke-width="9" x1="965.3862125752566" x2="965.3862125752566" y1="5467.18027296049" y2="5824.805150681427" /><circle cx="1232.1707317389935" cy="5776.225533726062" fill="none" r="77.96399043840549" stroke="rgb(0,0,0)" stroke-width="9" /><line stroke="rgb(0,0,0)" stroke-linecap="square" stroke-width="9" x1="876.5044956952659" x2="985.1022953209491" y1="5894.047836154015" y2="5894.047836154015" /><line stroke="rgb(0,0,0)" stroke-linecap="square" stroke-width="9" x1="1232.1707317389935" x2="1232.1707317389935" y1="5854.189524164468" y2="5959.941885141343" /><line stroke="rgb(0,0,0)" stroke-linecap="square" stroke-width="9" x1="1232.1707317389935" x2="1232.1707317389935" y1="5959.941885141343" y2="6290.966765794936" /><line stroke="rgb(0,0,0)" stroke-linecap="square" stroke-width="9" x1="930.8033955081075" x2="930.8033955081075" y1="5894.047836154015" y2="6357.376485473799" /><line stroke="rgb(0,0,0)" stroke-linecap="square" stroke-width="9" x1="985.1022953209491" x2="1068.8615276096116" y1="5894.047836154015" y2="5894.047836154015" /><circle cx="1053.4156715922522" cy="6026.774428793957" fill="none" r="44.28293883193291" stroke="rgb(0,0,0)" stroke-width="9" /><circle cx="1561.8576271289426" cy="5264.5797324885" fill="none" r="111.79884393834135" stroke="rgb(0,0,0)" stroke-width="9" /><circle cx="1561.8576271289426" cy="5455.021101188917" fill="none" r="78.64252476207545" stroke="rgb(0,0,0)" stroke-width="9" /><circle cx="1561.8576271289426" cy="5584.343467668696" fill="none" r="50.67984171770354" stroke="rgb(0,0,0)" stroke-width="9" /><circle cx="1561.8576271289426" cy="5707.689956014085" fill="none" r="72.666646627686" stroke="rgb(0,0,0)" stroke-width="9" /><circle cx="1561.8576271289426" cy="5833.1946348244865" fill="none" r="52.838032182716105" stroke="rgb(0,0,0)" stroke-width="9" /><circle cx="1561.8576271289426" cy="5968.185953515" fill="none" r="82.15328650779696" stroke="rgb(0,0,0)" stroke-width="9" /><polygon fill="none" points="999.2484903543889,5152.780888550158 876.7996667165835,5170.273577641273 754.3508430787781,5152.780888550158 876.7996667165835,5135.288199459043" stroke="rgb(0,0,0)" stroke-width="9" /><line stroke="rgb(0,0,0)" stroke-linecap="square" stroke-width="9" x1="999.2484903543889" x2="1119.9795540833593" y1="5152.780888550158" y2="5152.780888550158" /><line stroke="rgb(0,0,0)" stroke-linecap="square" stroke-width="9" x1="1344.3619093946277" x2="1779.3533448632577" y1="5152.780888550158" y2="5152.780888550158" /><line stroke="rgb(0,0,0)" stroke-linecap="square" stroke-width="9" x1="545.473068387905" x2="545.473068387905" y1="2887.840396102166" y2="3360.5575602966474" /><line stroke="rgb(0,0,0)" stroke-linecap="square" stroke-width="9" x1="545.473068387905" x2="454.2100656954378" y1="3124.1989781994066" y2="3124.1989781994066" /><circle cx="429.8253572735747" cy="2891.505005413882" fill="none" r="61.79052527181386" stroke="rgb(0,0,0)" stroke-width="9" /><circle cx="429.8253572735747" cy="3000.108129590106" fill="none" r="46.812598904410365" stroke="rgb(0,0,0)" stroke-width="9" /><line stroke="rgb(0,0,0)" stroke-linecap="square" stroke-width="9" x1="545.473068387905" x2="545.473068387905" y1="3360.5575602966474" y2="3743.896174174897" /><line stroke="rgb(0,0,0)" stroke-linecap="square" stroke-width="9" x1="545.473068387905" x2="545.473068387905" y1="3743.896174174897" y2="4082.399854024893" /><line stroke="rgb(0,0,0)" stroke-linecap="square" stroke-width="9" x1="545.473068387905" x2="545.473068387905" y1="4082.399854024893" y2="4314.229843501378" /><line stroke="rgb(0,0,0)" stroke-linecap="square" stroke-width="9" x1="545.473068387905" x2="545.473068387905" y1="4314.229843501378" y2="4722.888330243411" /><line stroke="rgb(0,0,0)" stroke-linecap="square" stroke-width="9" x1="545.473068387905" x2="545.473068387905" y1="4722.888330243411" y2="5025.581055784588" /><line stroke="rgb(0,0,0)" stroke-linecap="square" stroke-width="9" x1="545.473068387905" x2="545.473068387905" y1="5350.2761406202435" y2="5631.312750434306" /><line stroke="rgb(0,0,0)" stroke-linecap="square" stroke-width="9" x1="545.473068387905" x2="545.473068387905" y1="5763.683879822985" y2="6024.411792485045" /><circle cx="545.473068387905" cy="5084.217366711888" fill="none" r="58.63631092729984" stroke="rgb(0,0,0)" stroke-width="9" /><line stroke="rgb(0,0,0)" stroke-linecap="square" stroke-width="9" x1="681.187408186905" x2="681.187408186905" y1="5008.5860154026595" y2="5084.654112283884" /><circle cx="545.473068387905" cy="5246.5649091297155" fill="none" r="103.71123149052804" stroke="rgb(0,0,0)" stroke-width="9" /><line stroke="rgb(0,0,0)" stroke-linecap="square" stroke-width="9" x1="710.9887820415854" x2="710.9887820415854" y1="5710.2117419804135" y2="5224.148803940566" /><line stroke="rgb(0,0,0)" stroke-linecap="square" stroke-width="9" x1="710.9887820415854" x2="799.7234606977864" y1="5467.18027296049" y2="5467.18027296049" /><circle cx="454.2453409975429" cy="4874.234693013999" fill="none" r="91.22772739036209" stroke="rgb(0,0,0)" stroke-width="9" /><circle cx="454.2453409975429" cy="4747.576026285483" fill="none" r="35.43093933815487" stroke="rgb(0,0,0)" stroke-width="9" /><circle cx="454.2453409975429" cy="4679.449424263425" fill="none" r="32.69566268390401" stroke="rgb(0,0,0)" stroke-width="9" /><circle cx="454.2453409975429" cy="4615.4019540484105" fill="none" r="31.351807531110158" stroke="rgb(0,0,0)" stroke-width="9" /><circle cx="454.2453409975429" cy="4549.890384487057" fill="none" r="34.15976203024245" stroke="rgb(0,0,0)" stroke-width="9" /><circle cx="454.2453409975429" cy="4482.8378970961985" fill="none" r="32.892725360616495" stroke="rgb(0,0,0)" stroke-width="9" /><circle cx="454.2453409975429" cy="4411.016381463475" fill="none" r="38.92879027210732" stroke="rgb(0,0,0)" stroke-width="9" /><circle cx="454.2453409975429" cy="4340.527256298705" fill="none" r="31.560334892663008" stroke="rgb(0,0,0)" stroke-width="9" /><circle cx="454.2453409975429" cy="4272.377850067794" fill="none" r="36.589071338248196" stroke="rgb(0,0,0)" stroke-width="9" /><circle cx="454.2453409975429" cy="4196.354907065177" fill="none" r="39.43387166436846" stroke="rgb(0,0,0)" stroke-width="9" /><circle cx="454.2453409975429" cy="4120.4126694775105" fill="none" r="36.50836592329813" stroke="rgb(0,0,0)" stroke-width="9" /><circle cx="454.2453409975429" cy="4053.179745374358" fill="none" r="30.724558179854423" stroke="rgb(0,0,0)" stroke-width="9" /><circle cx="454.2453409975429" cy="3987.4606312270375" fill="none" r="34.99455596746591" stroke="rgb(0,0,0)" stroke-width="9" /><circle cx="545.473068387905" cy="5697.498315128645" fill="none" r="66.18556469433965" stroke="rgb(0,0,0)" stroke-width="9" /><line stroke="rgb(0,0,0)" stroke-linecap="square" stroke-width="9" x1="479.2875036935653" x2="206.4832709685868" y1="5697.498315128645" y2="5697.498315128645" /><line stroke="rgb(0,0,0)" stroke-linecap="square" stroke-width="9" x1="710.9887820415854" x2="710.9887820415854" y1="5894.047836154015" y2="5710.2117419804135" /><line stroke="rgb(0,0,0)" stroke-linecap="square" stroke-width="9" x1="545.473068387905" x2="876.5044956952659" y1="5894.047836154015" y2="5894.047836154015" /><line stroke="rgb(0,0,0)" stroke-linecap="square" stroke-width="9" x1="545.473068387905" x2="816.9017479859052" y1="3913.148014099895" y2="3913.148014099895" /><line stroke="rgb(0,0,0)" stroke-linecap="square" stroke-width="9" x1="681.187408186905" x2="681.187408186905" y1="3913.148014099895" y2="4362.465909313294" /><line stroke="rgb(0,0,0)" stroke-linecap="square" stroke-width="9" x1="681.187408186905" x2="681.187408186905" y1="4362.465909313294" y2="4660.486389410331" /><line stroke="rgb(0,0,0)" stroke-linecap="square" stroke-width="9" x1="681.187408186905" x2="681.187408186905" y1="4660.486389410331" y2="4864.502299326166" /><line stroke="rgb(0,0,0)" stroke-linecap="square" stroke-width="9" x1="681.187408186905" x2="681.187408186905" y1="4864.502299326166" y2="5008.5860154026595" /><line stroke="rgb(0,0,0)" stroke-linecap="square" stroke-width="9" x1="6654.9077266971235" x2="6654.9077266971235" y1="2487.5385451494844" y2="2805.7725642741566" /><line stroke="rgb(0,0,0)" stroke-linecap="square" stroke-width="9" x1="6654.9077266971235" x2="6654.9077266971235" y1="2888.224741975639" y2="3383.2031801510284" /><line stroke="rgb(0,0,0)" stroke-linecap="square" stroke-width="9" x1="6654.9077266971235" x2="6654.9077266971235" y1="3383.2031801510284" y2="3771.123369836272" /><line stroke="rgb(0,0,0)" stroke-linecap="square" stroke-width="9" x1="6654.9077266971235" x2="6654.9077266971235" y1="3771.123369836272" y2="4261.338324357562" /><line stroke="rgb(0,0,0)" stroke-linecap="square" stroke-width="9" x1="6654.9077266971235" x2="6654.9077266971235" y1="4567.4958399392135" y2="4822.685263568941" /><line stroke="rgb(0,0,0)" stroke-linecap="square" stroke-width="9" x1="6654.9077266971235" x2="6654.9077266971235" y1="4822.685263568941" y2="5150.924921288529" /><line stroke="rgb(0,0,0)" stroke-linecap="square" stroke-width="9" x1="6654.9077266971235" x2="6654.9077266971235" y1="5218.945455770871" y2="5608.812129824844" /><line stroke="rgb(0,0,0)" stroke-linecap="square" stroke-width="9" x1="6654.9077266971235" x2="6654.9077266971235" y1="5608.812129824844" y2="5936.360720849725" /><circle cx="6654.9077266971235" cy="2846.998653124898" fill="none" r="41.22608885074112" stroke="rgb(0,0,0)" stroke-width="9" /><circle cx="6654.9077266971235" cy="4376.7783333137995" fill="none" r="115.44000895623765" stroke="rgb(0,0,0)" stroke-width="9" /><line stroke="rgb(0,0,0)" stroke-linecap="square" stroke-width="9" x1="6770.347735653361" x2="6849.133732866247" y1="4376.7783333137995" y2="4376.7783333137995" /><polygon fill="none" points="6918.378968539238,4529.857091104625 6654.9077266971235,4567.4958399392135 6391.436484855009,4529.857091104625 6654.9077266971235,4492.218342270037" stroke="rgb(0,0,0)" stroke-width="9" /><circle cx="6527.242806595157" cy="4730.129548493368" fill="none" r="45.81203904546779" stroke="rgb(0,0,0)" stroke-width="9" /><circle cx="6527.242806595157" cy="4651.110261873083" fill="none" r="33.207247574816876" stroke="rgb(0,0,0)" stroke-width="9" /><line stroke="rgb(0,0,0)" stroke-linecap="square" stroke-width="9" x1="6654.9077266971235" x2="6821.944492422602" y1="4695.090551754078" y2="4695.090551754078" /><line stroke="rgb(0,0,0)" stroke-linecap="square" stroke-width="9" x1="7236.049811822937" x2="7236.049811822937" y1="4181.371169781275" y2="4448.984327050435" /><circle cx="7298.659896382197" cy="4315.177748415856" fill="none" r="62.61008455926006" stroke="rgb(0,0,0)" stroke-width="9" /><line stroke="rgb(0,0,0)" stroke-linecap="square" stroke-width="9" x1="7361.269980941457" x2="7447.566821588555" y1="4315.177748415856" y2="4315.177748415856" /><line stroke="rgb(0,0,0)" stroke-linecap="square" stroke-width="9" x1="7447.566821588555" x2="7551.385881190274" y1="4315.177748415856" y2="4315.177748415856" /><line stroke="rgb(0,0,0)" stroke-linecap="square" stroke-width="9" x1="7499.476351389414" x2="7499.476351389414" y1="4315.177748415856" y2="4121.394015218731" /><line stroke="rgb(0,0,0)" stroke-linecap="square" stroke-width="9" x1="7499.476351389414" x2="7940.564348645129" y1="4218.285881817294" y2="4218.285881817294" /><circle cx="7499.476351389414" cy="4045.390115254823" fill="none" r="76.00389996390783" stroke="rgb(0,0,0)" stroke-width="9" /><line stroke="rgb(0,0,0)" stroke-linecap="square" stroke-width="9" x1="7499.476351389414" x2="7499.476351389414" y1="3969.386215290915" y2="3834.215893723738" /><line stroke="rgb(0,0,0)" stroke-linecap="square" stroke-width="9" x1="7499.476351389414" x2="7499.476351389414" y1="3834.215893723738" y2="3695.747975996194" /><line stroke="rgb(0,0,0)" stroke-linecap="square" stroke-width="9" x1="7499.476351389414" x2="7712.814857515713" y1="3764.981934859966" y2="3764.981934859966" /><circle cx="7043.964992250198" cy="4290.740246736945" fill="none" r="70.04408021523153" stroke="rgb(0,0,0)" stroke-width="9" /><polygon fill="none" points="7151.517292876417,4376.14894132735 7043.964992250198,4391.513555702524 6936.412691623978,4376.14894132735 7043.964992250198,4360.784326952176" stroke="rgb(0,0,0)" stroke-width="9" /><polygon fill="none" points="7493.661615795256,4485.786013332196 7236.049811822937,4522.587699613956 6978.438007850618,4485.786013332196 7236.049811822937,4448.984327050435" stroke="rgb(0,0,0)" stroke-width="9" /><circle cx="7236.049811822937" cy="4614.467142602039" fill="none" r="91.87944298808294" stroke="rgb(0,0,0)" stroke-width="9" /><circle cx="7236.049811822937" cy="4780.362235359692" fill="none" r="74.0156497695709" stroke="rgb(0,0,0)" stroke-width="9" /><circle cx="7027.69751680575" cy="4704.588318156474" fill="none" r="46.217097757422884" stroke="rgb(0,0,0)" stroke-width="9" /><circle cx="7027.69751680575" cy="4623.617103002594" fill="none" r="34.75411739645685" stroke="rgb(0,0,0)" stroke-width="9" /><line stroke="rgb(0,0,0)" stroke-linecap="square" stroke-width="9" x1="7437.869234320749" x2="7437.869234320749" y1="4905.78059710559" y2="4762.273246322474" /><line stroke="rgb(0,0,0)" stroke-linecap="square" stroke-width="9" x1="7437.869234320749" x2="7437.869234320749" y1="4762.273246322474" y2="4620.370557748308" /><line stroke="rgb(0,0,0)" stroke-linecap="square" stroke-width="9" x1="6654.9077266971235" x2="6384.796118849107" y1="3135.713961063334" y2="3135.713961063334" /><line stroke="rgb(0,0,0)" stroke-linecap="square" stroke-width="9" x1="6519.851922773116" x2="6519.851922773116" y1="3135.713961063334" y2="2684.5957811016765" /><line stroke="rgb(0,0,0)" stroke-linecap="square" stroke-width="9" x1="6654.9077266971235" x2="6939.694592357459" y1="4016.230847096917" y2="4016.230847096917" /><polygon fill="none" points="6936.379188609379,3801.5281782727548 6919.491746821118,3919.740270790582 6902.604305032857,3801.5281782727548 6919.491746821118,3683.3160857549274" stroke="rgb(0,0,0)" stroke-width="9" /><line stroke="rgb(0,0,0)" stroke-linecap="square" stroke-width="9" x1="6919.491746821118" x2="6919.491746821118" y1="3683.3160857549274" y2="3561.8685598599295" /><line stroke="rgb(0,0,0)" stroke-linecap="square" stroke-width="9" x1="6919.491746821118" x2="6919.491746821118" y1="3561.8685598599295" y2="3302.392806951142" /><line stroke="rgb(0,0,0)" stroke-linecap="square" stroke-width="9" x1="6919.491746821118" x2="6919.491746821118" y1="3226.558315827765" y2="2963.519638853888" /><line stroke="rgb(0,0,0)" stroke-linecap="square" stroke-width="9" x1="6919.491746821118" x2="6919.491746821118" y1="2963.519638853888" y2="2846.1538688115807" /><circle cx="6919.491746821118" cy="3264.4755613894536" fill="none" r="37.91724556168841" stroke="rgb(0,0,0)" stroke-width="9" /><line stroke="rgb(0,0,0)" stroke-linecap="square" stroke-width="9" x1="6797.301159527291" x2="6797.301159527291" y1="4016.230847096917" y2="3564.3821901729093" /><line stroke="rgb(0,0,0)" stroke-linecap="square" stroke-width="9" x1="6797.301159527291" x2="6797.301159527291" y1="3564.3821901729093" y2="3439.9485712110804" /><line stroke="rgb(0,0,0)" stroke-linecap="square" stroke-width="9" x1="6797.301159527291" x2="6797.301159527291" y1="3439.9485712110804" y2="2977.822721516758" /><line stroke="rgb(0,0,0)" stroke-linecap="square" stroke-width="9" x1="6797.301159527291" x2="6797.301159527291" y1="2977.822721516758" y2="2765.0602398235296" /><line stroke="rgb(0,0,0)" stroke-linecap="square" stroke-width="9" x1="7236.049811822937" x2="7236.049811822937" y1="2638.797383923855" y2="3131.0732147474127" /><line stroke="rgb(0,0,0)" stroke-linecap="square" stroke-width="9" x1="7236.049811822937" x2="7236.049811822937" y1="3131.0732147474127" y2="3532.208306418862" /><line stroke="rgb(0,0,0)" stroke-linecap="square" stroke-width="9" x1="7236.049811822937" x2="7236.049811822937" y1="3910.145998703377" y2="4181.371169781275" /><circle cx="7236.049811822937" cy="3612.5593321304973" fill="none" r="80.3510257116353" stroke="rgb(0,0,0)" stroke-width="9" /><line stroke="rgb(0,0,0)" stroke-linecap="square" stroke-width="9" x1="7499.476351389414" x2="7499.476351389414" y1="3695.747975996194" y2="3268.8638624273385" /><line stroke="rgb(0,0,0)" stroke-linecap="square" stroke-width="9" x1="7499.476351389414" x2="7499.476351389414" y1="3268.8638624273385" y2="2772.732868756833" /><circle cx="7236.049811822937" cy="3801.5281782727548" fill="none" r="108.61782043062202" stroke="rgb(0,0,0)" stroke-width="9" /><line stroke="rgb(0,0,0)" stroke-linecap="square" stroke-width="9" x1="7127.4319913923155" x2="7033.459021226805" y1="3801.5281782727548" y2="3801.5281782727548" /><line stroke="rgb(0,0,0)" stroke-linecap="square" stroke-width="9" x1="7033.459021226805" x2="6936.379188609379" y1="3801.5281782727548" y2="3801.5281782727548" /><line stroke="rgb(0,0,0)" stroke-linecap="square" stroke-width="9" x1="6939.694592357459" x2="7148.235392142937" y1="4016.230847096917" y2="4016.230847096917" /><line stroke="rgb(0,0,0)" stroke-linecap="square" stroke-width="9" x1="7043.964992250198" x2="7043.964992250198" y1="4016.230847096917" y2="4220.696166521713" /><line stroke="rgb(0,0,0)" stroke-linecap="square" stroke-width="9" x1="7298.659896382197" x2="7298.659896382197" y1="4252.567663856596" y2="4003.0699953679996" /><polygon fill="none" points="6892.979597385323,5184.9351885297 6654.9077266971235,5218.945455770871 6416.835856008924,5184.9351885297 6654.9077266971235,5150.924921288529" stroke="rgb(0,0,0)" stroke-width="9" /><line stroke="rgb(0,0,0)" stroke-linecap="square" stroke-width="9" x1="6654.9077266971235" x2="6399.577886493192" y1="4986.8050924287345" y2="4986.8050924287345" /><line stroke="rgb(0,0,0)" stroke-linecap="square" stroke-width="9" x1="6527.242806595157" x2="6527.242806595157" y1="4986.8050924287345" y2="4859.273590698677" /><circle cx="6527.242806595157" cy="4817.607589118757" fill="none" r="41.66600157992035" stroke="rgb(0,0,0)" stroke-width="9" /><line stroke="rgb(0,0,0)" stroke-linecap="square" stroke-width="9" x1="6738.426109559863" x2="6738.426109559863" y1="4695.090551754078" y2="5047.491344123252" /><line stroke="rgb(0,0,0)" stroke-linecap="square" stroke-width="9" x1="6821.944492422602" x2="6919.697525383041" y1="4695.090551754078" y2="4695.090551754078" /><circle cx="6718.085239651122" cy="5413.878792797857" fill="none" r="63.17751295399823" stroke="rgb(0,0,0)" stroke-width="9" /><line stroke="rgb(0,0,0)" stroke-linecap="square" stroke-width="9" x1="6718.085239651122" x2="6718.085239651122" y1="5350.701279843859" y2="5273.52028564396" /><line stroke="rgb(0,0,0)" stroke-linecap="square" stroke-width="9" x1="6781.26275260512" x2="6875.184645317067" y1="5413.878792797857" y2="5413.878792797857" /><circle cx="6923.810892155739" cy="5184.9351885297" fill="none" r="30.831294770415045" stroke="rgb(0,0,0)" stroke-width="9" /><line stroke="rgb(0,0,0)" stroke-linecap="square" stroke-width="9" x1="6875.184645317067" x2="6959.115790566606" y1="5413.878792797857" y2="5413.878792797857" /><circle cx="7027.69751680575" cy="5184.9351885297" fill="none" r="73.05532987959538" stroke="rgb(0,0,0)" stroke-width="9" /><line stroke="rgb(0,0,0)" stroke-linecap="square" stroke-width="9" x1="7027.69751680575" x2="7027.69751680575" y1="5257.990518409296" y2="5367.096880917345" /><line stroke="rgb(0,0,0)" stroke-linecap="square" stroke-width="9" x1="7027.69751680575" x2="6805.669927303946" y1="5581.966616501388" y2="5581.966616501388" /><line stroke="rgb(0,0,0)" stroke-linecap="square" stroke-width="9" x1="6654.9077266971235" x2="6555.979644844091" y1="5772.586425337285" y2="5772.586425337285" /><circle cx="6474.675390130656" cy="5772.586425337285" fill="none" r="81.30425471343528" stroke="rgb(0,0,0)" stroke-width="9" /><polygon fill="none" points="6587.35584928906,5869.987888501921 6474.675390130656,5886.085096953121 6361.9949309722515,5869.987888501921 6474.675390130656,5853.89068005072" stroke="rgb(0,0,0)" stroke-width="9" /><line stroke="rgb(0,0,0)" stroke-linecap="square" stroke-width="9" x1="6718.085239651122" x2="6718.085239651122" y1="5686.117004772178" y2="5770.732032650349" /><line stroke="rgb(0,0,0)" stroke-linecap="square" stroke-width="9" x1="6916.683722054848" x2="6916.683722054848" y1="5581.966616501388" y2="5827.468844859523" /><circle cx="6474.675390130656" cy="5660.058396391613" fill="none" r="31.223774232236153" stroke="rgb(0,0,0)" stroke-width="9" /><circle cx="6474.675390130656" cy="5577.803787044539" fill="none" r="51.030835114839036" stroke="rgb(0,0,0)" stroke-width="9" /><polygon fill="none" points="6584.620507896728,5511.0665065345465 6474.675390130656,5526.7729519297 6364.7302723645835,5511.0665065345465 6474.675390130656,5495.360061139393" stroke="rgb(0,0,0)" stroke-width="9" /><line stroke="rgb(0,0,0)" stroke-linecap="square" stroke-width="9" x1="6718.085239651122" x2="6718.085239651122" y1="5477.056305751856" y2="5686.117004772178" /><line stroke="rgb(0,0,0)" stroke-linecap="square" stroke-width="9" x1="7236.049811822937" x2="7639.68865681856" y1="5090.475325846066" y2="5090.475325846066" /><circle cx="7437.869234320749" cy="4998.127961475828" fill="none" r="92.34736437023835" stroke="rgb(0,0,0)" stroke-width="9" /><line stroke="rgb(0,0,0)" stroke-linecap="square" stroke-width="9" x1="7236.049811822937" x2="7236.049811822937" y1="4854.377885129263" y2="5326.57276656287" /><line stroke="rgb(0,0,0)" stroke-linecap="square" stroke-width="9" x1="7236.049811822937" x2="7236.049811822937" y1="5326.57276656287" y2="5773.744665432622" /><line stroke="rgb(0,0,0)" stroke-linecap="square" stroke-width="9" x1="7100.7528466853455" x2="7180.052984324907" y1="5184.9351885297" y2="5184.9351885297" /><line stroke="rgb(0,0,0)" stroke-linecap="square" stroke-width="9" x1="7127.388123691752" x2="7127.388123691752" y1="5911.418820224022" y2="5492.606015051938" /><line stroke="rgb(0,0,0)" stroke-linecap="square" stroke-width="9" x1="7127.388123691752" x2="7127.388123691752" y1="5492.606015051938" y2="5325.25553338163" /><line stroke="rgb(0,0,0)" stroke-linecap="square" stroke-width="9" x1="7027.69751680575" x2="7027.69751680575" y1="5367.096880917345" y2="5796.83635208543" /><line stroke="rgb(0,0,0)" stroke-linecap="square" stroke-width="9" x1="7027.69751680575" x2="7027.69751680575" y1="5111.879858650104" y2="4750.805415913897" /><polygon fill="none" points="6892.820418203524,5970.3482482077825 6654.9077266971235,6004.33577556584 6416.995035190723,5970.3482482077825 6654.9077266971235,5936.360720849725" stroke="rgb(0,0,0)" stroke-width="9" /><line stroke="rgb(0,0,0)" stroke-linecap="square" stroke-width="9" x1="6718.085239651122" x2="6718.085239651122" y1="5770.732032650349" y2="5877.85132687377" /><line stroke="rgb(0,0,0)" stroke-linecap="square" stroke-width="9" x1="7236.049811822937" x2="7236.049811822937" y1="5773.744665432622" y2="6251.480560843592" /><polygon fill="none" points="7236.049811822937,6012.612613138107 7211.932680482594,6181.432532520508 7187.815549142251,6012.612613138107 7211.932680482594,5843.792693755706" stroke="rgb(0,0,0)" stroke-width="9" /><circle cx="7236.049811822937" cy="6291.79552604639" fill="none" r="40.31496520279748" stroke="rgb(0,0,0)" stroke-width="9" /><line stroke="rgb(0,0,0)" stroke-linecap="square" stroke-width="9" x1="7127.388123691752" x2="7127.388123691752" y1="6396.809508017698" y2="5911.418820224022" /><line stroke="rgb(0,0,0)" stroke-linecap="square" stroke-width="9" x1="7027.69751680575" x2="7027.69751680575" y1="5796.83635208543" y2="6160.9105520044095" /><circle cx="6996.32588574218" cy="5978.87345204492" fill="none" r="31.3716310635699" stroke="rgb(0,0,0)" stroke-width="9" /><line stroke="rgb(0,0,0)" stroke-linecap="square" stroke-width="9" x1="6758.409652459197" x2="6758.409652459197" y1="1558.224606065603" y2="1111.3068518412406" /><line stroke="rgb(0,0,0)" stroke-linecap="square" stroke-width="9" x1="7408.794827445296" x2="7408.794827445296" y1="1568.8077701569327" y2="1153.9131537140852" /><line stroke="rgb(0,0,0)" stroke-linecap="square" stroke-width="9" x1="6194.881197870604" x2="6563.461306756736" y1="881.4435234393258" y2="881.4435234393258" /><line stroke="rgb(0,0,0)" stroke-linecap="square" stroke-width="9" x1="6379.17125231367" x2="6379.17125231367" y1="881.4435234393258" y2="1128.7308180826203" /><circle cx="6379.17125231367" cy="1214.0728335354931" fill="none" r="85.34201545287277" stroke="rgb(0,0,0)" stroke-width="9" /><line stroke="rgb(0,0,0)" stroke-linecap="square" stroke-width="9" x1="4316.382403658217" x2="4636.800262918482" y1="6908.313369524488" y2="6908.313369524488" /><line stroke="rgb(0,0,0)" stroke-linecap="square" stroke-width="9" x1="4861.578614082801" x2="5103.254871759254" y1="6908.313369524488" y2="6908.313369524488" /><line stroke="rgb(0,0,0)" stroke-linecap="square" stroke-width="9" x1="5103.254871759254" x2="5184.178562989223" y1="6908.313369524488" y2="6908.313369524488" /><line stroke="rgb(0,0,0)" stroke-linecap="square" stroke-width="9" x1="5184.178562989223" x2="5323.976128137735" y1="6908.313369524488" y2="6908.313369524488" /><line stroke="rgb(0,0,0)" stroke-linecap="square" stroke-width="9" x1="5323.976128137735" x2="5575.965090582446" y1="6908.313369524488" y2="6908.313369524488" /><line stroke="rgb(0,0,0)" stroke-linecap="square" stroke-width="9" x1="5575.965090582446" x2="5704.67212874403" y1="6908.313369524488" y2="6908.313369524488" /><line stroke="rgb(0,0,0)" stroke-linecap="square" stroke-width="9" x1="5704.67212874403" x2="6081.451400053381" y1="6908.313369524488" y2="6908.313369524488" /><line stroke="rgb(0,0,0)" stroke-linecap="square" stroke-width="9" x1="5449.970609360091" x2="5074.356868887961" y1="7063.403533955904" y2="7063.403533955904" /><circle cx="5004.288381689051" cy="7063.403533955904" fill="none" r="70.06848719891062" stroke="rgb(0,0,0)" stroke-width="9" /><line stroke="rgb(0,0,0)" stroke-linecap="square" stroke-width="9" x1="5004.288381689051" x2="5004.288381689051" y1="7133.472021154815" y2="7226.225917512958" /><circle cx="5262.163739124026" cy="7098.871536211346" fill="none" r="35.468002255441746" stroke="rgb(0,0,0)" stroke-width="9" /><line stroke="rgb(0,0,0)" stroke-linecap="square" stroke-width="9" x1="5262.163739124026" x2="5262.163739124026" y1="7134.339538466788" y2="7281.439343840681" /><line stroke="rgb(0,0,0)" stroke-linecap="square" stroke-width="9" x1="5262.163739124026" x2="5262.163739124026" y1="7281.439343840681" y2="7727.04275647706" /><line stroke="rgb(0,0,0)" stroke-linecap="square" stroke-width="9" x1="5004.288381689051" x2="5004.288381689051" y1="7226.225917512958" y2="7711.886789240464" /><line stroke="rgb(0,0,0)" stroke-linecap="square" stroke-width="9" x1="4049.48161466112" x2="4049.48161466112" y1="6920.357589149889" y2="7163.51056202773" /><circle cx="3999.347834689774" cy="7041.93407558881" fill="none" r="50.133779971345945" stroke="rgb(0,0,0)" stroke-width="9" /><line stroke="rgb(0,0,0)" stroke-linecap="square" stroke-width="9" x1="3999.347834689774" x2="3999.347834689774" y1="6991.800295617464" y2="6914.915050611452" /><line stroke="rgb(0,0,0)" stroke-linecap="square" stroke-width="9" x1="4223.705605141074" x2="4223.705605141074" y1="7181.0965013043715" y2="6959.372989193903" /><circle cx="4223.705605141074" cy="6918.648100002892" fill="none" r="40.72488919101082" stroke="rgb(0,0,0)" stroke-width="9" /><circle cx="3840.4260232649895" cy="7041.93407558881" fill="none" r="108.78803145343879" stroke="rgb(0,0,0)" stroke-width="9" /><polygon fill="none" points="3947.328465829781,6917.874266626115 3840.4260232649895,6933.146044135371 3733.5235807001977,6917.874266626115 3840.4260232649895,6902.602489116859" stroke="rgb(0,0,0)" stroke-width="9" /><line stroke="rgb(0,0,0)" stroke-linecap="square" stroke-width="9" x1="4049.48161466112" x2="4049.48161466112" y1="7163.51056202773" y2="7463.173629552706" /><line stroke="rgb(0,0,0)" stroke-linecap="square" stroke-width="9" x1="3999.347834689774" x2="3999.347834689774" y1="7092.067855560155" y2="7351.428598307716" /><polygon fill="none" points="4321.855464009429,7502.084179459607 4049.48161466112,7540.994729366508 3777.1077653128114,7502.084179459607 4049.48161466112,7463.173629552706" stroke="rgb(0,0,0)" stroke-width="9" /><line stroke="rgb(0,0,0)" stroke-linecap="square" stroke-width="9" x1="4049.48161466112" x2="4397.929595621027" y1="7313.342095790218" y2="7313.342095790218" /><circle cx="4223.705605141074" cy="7247.219298547295" fill="none" r="66.12279724292371" stroke="rgb(0,0,0)" stroke-width="9" /><line stroke="rgb(0,0,0)" stroke-linecap="square" stroke-width="9" x1="3840.4260232649895" x2="3840.4260232649895" y1="7150.722107042248" y2="7305.00707484565" /><line stroke="rgb(0,0,0)" stroke-linecap="square" stroke-width="9" x1="3840.4260232649895" x2="3840.4260232649895" y1="7305.00707484565" y2="7388.468663208223" /><line stroke="rgb(0,0,0)" stroke-linecap="square" stroke-width="9" x1="4321.855464009429" x2="4483.529854644807" y1="7502.084179459607" y2="7502.084179459607" /><circle cx="4526.084551945875" cy="7502.084179459607" fill="none" r="42.55469730106856" stroke="rgb(0,0,0)" stroke-width="9" /><circle cx="4430.416614921346" cy="7313.342095790218" fill="none" r="32.4870193003191" stroke="rgb(0,0,0)" stroke-width="9" /><polygon fill="none" points="4610.642550207396,7502.084179459607 4589.64089972717,7649.095732821192 4568.639249246944,7502.084179459607 4589.64089972717,7355.072626098023" stroke="rgb(0,0,0)" stroke-width="9" /><line stroke="rgb(0,0,0)" stroke-linecap="square" stroke-width="9" x1="4589.64089972717" x2="4589.64089972717" y1="7355.072626098023" y2="7106.508018828758" /><line stroke="rgb(0,0,0)" stroke-linecap="square" stroke-width="9" x1="4402.692659327118" x2="4402.692659327118" y1="7502.084179459607" y2="7890.084007183301" /><line stroke="rgb(0,0,0)" stroke-linecap="square" stroke-width="9" x1="3464.410613304743" x2="3464.410613304743" y1="6795.490802405251" y2="7175.607585469217" /><line stroke="rgb(0,0,0)" stroke-linecap="square" stroke-width="9" x1="3464.410613304743" x2="3464.410613304743" y1="7175.607585469217" y2="7430.986817298362" /><line stroke="rgb(0,0,0)" stroke-linecap="square" stroke-width="9" x1="3149.24943376587" x2="3149.24943376587" y1="6811.481944305211" y2="7304.5355696270435" /><polygon fill="none" points="3184.5611517372827,7058.008756966127 3166.9052927515763,7181.599769866071 3149.24943376587,7058.008756966127 3166.9052927515763,6934.417744066183" stroke="rgb(0,0,0)" stroke-width="9" /><line stroke="rgb(0,0,0)" stroke-linecap="square" stroke-width="9" x1="3149.24943376587" x2="3149.24943376587" y1="7304.5355696270435" y2="7731.007609879403" /><line stroke="rgb(0,0,0)" stroke-linecap="square" stroke-width="9" x1="2879.043815185084" x2="2879.043815185084" y1="6694.654907260499" y2="7073.725763706774" /><line stroke="rgb(0,0,0)" stroke-linecap="square" stroke-width="9" x1="2879.043815185084" x2="2879.043815185084" y1="7073.725763706774" y2="7469.595779745586" /><line stroke="rgb(0,0,0)" stroke-linecap="square" stroke-width="9" x1="2879.043815185084" x2="2879.043815185084" y1="7469.595779745586" y2="7946.092807998221" /><line stroke="rgb(0,0,0)" stroke-linecap="square" stroke-width="9" x1="2636.160019612823" x2="2636.160019612823" y1="6784.160121296686" y2="7110.98285433311" /><line stroke="rgb(0,0,0)" stroke-linecap="square" stroke-width="9" x1="2636.160019612823" x2="2636.160019612823" y1="7110.98285433311" y2="7485.555706420422" /><line stroke="rgb(0,0,0)" stroke-linecap="square" stroke-width="9" x1="2451.616442119705" x2="2451.616442119705" y1="6789.69327071743" y2="7085.973901787834" /><circle cx="2451.616442119705" cy="7140.2796984041815" fill="none" r="54.30579661634792" stroke="rgb(0,0,0)" stroke-width="9" /><circle cx="2451.616442119705" cy="7268.138222899221" fill="none" r="73.55272787869146" stroke="rgb(0,0,0)" stroke-width="9" /><line stroke="rgb(0,0,0)" stroke-linecap="square" stroke-width="9" x1="2451.616442119705" x2="2451.616442119705" y1="7341.690950777912" y2="7421.91993072223" /><polygon fill="none" points="2777.751369028218,7505.783042051193 2636.160019612823,7526.010377681963 2494.5686701974278,7505.783042051193 2636.160019612823,7485.555706420422" stroke="rgb(0,0,0)" stroke-width="9" /><circle cx="1817.7345292608757" cy="6998.379456427739" fill="none" r="113.89996277519613" stroke="rgb(0,0,0)" stroke-width="9" /><line stroke="rgb(0,0,0)" stroke-linecap="square" stroke-width="9" x1="1817.7345292608757" x2="1716.410185982892" y1="7185.792425743579" y2="7185.792425743579" /><line stroke="rgb(0,0,0)" stroke-linecap="square" stroke-width="9" x1="1716.410185982892" x2="1372.30057409883" y1="7185.792425743579" y2="7185.792425743579" /><polygon fill="none" points="1658.1384863793662,7202.047155220508 1544.355380040861,7218.301884697437 1430.572273702356,7202.047155220508 1544.355380040861,7185.792425743579" stroke="rgb(0,0,0)" stroke-width="9" /><line stroke="rgb(0,0,0)" stroke-linecap="square" stroke-width="9" x1="1817.7345292608757" x2="1817.7345292608757" y1="7112.279419202935" y2="7259.305432284222" /><line stroke="rgb(0,0,0)" stroke-linecap="square" stroke-width="9" x1="1817.7345292608757" x2="1817.7345292608757" y1="7259.305432284222" y2="7348.548674686443" /><line stroke="rgb(0,0,0)" stroke-linecap="square" stroke-width="9" x1="1767.0723576218838" x2="1767.0723576218838" y1="7185.792425743579" y2="7310.902248329741" /><line stroke="rgb(0,0,0)" stroke-linecap="square" stroke-width="9" x1="1817.7345292608757" x2="1817.7345292608757" y1="7348.548674686443" y2="7668.731049436676" /><line stroke="rgb(0,0,0)" stroke-linecap="square" stroke-width="9" x1="1767.0723576218838" x2="1767.0723576218838" y1="7310.902248329741" y2="7786.9803920015465" /><polygon fill="none" points="3660.3067097912044,7458.971973939286 3464.410613304743,7486.957130580209 3268.5145168182817,7458.971973939286 3464.410613304743,7430.986817298362" stroke="rgb(0,0,0)" stroke-width="9" /><polygon fill="none" points="3667.802528454508,7516.013118458747 3464.410613304743,7545.069106337285 3261.018698154978,7516.013118458747 3464.410613304743,7486.957130580209" stroke="rgb(0,0,0)" stroke-width="9" /><line stroke="rgb(0,0,0)" stroke-linecap="square" stroke-width="9" x1="3731.637991811551" x2="3540.8175752406723" y1="7041.93407558881" y2="7041.93407558881" /><line stroke="rgb(0,0,0)" stroke-linecap="square" stroke-width="9" x1="3636.2277835261116" x2="3636.2277835261116" y1="7041.93407558881" y2="6936.593863590215" /><circle cx="3636.2277835261116" cy="6903.785956801352" fill="none" r="32.80790678886337" stroke="rgb(0,0,0)" stroke-width="9" /><line stroke="rgb(0,0,0)" stroke-linecap="square" stroke-width="9" x1="5449.970609360091" x2="5449.970609360091" y1="6908.313369524488" y2="7218.49369838732" /><line stroke="rgb(0,0,0)" stroke-linecap="square" stroke-width="9" x1="5449.970609360091" x2="5449.970609360091" y1="7218.49369838732" y2="7713.856505061025" /><line stroke="rgb(0,0,0)" stroke-linecap="square" stroke-width="9" x1="5640.318609663238" x2="5640.318609663238" y1="6908.313369524488" y2="7303.723679675173" /><circle cx="5608.148708134628" cy="7106.018524599831" fill="none" r="32.16990152861035" stroke="rgb(0,0,0)" stroke-width="9" /><polygon fill="none" points="5575.978806606017,7106.018524599831 5560.797006988973,7212.291121919141 5545.6152073719295,7106.018524599831 5560.797006988973,6999.745927280521" stroke="rgb(0,0,0)" stroke-width="9" /><line stroke="rgb(0,0,0)" stroke-linecap="square" stroke-width="9" x1="5560.797006988973" x2="5560.797006988973" y1="7212.291121919141" y2="7590.377013817178" /><line stroke="rgb(0,0,0)" stroke-linecap="square" stroke-width="9" x1="5640.318609663238" x2="5640.318609663238" y1="7303.723679675173" y2="7478.734859176553" /><line stroke="rgb(0,0,0)" stroke-linecap="square" stroke-width="9" x1="5640.318609663238" x2="5640.318609663238" y1="7478.734859176553" y2="7786.471481994564" /><polygon fill="none" points="6149.323668176549,6908.313369524488 6115.387534114965,7145.86630795558 6081.451400053381,6908.313369524488 6115.387534114965,6670.760431093396" stroke="rgb(0,0,0)" stroke-width="9" /><line stroke="rgb(0,0,0)" stroke-linecap="square" stroke-width="9" x1="6320.259068821832" x2="6320.259068821832" y1="6908.313369524488" y2="7195.789495509578" /><polygon fill="none" points="6566.317567019815,6908.313369524488 6528.756018243465,7171.244210958937 6491.194469467116,6908.313369524488 6528.756018243465,6645.382528090038" stroke="rgb(0,0,0)" stroke-width="9" /><circle cx="6528.756018243465" cy="7243.049171945176" fill="none" r="71.80496098623837" stroke="rgb(0,0,0)" stroke-width="9" /><circle cx="6528.756018243465" cy="7405.5466063522" fill="none" r="90.69247342078634" stroke="rgb(0,0,0)" stroke-width="9" /><circle cx="6528.756018243465" cy="7609.167283288654" fill="none" r="112.92820351566873" stroke="rgb(0,0,0)" stroke-width="9" /><line stroke="rgb(0,0,0)" stroke-linecap="square" stroke-width="9" x1="6115.387534114965" x2="6115.387534114965" y1="7145.86630795558" y2="7574.244349735322" /><circle cx="6041.163390167276" cy="7360.055328845451" fill="none" r="74.22414394768896" stroke="rgb(0,0,0)" stroke-width="9" /><line stroke="rgb(0,0,0)" stroke-linecap="square" stroke-width="9" x1="6041.163390167276" x2="6041.163390167276" y1="7285.831184897762" y2="7204.98844431685" /><line stroke="rgb(0,0,0)" stroke-linecap="square" stroke-width="9" x1="6041.163390167276" x2="6041.163390167276" y1="7434.2794727931405" y2="7527.371882842984" /><polygon fill="none" points="5966.9392462195865,7360.055328845451 5929.999466259018,7618.633788569434 5893.059686298449,7360.055328845451 5929.999466259018,7101.476869121469" stroke="rgb(0,0,0)" stroke-width="9" /><circle cx="5929.999466259018" cy="7056.861877502383" fill="none" r="44.61499161908503" stroke="rgb(0,0,0)" stroke-width="9" /><circle cx="5814.233642173208" cy="7360.055328845451" fill="none" r="78.826044125241" stroke="rgb(0,0,0)" stroke-width="9" /><polygon fill="none" points="5735.4075980479665,7360.055328845451 5720.20177239041,7466.4961084483475 5704.995946732854,7360.055328845451 5720.20177239041,7253.614549242555" stroke="rgb(0,0,0)" stroke-width="9" /><line stroke="rgb(0,0,0)" stroke-linecap="square" stroke-width="9" x1="5814.233642173208" x2="5814.233642173208" y1="7438.881372970693" y2="7585.019899020969" /><line stroke="rgb(0,0,0)" stroke-linecap="square" stroke-width="9" x1="5814.233642173208" x2="5814.233642173208" y1="7281.22928472021" y2="7180.768735499787" /><line stroke="rgb(0,0,0)" stroke-linecap="square" stroke-width="9" x1="5814.233642173208" x2="5814.233642173208" y1="7180.768735499787" y2="6984.455170039729" /><line stroke="rgb(0,0,0)" stroke-linecap="square" stroke-width="9" x1="6320.259068821832" x2="6320.259068821832" y1="7195.789495509578" y2="7579.493360327623" /><line stroke="rgb(0,0,0)" stroke-linecap="square" stroke-width="9" x1="4476.59133328835" x2="4476.59133328835" y1="6908.313369524488" y2="6744.975710015468" /><circle cx="4476.59133328835" cy="6694.654907260499" fill="none" r="50.320802754968554" stroke="rgb(0,0,0)" stroke-width="9" /><line stroke="rgb(0,0,0)" stroke-linecap="square" stroke-width="9" x1="4426.270530533382" x2="4110.17013395977" y1="6694.654907260499" y2="6694.654907260499" /><line stroke="rgb(0,0,0)" stroke-linecap="square" stroke-width="9" x1="3988.79309536247" x2="3565.2465084494947" y1="6694.654907260499" y2="6694.654907260499" /><circle cx="4049.48161466112" cy="6694.654907260499" fill="none" r="60.68851929865028" stroke="rgb(0,0,0)" stroke-width="9" /><circle cx="3464.410613304743" cy="6694.654907260499" fill="none" r="100.83589514475156" stroke="rgb(0,0,0)" stroke-width="9" /><line stroke="rgb(0,0,0)" stroke-linecap="square" stroke-width="9" x1="3363.5747181599913" x2="3266.0764708105817" y1="6694.654907260499" y2="6694.654907260499" /><circle cx="3149.24943376587" cy="6694.654907260499" fill="none" r="116.82703704471182" stroke="rgb(0,0,0)" stroke-width="9" /><circle cx="2636.160019612823" cy="6694.654907260499" fill="none" r="89.50521403618706" stroke="rgb(0,0,0)" stroke-width="9" /><circle cx="2451.616442119705" cy="6694.654907260499" fill="none" r="95.03836345693082" stroke="rgb(0,0,0)" stroke-width="9" /><line stroke="rgb(0,0,0)" stroke-linecap="square" stroke-width="9" x1="2356.5780786627743" x2="2081.376286775772" y1="6694.654907260499" y2="6694.654907260499" /><line stroke="rgb(0,0,0)" stroke-linecap="square" stroke-width="9" x1="2081.376286775772" x2="1926.8886079833208" y1="6694.654907260499" y2="6694.654907260499" /><line stroke="rgb(0,0,0)" stroke-linecap="square" stroke-width="9" x1="1926.8886079833208" x2="1708.5804505384308" y1="6694.654907260499" y2="6694.654907260499" /><line stroke="rgb(0,0,0)" stroke-linecap="square" stroke-width="9" x1="1708.5804505384308" x2="1345.3323611780388" y1="6694.654907260499" y2="6694.654907260499" /><circle cx="2218.977182719273" cy="6651.655511890953" fill="none" r="42.99939536954639" stroke="rgb(0,0,0)" stroke-width="9" /><line stroke="rgb(0,0,0)" stroke-linecap="square" stroke-width="9" x1="2004.1324473795462" x2="2004.1324473795462" y1="6694.654907260499" y2="6593.955319028878" /><line stroke="rgb(0,0,0)" stroke-linecap="square" stroke-width="9" x1="1817.7345292608757" x2="1817.7345292608757" y1="6694.654907260499" y2="6884.479493652542" /><polygon fill="none" points="4287.22718890115,6789.307080022011 4049.48161466112,6823.270733484873 3811.73604042109,6789.307080022011 4049.48161466112,6755.3434265591495" stroke="rgb(0,0,0)" stroke-width="9" /><line stroke="rgb(0,0,0)" stroke-linecap="square" stroke-width="9" x1="4049.48161466112" x2="4049.48161466112" y1="6823.270733484873" y2="6920.357589149889" /><circle cx="4476.59133328835" cy="6525.07852748764" fill="none" r="119.25557701789174" stroke="rgb(0,0,0)" stroke-width="9" /><polygon fill="none" points="4637.829682192127,6525.07852748764 4616.838296249184,6672.018229088235 4595.846910306242,6525.07852748764 4616.838296249184,6378.138825887045" stroke="rgb(0,0,0)" stroke-width="9" /><line stroke="rgb(0,0,0)" stroke-linecap="square" stroke-width="9" x1="4268.220332246576" x2="4268.220332246576" y1="6694.654907260499" y2="6420.120663343272" /><line stroke="rgb(0,0,0)" stroke-linecap="square" stroke-width="9" x1="4049.48161466112" x2="4049.48161466112" y1="6633.966387961849" y2="6426.3662319828145" /><polygon fill="none" points="3929.489219513653,6672.8735618879755 3777.0198019059826,6694.654907260499 3624.550384298312,6672.8735618879755 3777.0198019059826,6651.092216515452" stroke="rgb(0,0,0)" stroke-width="9" /><line stroke="rgb(0,0,0)" stroke-linecap="square" stroke-width="9" x1="3636.2277835261116" x2="3636.2277835261116" y1="6870.978050012489" y2="6795.262147524618" /><line stroke="rgb(0,0,0)" stroke-linecap="square" stroke-width="9" x1="3464.410613304743" x2="3464.410613304743" y1="6593.819012115748" y2="6416.681245457915" /><circle cx="3149.24943376587" cy="6491.19889546972" fill="none" r="86.62897474606766" stroke="rgb(0,0,0)" stroke-width="9" /><line stroke="rgb(0,0,0)" stroke-linecap="square" stroke-width="9" x1="3032.4223967211583" x2="2725.66523364901" y1="6694.654907260499" y2="6694.654907260499" /><line stroke="rgb(0,0,0)" stroke-linecap="square" stroke-width="9" x1="2636.160019612823" x2="2636.160019612823" y1="6605.149693224313" y2="6275.668211253146" /><line stroke="rgb(0,0,0)" stroke-linecap="square" stroke-width="9" x1="2451.616442119705" x2="2451.616442119705" y1="6599.616543803569" y2="6362.816921950298" /><line stroke="rgb(0,0,0)" stroke-linecap="square" stroke-width="9" x1="2218.977182719273" x2="2218.977182719273" y1="6608.656116521406" y2="6198.851406597244" /><circle cx="2004.1324473795462" cy="6486.894164012391" fill="none" r="107.06115501648695" stroke="rgb(0,0,0)" stroke-width="9" /><circle cx="1526.9564058582348" cy="6599.0505650841815" fill="none" r="95.60434217631811" stroke="rgb(0,0,0)" stroke-width="9" /><line stroke="rgb(0,0,0)" stroke-linecap="square" stroke-width="9" x1="1526.9564058582348" x2="1526.9564058582348" y1="6503.446222907864" y2="6306.230790499644" /><circle cx="1561.8576271289426" cy="6126.362678835944" fill="none" r="76.02343881314795" stroke="rgb(0,0,0)" stroke-width="9" /><polygon fill="none" points="1709.4090761140537,6223.464896075537 1561.8576271289426,6244.5436745019815 1414.3061781438314,6223.464896075537 1561.8576271289426,6202.386117649092" stroke="rgb(0,0,0)" stroke-width="9" /><line stroke="rgb(0,0,0)" stroke-linecap="square" stroke-width="9" x1="1232.1707317389935" x2="1232.1707317389935" y1="6290.966765794936" y2="6693.746882562091" /><line stroke="rgb(0,0,0)" stroke-linecap="square" stroke-width="9" x1="1169.9916805867474" x2="1169.9916805867474" y1="6125.454325468139" y2="6448.0308061304795" /><line stroke="rgb(0,0,0)" stroke-linecap="square" stroke-width="9" x1="1169.9916805867474" x2="1169.9916805867474" y1="6448.0308061304795" y2="6795.1087635001895" /><line stroke="rgb(0,0,0)" stroke-linecap="square" stroke-width="9" x1="1232.1707317389935" x2="1107.8126294345016" y1="6125.454325468139" y2="6125.454325468139" /><circle cx="1053.4156715922522" cy="6125.454325468139" fill="none" r="54.39695784224936" stroke="rgb(0,0,0)" stroke-width="9" /><circle cx="1053.4156715922522" cy="6210.823683696168" fill="none" r="30.972400385778794" stroke="rgb(0,0,0)" stroke-width="9" /><line stroke="rgb(0,0,0)" stroke-linecap="square" stroke-width="9" x1="1053.4156715922522" x2="1053.4156715922522" y1="6241.796084081947" y2="6489.720049439907" /><line stroke="rgb(0,0,0)" stroke-linecap="square" stroke-width="9" x1="1053.4156715922522" x2="1053.4156715922522" y1="6489.720049439907" y2="6915.496963085764" /><line stroke="rgb(0,0,0)" stroke-linecap="square" stroke-width="9" x1="930.8033955081075" x2="930.8033955081075" y1="6357.376485473799" y2="6559.7617930166125" /><line stroke="rgb(0,0,0)" stroke-linecap="square" stroke-width="9" x1="545.473068387905" x2="545.473068387905" y1="6024.411792485045" y2="6432.229702331824" /><line stroke="rgb(0,0,0)" stroke-linecap="square" stroke-width="9" x1="545.473068387905" x2="545.473068387905" y1="6432.229702331824" y2="6914.31950131923" /><line stroke="rgb(0,0,0)" stroke-linecap="square" stroke-width="9" x1="4749.189438500642" x2="4749.189438500642" y1="6795.924193942328" y2="6355.6371485630325" /><line stroke="rgb(0,0,0)" stroke-linecap="square" stroke-width="9" x1="4982.416742921027" x2="4982.416742921027" y1="6908.313369524488" y2="6774.088254597306" /><line stroke="rgb(0,0,0)" stroke-linecap="square" stroke-width="9" x1="4982.416742921027" x2="4982.416742921027" y1="6774.088254597306" y2="6334.5075818672785" /><line stroke="rgb(0,0,0)" stroke-linecap="square" stroke-width="9" x1="5254.077345563479" x2="5254.077345563479" y1="6908.313369524488" y2="6449.360085512367" /><polygon fill="none" points="5254.077345563479,6678.836727518427 5229.846584234259,6848.4520568229655 5205.61582290504,6678.836727518427 5229.846584234259,6509.221398213889" stroke="rgb(0,0,0)" stroke-width="9" /><circle cx="5893.061764398705" cy="6812.376329435803" fill="none" r="95.93704008868482" stroke="rgb(0,0,0)" stroke-width="9" /><circle cx="5837.899689171433" cy="6600.819079982317" fill="none" r="55.162075227272226" stroke="rgb(0,0,0)" stroke-width="9" /><line stroke="rgb(0,0,0)" stroke-linecap="square" stroke-width="9" x1="5782.737613944161" x2="5533.500744050968" y1="6600.819079982317" y2="6600.819079982317" /><circle cx="5658.119178997565" cy="6659.883484370458" fill="none" r="59.06440438814081" stroke="rgb(0,0,0)" stroke-width="9" /><circle cx="5658.119178997565" cy="6749.157879630671" fill="none" r="30.209990872072243" stroke="rgb(0,0,0)" stroke-width="9" /><polygon fill="none" points="5533.500744050968,6600.819079982317 5507.699961959128,6781.424554625199 5481.899179867288,6600.819079982317 5507.699961959128,6420.213605339435" stroke="rgb(0,0,0)" stroke-width="9" /><line stroke="rgb(0,0,0)" stroke-linecap="square" stroke-width="9" x1="5837.899689171433" x2="5837.899689171433" y1="6545.657004755045" y2="6385.345875001709" /><line stroke="rgb(0,0,0)" stroke-linecap="square" stroke-width="9" x1="6149.323668176549" x2="6491.194469467116" y1="6908.313369524488" y2="6908.313369524488" /><circle cx="6528.756018243465" cy="6609.063130261677" fill="none" r="36.319397828361346" stroke="rgb(0,0,0)" stroke-width="9" /><circle cx="6528.756018243465" cy="6481.9874506528095" fill="none" r="90.75628178050536" stroke="rgb(0,0,0)" stroke-width="9" /><circle cx="6790.0117471584235" cy="6437.195876625592" fill="none" r="51.823802479892336" stroke="rgb(0,0,0)" stroke-width="9" /><line stroke="rgb(0,0,0)" stroke-linecap="square" stroke-width="9" x1="6790.0117471584235" x2="6790.0117471584235" y1="6489.019679105484" y2="6784.141199560403" /><line stroke="rgb(0,0,0)" stroke-linecap="square" stroke-width="9" x1="6654.9077266971235" x2="6654.9077266971235" y1="6004.33577556584" y2="6215.485908741527" /><polygon fill="none" points="6811.972145853589,6231.649283279547 6790.0117471584235,6385.3720741457 6768.051348463258,6231.649283279547 6790.0117471584235,6077.926492413393" stroke="rgb(0,0,0)" stroke-width="9" /><polygon fill="none" points="6768.051348463258,6231.649283279547 6654.9077266971235,6247.812657817566 6541.764104930989,6231.649283279547 6654.9077266971235,6215.485908741527" stroke="rgb(0,0,0)" stroke-width="9" /><line stroke="rgb(0,0,0)" stroke-linecap="square" stroke-width="9" x1="6541.764104930989" x2="6317.07491417979" y1="6231.649283279547" y2="6231.649283279547" /><circle cx="6429.41950955539" cy="6173.769649249821" fill="none" r="57.87963402972569" stroke="rgb(0,0,0)" stroke-width="9" /><polygon fill="none" points="6602.422651903048,6091.175280599001 6429.41950955539,6115.890015220095 6256.416367207731,6091.175280599001 6429.41950955539,6066.460545977907" stroke="rgb(0,0,0)" stroke-width="9" /><line stroke="rgb(0,0,0)" stroke-linecap="square" stroke-width="9" x1="7236.049811822937" x2="7236.049811822937" y1="6332.110491249187" y2="6705.375925743761" /><line stroke="rgb(0,0,0)" stroke-linecap="square" stroke-width="9" x1="7236.049811822937" x2="7144.807223760149" y1="6518.743208496475" y2="6518.743208496475" /><polygon fill="none" points="7144.807223760149,6518.743208496475 7127.388123691752,6640.6769089752515 7109.9690236233555,6518.743208496475 7127.388123691752,6396.809508017698" stroke="rgb(0,0,0)" stroke-width="9" /><line stroke="rgb(0,0,0)" stroke-linecap="square" stroke-width="9" x1="7027.69751680575" x2="7027.69751680575" y1="6160.9105520044095" y2="6659.789052064242" /><line stroke="rgb(0,0,0)" stroke-linecap="square" stroke-width="9" x1="5893.061764398705" x2="5893.061764398705" y1="6716.439289347119" y2="6485.198870617514" /><line stroke="rgb(0,0,0)" stroke-linecap="square" stroke-width="9" x1="5893.061764398705" x2="5893.061764398705" y1="6485.198870617514" y2="6192.682322197174" /><line stroke="rgb(0,0,0)" stroke-linecap="square" stroke-width="9" x1="6115.387534114965" x2="6115.387534114965" y1="6670.760431093396" y2="6319.333355989172" /><circle cx="4749.189438500642" cy="6908.313369524488" fill="none" r="112.38917558215924" stroke="rgb(0,0,0)" stroke-width="9" /><line stroke="rgb(0,0,0)" stroke-linecap="square" stroke-width="9" x1="4749.189438500642" x2="4749.189438500642" y1="7020.702545106647" y2="7500.717895177661" /><line stroke="rgb(0,0,0)" stroke-linecap="square" stroke-width="9" x1="4749.189438500642" x2="4749.189438500642" y1="7500.717895177661" y2="7894.41228346561" /><line stroke="rgb(0,0,0)" stroke-linecap="square" stroke-width="9" x1="6918.552908218592" x2="6918.552908218592" y1="2674.198404961425" y2="2392.469468622949" /><line stroke="rgb(0,0,0)" stroke-linecap="square" stroke-width="9" x1="6919.491746821118" x2="6919.491746821118" y1="2846.1538688115807" y2="2758.2016439892423" /><line stroke="rgb(0,0,0)" stroke-linecap="square" stroke-width="9" x1="6918.552908218592" x2="6918.552908218592" y1="2231.210009190167" y2="1843.6797209241995" /><line stroke="rgb(0,0,0)" stroke-linecap="square" stroke-width="9" x1="6918.552908218592" x2="6918.552908218592" y1="1843.6797209241995" y2="1631.9284608667253" /><line stroke="rgb(0,0,0)" stroke-linecap="square" stroke-width="9" x1="6918.552908218592" x2="6918.552908218592" y1="1631.9284608667253" y2="1343.2869264962756" /><circle cx="6918.552908218592" cy="2311.839738906558" fill="none" r="80.62972971639118" stroke="rgb(0,0,0)" stroke-width="9" /><polygon fill="none" points="6837.923178502201,2311.839738906558 6821.356940861451,2427.803402391805 6804.790703220701,2311.839738906558 6821.356940861451,2195.8760754213113" stroke="rgb(0,0,0)" stroke-width="9" /><circle cx="6862.7943315475595" cy="2037.4448650571833" fill="none" r="55.75857667103239" stroke="rgb(0,0,0)" stroke-width="9" /><line stroke="rgb(0,0,0)" stroke-linecap="square" stroke-width="9" x1="6968.66560013431" x2="6968.66560013431" y1="1932.25763395631" y2="2127.0548382799197" /><line stroke="rgb(0,0,0)" stroke-linecap="square" stroke-width="9" x1="6862.7943315475595" x2="6862.7943315475595" y1="1981.6862883861509" y2="1815.8415839533468" /><line stroke="rgb(0,0,0)" stroke-linecap="square" stroke-width="9" x1="6862.7943315475595" x2="6862.7943315475595" y1="1815.8415839533468" y2="1708.5374237912743" /><line stroke="rgb(0,0,0)" stroke-linecap="square" stroke-width="9" x1="6862.7943315475595" x2="6862.7943315475595" y1="1708.5374237912743" y2="1442.9705065101246" /><line stroke="rgb(0,0,0)" stroke-linecap="square" stroke-width="9" x1="6758.409652459197" x2="6758.409652459197" y1="1898.7639361697488" y2="1558.224606065603" /><circle cx="6968.66560013431" cy="1737.8040908954624" fill="none" r="50.112691915718116" stroke="rgb(0,0,0)" stroke-width="9" /><line stroke="rgb(0,0,0)" stroke-linecap="square" stroke-width="9" x1="6968.66560013431" x2="6968.66560013431" y1="1687.6913989797442" y2="1449.9241413341213" /><line stroke="rgb(0,0,0)" stroke-linecap="square" stroke-width="9" x1="6968.66560013431" x2="6968.66560013431" y1="1787.9167828111806" y2="1932.25763395631" /><line stroke="rgb(0,0,0)" stroke-linecap="square" stroke-width="9" x1="7018.778292050028" x2="7453.321331595847" y1="1737.8040908954624" y2="1737.8040908954624" /><line stroke="rgb(0,0,0)" stroke-linecap="square" stroke-width="9" x1="6968.66560013431" x2="7310.275180510759" y1="1568.8077701569327" y2="1568.8077701569327" /><line stroke="rgb(0,0,0)" stroke-linecap="square" stroke-width="9" x1="7139.4703903225345" x2="7139.4703903225345" y1="1568.8077701569327" y2="1457.5376071827527" /><line stroke="rgb(0,0,0)" stroke-linecap="square" stroke-width="9" x1="6968.66560013431" x2="7119.965896021563" y1="1860.0872083837453" y2="1860.0872083837453" /><line stroke="rgb(0,0,0)" stroke-linecap="square" stroke-width="9" x1="7044.315748077936" x2="7044.315748077936" y1="1860.0872083837453" y2="2018.948415127887" /><line stroke="rgb(0,0,0)" stroke-linecap="square" stroke-width="9" x1="7044.315748077936" x2="7044.315748077936" y1="2018.948415127887" y2="2130.084908458899" /><circle cx="7504.060107800907" cy="1737.8040908954624" fill="none" r="50.738776205059516" stroke="rgb(0,0,0)" stroke-width="9" /><polygon fill="none" points="7676.066629988801,1662.4929543778467 7504.060107800907,1687.0653146904028 7332.053585613013,1662.4929543778467 7504.060107800907,1637.9205940652905" stroke="rgb(0,0,0)" stroke-width="9" /><line stroke="rgb(0,0,0)" stroke-linecap="square" stroke-width="9" x1="7310.275180510759" x2="7507.314474379831" y1="1568.8077701569327" y2="1568.8077701569327" /><line stroke="rgb(0,0,0)" stroke-linecap="square" stroke-width="9" x1="7507.314474379831" x2="7960.758237256382" y1="1568.8077701569327" y2="1568.8077701569327" /><circle cx="7504.060107800907" cy="1883.7138668525618" fill="none" r="95.17099975203968" stroke="rgb(0,0,0)" stroke-width="9" /><polygon fill="none" points="7651.827070137834,1999.9944326527338 7504.060107800907,2021.1039987008662 7356.293145463979,1999.9944326527338 7504.060107800907,1978.8848666046015" stroke="rgb(0,0,0)" stroke-width="9" /><line stroke="rgb(0,0,0)" stroke-linecap="square" stroke-width="9" x1="7236.049811822937" x2="7236.049811822937" y1="1737.8040908954624" y2="1838.4638261003072" /><line stroke="rgb(0,0,0)" stroke-linecap="square" stroke-width="9" x1="7236.049811822937" x2="7236.049811822937" y1="1838.4638261003072" y2="2091.9517362635906" /><line stroke="rgb(0,0,0)" stroke-linecap="square" stroke-width="9" x1="7236.049811822937" x2="7236.049811822937" y1="2091.9517362635906" y2="2541.228422710722" /><circle cx="7236.049811822937" cy="2590.0129033172884" fill="none" r="48.78448060656641" stroke="rgb(0,0,0)" stroke-width="9" /><line stroke="rgb(0,0,0)" stroke-linecap="square" stroke-width="9" x1="7499.476351389414" x2="7499.476351389414" y1="2772.732868756833" y2="2562.8076867762497" /><line stroke="rgb(0,0,0)" stroke-linecap="square" stroke-width="9" x1="7499.476351389414" x2="7413.8104228935645" y1="2667.7702777665413" y2="2667.7702777665413" /><line stroke="rgb(0,0,0)" stroke-linecap="square" stroke-width="9" x1="7499.476351389414" x2="7499.476351389414" y1="2562.8076867762497" y2="2364.656978259714" /><circle cx="7499.476351389414" cy="2292.322624490405" fill="none" r="72.33435376930919" stroke="rgb(0,0,0)" stroke-width="9" /><polygon fill="none" points="7621.651565775407,2202.534668665954 7499.476351389414,2219.988270721096 7377.301137003421,2202.534668665954 7499.476351389414,2185.0810666108123" stroke="rgb(0,0,0)" stroke-width="9" /><line stroke="rgb(0,0,0)" stroke-linecap="square" stroke-width="9" x1="6807.035754876527" x2="6502.779698517721" y1="2037.4448650571833" y2="2037.4448650571833" /><line stroke="rgb(0,0,0)" stroke-linecap="square" stroke-width="9" x1="6502.779698517721" x2="6185.954172428452" y1="2037.4448650571833" y2="2037.4448650571833" /><line stroke="rgb(0,0,0)" stroke-linecap="square" stroke-width="9" x1="6862.7943315475595" x2="6654.024973370833" y1="1898.7639361697488" y2="1898.7639361697488" /><line stroke="rgb(0,0,0)" stroke-linecap="square" stroke-width="9" x1="6654.024973370833" x2="6266.634697615357" y1="1898.7639361697488" y2="1898.7639361697488" /><circle cx="6460.329835493096" cy="1782.947809752628" fill="none" r="115.81612641712081" stroke="rgb(0,0,0)" stroke-width="9" /><circle cx="6460.329835493096" cy="1558.2790578074332" fill="none" r="108.85262552807403" stroke="rgb(0,0,0)" stroke-width="9" /><line stroke="rgb(0,0,0)" stroke-linecap="square" stroke-width="9" x1="6379.17125231367" x2="6379.17125231367" y1="1299.414848988366" y2="1377.636060430952" /><circle cx="6654.9077266971235" cy="2131.720326790072" fill="none" r="94.27546173288836" stroke="rgb(0,0,0)" stroke-width="9" /><line stroke="rgb(0,0,0)" stroke-linecap="square" stroke-width="9" x1="6654.9077266971235" x2="6654.9077266971235" y1="2225.99578852296" y2="2487.5385451494844" /><line stroke="rgb(0,0,0)" stroke-linecap="square" stroke-width="9" x1="6797.301159527291" x2="6797.301159527291" y1="2765.0602398235296" y2="2648.0266693977815" /><line stroke="rgb(0,0,0)" stroke-linecap="square" stroke-width="9" x1="6797.301159527291" x2="6797.301159527291" y1="2648.0266693977815" y2="2500.691760889746" /><line stroke="rgb(0,0,0)" stroke-linecap="square" stroke-width="9" x1="6519.851922773116" x2="6519.851922773116" y1="2684.5957811016765" y2="2454.418364922924" /><circle cx="6623.292362878705" cy="2646.6555547118205" fill="none" r="31.61536381841896" stroke="rgb(0,0,0)" stroke-width="9" /><line stroke="rgb(0,0,0)" stroke-linecap="square" stroke-width="9" x1="6519.851922773116" x2="6277.169497088553" y1="2569.5070730123" y2="2569.5070730123" /><circle cx="6519.851922773116" cy="2395.0569441934604" fill="none" r="59.36142072946361" stroke="rgb(0,0,0)" stroke-width="9" /><line stroke="rgb(0,0,0)" stroke-linecap="square" stroke-width="9" x1="992.0584751429168" x2="992.0584751429168" y1="2378.330042067933" y2="2207.889108651036" /><line stroke="rgb(0,0,0)" stroke-linecap="square" stroke-width="9" x1="992.0584751429168" x2="992.0584751429168" y1="2207.889108651036" y2="1907.1979642649108" /><line stroke="rgb(0,0,0)" stroke-linecap="square" stroke-width="9" x1="992.0584751429168" x2="992.0584751429168" y1="1907.1979642649108" y2="1477.2279784437399" /><line stroke="rgb(0,0,0)" stroke-linecap="square" stroke-width="9" x1="992.0584751429168" x2="992.0584751429168" y1="1477.2279784437399" y2="1290.2074019086135" /><line stroke="rgb(0,0,0)" stroke-linecap="square" stroke-width="9" x1="992.0584751429168" x2="761.5408582902503" y1="2057.5435364579735" y2="2057.5435364579735" /><line stroke="rgb(0,0,0)" stroke-linecap="square" stroke-width="9" x1="761.5408582902503" x2="329.4052784855595" y1="2057.5435364579735" y2="2057.5435364579735" /><line stroke="rgb(0,0,0)" stroke-linecap="square" stroke-width="9" x1="876.7996667165835" x2="876.7996667165835" y1="2057.5435364579735" y2="2195.8211853637204" /><line stroke="rgb(0,0,0)" stroke-linecap="square" stroke-width="9" x1="876.7996667165835" x2="876.7996667165835" y1="2195.8211853637204" y2="2473.9438070675888" /><line stroke="rgb(0,0,0)" stroke-linecap="square" stroke-width="9" x1="876.7996667165835" x2="876.7996667165835" y1="2473.9438070675888" y2="2578.7610472724355" /><line stroke="rgb(0,0,0)" stroke-linecap="square" stroke-width="9" x1="1050.5753875191779" x2="1050.5753875191779" y1="2742.5483664275557" y2="2502.877926957199" /><line stroke="rgb(0,0,0)" stroke-linecap="square" stroke-width="9" x1="1050.5753875191779" x2="1050.5753875191779" y1="2502.877926957199" y2="2022.737067556778" /><line stroke="rgb(0,0,0)" stroke-linecap="square" stroke-width="9" x1="1050.5753875191779" x2="1050.5753875191779" y1="2022.737067556778" y2="1778.6533312226084" /><line stroke="rgb(0,0,0)" stroke-linecap="square" stroke-width="9" x1="1198.6871376562347" x2="1198.6871376562347" y1="2439.9525668870087" y2="1940.5333240429034" /><line stroke="rgb(0,0,0)" stroke-linecap="square" stroke-width="9" x1="1198.6871376562347" x2="1198.6871376562347" y1="1940.5333240429034" y2="1821.335800148391" /><circle cx="1198.6871376562347" cy="1790.4658857012873" fill="none" r="30.869914447103586" stroke="rgb(0,0,0)" stroke-width="9" /><circle cx="1401.561052163726" cy="2726.541010494262" fill="none" r="80.77969045750379" stroke="rgb(0,0,0)" stroke-width="9" /><line stroke="rgb(0,0,0)" stroke-linecap="square" stroke-width="9" x1="1401.561052163726" x2="1401.561052163726" y1="2645.761320036758" y2="2421.295738499088" /><line stroke="rgb(0,0,0)" stroke-linecap="square" stroke-width="9" x1="1339.2966746162404" x2="1339.2966746162404" y1="2434.815705805184" y2="2582.1149822256302" /><line stroke="rgb(0,0,0)" stroke-linecap="square" stroke-width="9" x1="1479.7598213321087" x2="1479.7598213321087" y1="2533.528529267923" y2="2291.250937158312" /><line stroke="rgb(0,0,0)" stroke-linecap="square" stroke-width="9" x1="1479.7598213321087" x2="1479.7598213321087" y1="2291.250937158312" y2="2176.8939908018656" /><line stroke="rgb(0,0,0)" stroke-linecap="square" stroke-width="9" x1="1401.561052163726" x2="1557.9585905004915" y1="2533.528529267923" y2="2533.528529267923" /><line stroke="rgb(0,0,0)" stroke-linecap="square" stroke-width="9" x1="1401.561052163726" x2="1401.561052163726" y1="2421.295738499088" y2="2234.2766595036996" /><line stroke="rgb(0,0,0)" stroke-linecap="square" stroke-width="9" x1="1401.561052163726" x2="1401.561052163726" y1="2234.2766595036996" y2="2121.0186383911705" /><line stroke="rgb(0,0,0)" stroke-linecap="square" stroke-width="9" x1="1339.2966746162404" x2="1339.2966746162404" y1="2177.6476489474353" y2="2327.6145673142023" /><line stroke="rgb(0,0,0)" stroke-linecap="square" stroke-width="9" x1="1339.2966746162404" x2="1339.2966746162404" y1="2327.6145673142023" y2="2434.815705805184" /><circle cx="1401.561052163726" cy="2050.0732963259343" fill="none" r="70.94534206523625" stroke="rgb(0,0,0)" stroke-width="9" /><line stroke="rgb(0,0,0)" stroke-linecap="square" stroke-width="9" x1="1401.561052163726" x2="1277.0322970687548" y1="2177.6476489474353" y2="2177.6476489474353" /><circle cx="1401.561052163726" cy="1863.6762442029926" fill="none" r="115.45171005770555" stroke="rgb(0,0,0)" stroke-width="9" /><line stroke="rgb(0,0,0)" stroke-linecap="square" stroke-width="9" x1="545.473068387905" x2="545.473068387905" y1="2057.5435364579735" y2="2540.29314195331" /><line stroke="rgb(0,0,0)" stroke-linecap="square" stroke-width="9" x1="545.473068387905" x2="545.473068387905" y1="2540.29314195331" y2="2887.840396102166" /><circle cx="429.8253572735747" cy="2714.066769027738" fill="none" r="115.64771111433028" stroke="rgb(0,0,0)" stroke-width="9" /><circle cx="429.8253572735747" cy="2540.5953903235004" fill="none" r="57.82366758990692" stroke="rgb(0,0,0)" stroke-width="9" /><circle cx="429.8253572735747" cy="2430.1685446351635" fill="none" r="52.60317809843" stroke="rgb(0,0,0)" stroke-width="9" /><circle cx="429.8253572735747" cy="2327.1967900978343" fill="none" r="50.36857643889934" stroke="rgb(0,0,0)" stroke-width="9" /><circle cx="429.8253572735747" cy="2223.4046036451996" fill="none" r="53.42361001373527" stroke="rgb(0,0,0)" stroke-width="9" /><line stroke="rgb(0,0,0)" stroke-linecap="square" stroke-width="9" x1="992.0584751429168" x2="1326.4305042252115" y1="1692.2129713543254" y2="1692.2129713543254" /><line stroke="rgb(0,0,0)" stroke-linecap="square" stroke-width="9" x1="1326.4305042252115" x2="1679.3138609338719" y1="1692.2129713543254" y2="1692.2129713543254" /><line stroke="rgb(0,0,0)" stroke-linecap="square" stroke-width="9" x1="1159.244489684064" x2="1159.244489684064" y1="1692.2129713543254" y2="1419.8269192235675" /><line stroke="rgb(0,0,0)" stroke-linecap="square" stroke-width="9" x1="1502.8721825795417" x2="1502.8721825795417" y1="1692.2129713543254" y2="1392.3472436521647" /><line stroke="rgb(0,0,0)" stroke-linecap="square" stroke-width="9" x1="1720.7115838990892" x2="1573.9884100680133" y1="1404.4002642344817" y2="1404.4002642344817" /><line stroke="rgb(0,0,0)" stroke-linecap="square" stroke-width="9" x1="1647.3499969835511" x2="1647.3499969835511" y1="1404.4002642344817" y2="1305.108621346014" /><line stroke="rgb(0,0,0)" stroke-linecap="square" stroke-width="9" x1="1502.8721825795417" x2="1348.8389888032814" y1="1542.280107503245" y2="1542.280107503245" /><line stroke="rgb(0,0,0)" stroke-linecap="square" stroke-width="9" x1="1348.8389888032814" x2="1253.0317576497378" y1="1542.280107503245" y2="1542.280107503245" /><line stroke="rgb(0,0,0)" stroke-linecap="square" stroke-width="9" x1="3067.8658565243245" x2="3067.8658565243245" y1="1296.609194972678" y2="1794.5414124083893" /><line stroke="rgb(0,0,0)" stroke-linecap="square" stroke-width="9" x1="3439.2067284971854" x2="3439.2067284971854" y1="1511.8649972147205" y2="1791.7714992670662" /><line stroke="rgb(0,0,0)" stroke-linecap="square" stroke-width="9" x1="3595.669050145158" x2="3595.669050145158" y1="1328.5584342796114" y2="1666.892121193577" /><circle cx="4191.587608933916" cy="1529.7258919962933" fill="none" r="35.711037351240044" stroke="rgb(0,0,0)" stroke-width="9" /><line stroke="rgb(0,0,0)" stroke-linecap="square" stroke-width="9" x1="4447.611149964399" x2="4447.611149964399" y1="1346.4938235907757" y2="1786.3608404506035" /><line stroke="rgb(0,0,0)" stroke-linecap="square" stroke-width="9" x1="2713.8721898830127" x2="2936.6432072916377" y1="1363.8097435978186" y2="1363.8097435978186" /><line stroke="rgb(0,0,0)" stroke-linecap="square" stroke-width="9" x1="2936.6432072916377" x2="3014.6917468568136" y1="1363.8097435978186" y2="1363.8097435978186" /><line stroke="rgb(0,0,0)" stroke-linecap="square" stroke-width="9" x1="2825.257698587325" x2="2825.257698587325" y1="1363.8097435978186" y2="1682.4005498969034" /><line stroke="rgb(0,0,0)" stroke-linecap="square" stroke-width="9" x1="1989.97370008064" x2="1989.97370008064" y1="1333.6692304526064" y2="1494.1417912331447" /><line stroke="rgb(0,0,0)" stroke-linecap="square" stroke-width="9" x1="1989.97370008064" x2="1989.97370008064" y1="1494.1417912331447" y2="1982.6427663251932" /><line stroke="rgb(0,0,0)" stroke-linecap="square" stroke-width="9" x1="2095.0688174814477" x2="2095.0688174814477" y1="1401.7368054599963" y2="1738.316047345313" /><line stroke="rgb(0,0,0)" stroke-linecap="square" stroke-width="9" x1="2291.4544225389086" x2="2291.4544225389086" y1="1392.9457534961607" y2="1665.254222555454" /><line stroke="rgb(0,0,0)" stroke-linecap="square" stroke-width="9" x1="2453.576789271071" x2="2453.576789271071" y1="1291.3725432354152" y2="1405.269450176362" /><line stroke="rgb(0,0,0)" stroke-linecap="square" stroke-width="9" x1="2453.576789271071" x2="2453.576789271071" y1="1405.269450176362" y2="1671.0013978789289" /></svg>