<?xml version="1.0" encoding="utf-8" ?>
<svg baseProfile="full" height="20cm" version="1.1" viewBox="0,0,8000,8000" width="20cm" xmlns="http://www.w3.org/2000/svg" xmlns:ev="http://www.w3.org/2001/xml-events" xmlns:xlink="http://www.w3.org/1999/xlink"><defs /><line stroke="rgb(0,0,0)" stroke-linecap="square" stroke-width="9" x1="1102.322010930778" x2="647.4814170098703" y1="2758.7592641330675" y2="2758.7592641330675" /><line stroke="rgb(0,0,0)" stroke-linecap="square" stroke-width="9" x1="874.9017139703242" x2="646.6863744089243" y1="2825.538793637164" y2="2825.538793637164" /><line stroke="rgb(0,0,0)" stroke-linecap="square" stroke-width="9" x1="646.6863744089243" x2="478.82164516175374" y1="2825.538793637164" y2="2825.538793637164" /><line stroke="rgb(0,0,0)" stroke-linecap="square" stroke-width="9" x1="478.82164516175374" x2="170.1006109301639" y1="2825.538793637164" y2="2825.538793637164" /><line stroke="rgb(0,0,0)" stroke-linecap="square" stroke-width="9" x1="647.4814170098703" x2="248.95620529494914" y1="2758.7592641330675" y2="2758.7592641330675" /><line stroke="rgb(0,0,0)" stroke-linecap="square" stroke-width="9" x1="562.754009785339" x2="562.754009785339" y1="2825.538793637164" y2="3048.622733835743" /><line stroke="rgb(0,0,0)" stroke-linecap="square" stroke-width="9" x1="562.754009785339" x2="562.754009785339" y1="3181.278645922158" y2="3542.039485450496" /><line stroke="rgb(0,0,0)" stroke-linecap="square" stroke-width="9" x1="562.754009785339" x2="562.754009785339" y1="3542.039485450496" y2="3912.4390338714597" /><line stroke="rgb(0,0,0)" stroke-linecap="square" stroke-width="9" x1="562.754009785339" x2="562.754009785339" y1="3912.4390338714597" y2="4182.922890732896" /><line stroke="rgb(0,0,0)" stroke-linecap="square" stroke-width="9" x1="562.754009785339" x2="562.754009785339" y1="4182.922890732896" y2="4614.567983035497" /><line stroke="rgb(0,0,0)" stroke-linecap="square" stroke-width="9" x1="562.754009785339" x2="562.754009785339" y1="4733.693894247541" y2="5189.613601245921" /><line stroke="rgb(0,0,0)" stroke-linecap="square" stroke-width="9" x1="562.754009785339" x2="562.754009785339" y1="5262.898863896064" y2="5401.481179682565" /><line stroke="rgb(0,0,0)" stroke-linecap="square" stroke-width="9" x1="562.754009785339" x2="562.754009785339" y1="5401.481179682565" y2="5832.146617983626" /><line stroke="rgb(0,0,0)" stroke-linecap="square" stroke-width="9" x1="562.754009785339" x2="562.754009785339" y1="5832.146617983626" y2="6245.97148293398" /><line stroke="rgb(0,0,0)" stroke-linecap="square" stroke-width="9" x1="562.754009785339" x2="562.754009785339" y1="6305.958628015595" y2="6384.153374103164" /><line stroke="rgb(0,0,0)" stroke-linecap="square" stroke-width="9" x1="562.754009785339" x2="562.754009785339" y1="6384.153374103164" y2="6733.85419017538" /><circle cx="616.7950717380663" cy="6559.0037821392725" fill="none" r="54.041061952727304" stroke="rgb(0,0,0)" stroke-width="9" /><circle cx="562.754009785339" cy="3114.9506898789505" fill="none" r="66.32795604320756" stroke="rgb(0,0,0)" stroke-width="9" /><line stroke="rgb(0,0,0)" stroke-linecap="square" stroke-width="9" x1="478.83788862624544" x2="478.83788862624544" y1="4398.745436884196" y2="3916.2588726330073" /><line stroke="rgb(0,0,0)" stroke-linecap="square" stroke-width="9" x1="478.83788862624544" x2="478.83788862624544" y1="3916.2588726330073" y2="3731.737501782795" /><line stroke="rgb(0,0,0)" stroke-linecap="square" stroke-width="9" x1="478.83788862624544" x2="478.83788862624544" y1="3731.737501782795" y2="3321.3494324212143" /><line stroke="rgb(0,0,0)" stroke-linecap="square" stroke-width="9" x1="478.83788862624544" x2="478.83788862624544" y1="3321.3494324212143" y2="3233.4067646499016" /><polygon fill="none" points="738.8565296348893,4639.725485871147 562.754009785339,4664.882988706797 386.6514899357888,4639.725485871147 562.754009785339,4614.567983035497" stroke="rgb(0,0,0)" stroke-width="9" /><polygon fill="none" points="803.5921791779421,4699.288441477169 562.754009785339,4733.693894247541 321.91584039273596,4699.288441477169 562.754009785339,4664.882988706797" stroke="rgb(0,0,0)" stroke-width="9" /><line stroke="rgb(0,0,0)" stroke-linecap="square" stroke-width="9" x1="777.8366480558934" x2="671.8103957489176" y1="4836.216711000212" y2="4836.216711000212" /><line stroke="rgb(0,0,0)" stroke-linecap="square" stroke-width="9" x1="724.8235219024054" x2="628.5640240011983" y1="4915.254345468398" y2="4915.254345468398" /><line stroke="rgb(0,0,0)" stroke-linecap="square" stroke-width="9" x1="724.8235219024054" x2="724.8235219024054" y1="4836.216711000212" y2="4994.291979936585" /><line stroke="rgb(0,0,0)" stroke-linecap="square" stroke-width="9" x1="724.8235219024054" x2="724.8235219024054" y1="4994.291979936585" y2="5139.4144320440055" /><line stroke="rgb(0,0,0)" stroke-linecap="square" stroke-width="9" x1="562.754009785339" x2="128.67274111570498" y1="4961.653747746731" y2="4961.653747746731" /><polygon fill="none" points="495.3629572175802,4983.0322594277395 345.713375450522,5004.410771108748 196.0637936834638,4983.0322594277395 345.713375450522,4961.653747746731" stroke="rgb(0,0,0)" stroke-width="9" /><line stroke="rgb(0,0,0)" stroke-linecap="square" stroke-width="9" x1="562.754009785339" x2="394.9217674671519" y1="4398.745436884196" y2="4398.745436884196" /><line stroke="rgb(0,0,0)" stroke-linecap="square" stroke-width="9" x1="813.045670564581" x2="691.8374669404944" y1="4433.2509749342935" y2="4433.2509749342935" /><line stroke="rgb(0,0,0)" stroke-linecap="square" stroke-width="9" x1="629.9355833784972" x2="629.9355833784972" y1="4348.693043782749" y2="4522.59172414717" /><line stroke="rgb(0,0,0)" stroke-linecap="square" stroke-width="9" x1="478.83788862624544" x2="176.6978434450524" y1="3823.998187207901" y2="3823.998187207901" /><line stroke="rgb(0,0,0)" stroke-linecap="square" stroke-width="9" x1="912.6243389213112" x2="713.4670022078508" y1="3794.270584214739" y2="3794.270584214739" /><circle cx="679.3326066476319" cy="3794.270584214739" fill="none" r="34.13439556021889" stroke="rgb(0,0,0)" stroke-width="9" /><polygon fill="none" points="645.198211087413,3794.270584214739 629.9355833784972,3901.1089781771498 614.6729556695814,3794.270584214739 629.9355833784972,3687.432190252328" stroke="rgb(0,0,0)" stroke-width="9" /><line stroke="rgb(0,0,0)" stroke-linecap="square" stroke-width="9" x1="629.9355833784972" x2="629.9355833784972" y1="3687.432190252328" y2="3607.8255779062147" /><line stroke="rgb(0,0,0)" stroke-linecap="square" stroke-width="9" x1="478.83788862624544" x2="91.5035509355186" y1="3526.543467102005" y2="3526.543467102005" /><line stroke="rgb(0,0,0)" stroke-linecap="square" stroke-width="9" x1="629.9355833784972" x2="629.9355833784972" y1="3607.8255779062147" y2="3286.5418927517403" /><line stroke="rgb(0,0,0)" stroke-linecap="square" stroke-width="9" x1="478.83788862624544" x2="398.7642010437327" y1="4157.502154758602" y2="4157.502154758602" /><line stroke="rgb(0,0,0)" stroke-linecap="square" stroke-width="9" x1="629.9355833784972" x2="629.9355833784972" y1="3901.1089781771498" y2="4348.693043782749" /><polygon fill="none" points="819.2524290608391,5226.256232570992 562.754009785339,5262.898863896064 306.25559050983895,5226.256232570992 562.754009785339,5189.613601245921" stroke="rgb(0,0,0)" stroke-width="9" /><line stroke="rgb(0,0,0)" stroke-linecap="square" stroke-width="9" x1="562.754009785339" x2="277.397440732663" y1="5332.190021789314" y2="5332.190021789314" /><circle cx="420.075725259001" cy="5418.424357438699" fill="none" r="86.2343356493851" stroke="rgb(0,0,0)" stroke-width="9" /><line stroke="rgb(0,0,0)" stroke-linecap="square" stroke-width="9" x1="1096.8139704835548" x2="728.0171318646082" y1="3142.0978826323335" y2="3142.0978826323335" /><line stroke="rgb(0,0,0)" stroke-linecap="square" stroke-width="9" x1="496.42605374213144" x2="330.05571823490754" y1="3114.9506898789505" y2="3114.9506898789505" /><line stroke="rgb(0,0,0)" stroke-linecap="square" stroke-width="9" x1="562.754009785339" x2="155.87213197922205" y1="2937.0807637364533" y2="2937.0807637364533" /><polygon fill="none" points="488.24243608219734,2955.4992444792983 359.3130708822805,2973.9177252221434 230.38370568236365,2955.4992444792983 359.3130708822805,2937.0807637364533" stroke="rgb(0,0,0)" stroke-width="9" /><polygon fill="none" points="772.709017570995,6275.965055474788 562.754009785339,6305.958628015595 352.79900199968296,6275.965055474788 562.754009785339,6245.97148293398" stroke="rgb(0,0,0)" stroke-width="9" /><circle cx="718.3307638524786" cy="6559.0037821392725" fill="none" r="47.49463016168498" stroke="rgb(0,0,0)" stroke-width="9" /><line stroke="rgb(0,0,0)" stroke-linecap="square" stroke-width="9" x1="616.7950717380663" x2="616.7950717380663" y1="6504.962720186545" y2="6368.260433532907" /><line stroke="rgb(0,0,0)" stroke-linecap="square" stroke-width="9" x1="1096.8139704835548" x2="728.4347073590676" y1="5740.001731000881" y2="5740.001731000881" /><line stroke="rgb(0,0,0)" stroke-linecap="square" stroke-width="9" x1="728.4347073590676" x2="643.7738256299018" y1="5740.001731000881" y2="5740.001731000881" /><line stroke="rgb(0,0,0)" stroke-linecap="square" stroke-width="9" x1="912.6243389213112" x2="689.0328056092039" y1="5656.897161297558" y2="5656.897161297558" /><circle cx="655.9516370456382" cy="5656.897161297558" fill="none" r="33.08116856356568" stroke="rgb(0,0,0)" stroke-width="9" /><line stroke="rgb(0,0,0)" stroke-linecap="square" stroke-width="9" x1="775.5123434838214" x2="648.6635271309856" y1="6140.094730016907" y2="6140.094730016907" /><line stroke="rgb(0,0,0)" stroke-linecap="square" stroke-width="9" x1="712.0879353074035" x2="712.0879353074035" y1="6140.094730016907" y2="5795.125241204288" /><circle cx="420.075725259001" cy="5571.706460391886" fill="none" r="67.04776730380217" stroke="rgb(0,0,0)" stroke-width="9" /><circle cx="420.075725259001" cy="5706.297448801465" fill="none" r="67.54322110577678" stroke="rgb(0,0,0)" stroke-width="9" /><circle cx="420.075725259001" cy="5855.301133238461" fill="none" r="81.4604633312191" stroke="rgb(0,0,0)" stroke-width="9" /><circle cx="420.075725259001" cy="6002.596138622298" fill="none" r="65.83454205261725" stroke="rgb(0,0,0)" stroke-width="9" /><circle cx="420.075725259001" cy="6123.90065402513" fill="none" r="55.469973350215135" stroke="rgb(0,0,0)" stroke-width="9" /><circle cx="448.21881115240967" cy="2649.5842511801466" fill="none" r="109.17501295292104" stroke="rgb(0,0,0)" stroke-width="9" /><circle cx="753.3207483287869" cy="2529.3798548595096" fill="none" r="37.766999266945156" stroke="rgb(0,0,0)" stroke-width="9" /><polygon fill="none" points="715.5537490618417,2529.3798548595096 698.0032359677822,2652.2334465179256 680.4527228737227,2529.3798548595096 698.0032359677822,2406.5262632010936" stroke="rgb(0,0,0)" stroke-width="9" /><circle cx="448.21881115240967" cy="2438.3515305805927" fill="none" r="102.05770764663279" stroke="rgb(0,0,0)" stroke-width="9" /><line stroke="rgb(0,0,0)" stroke-linecap="square" stroke-width="9" x1="698.0032359677822" x2="698.0032359677822" y1="2406.5262632010936" y2="2285.9671945850355" /><circle cx="448.21881115240967" cy="2278.926090372217" fill="none" r="57.367732561742656" stroke="rgb(0,0,0)" stroke-width="9" /><polygon fill="none" points="556.6252476420636,2206.071724026238 448.21881115240967,2221.5583578104743 339.81237466275576,2206.071724026238 448.21881115240967,2190.5850902420016" stroke="rgb(0,0,0)" stroke-width="9" /><line stroke="rgb(0,0,0)" stroke-linecap="square" stroke-width="9" x1="556.6252476420636" x2="1025.5502475494004" y1="2206.071724026238" y2="2206.071724026238" /><polygon fill="none" points="886.3116613134973,1644.8501357636344 767.558431107913,1661.8148829358609 648.8052009023286,1644.8501357636344 767.558431107913,1627.885388591408" stroke="rgb(0,0,0)" stroke-width="9" /><line stroke="rgb(0,0,0)" stroke-linecap="square" stroke-width="9" x1="732.856654880027" x2="553.5405087676784" y1="1503.474229545414" y2="1503.474229545414" /><line stroke="rgb(0,0,0)" stroke-linecap="square" stroke-width="9" x1="643.1985818238527" x2="643.1985818238527" y1="1503.474229545414" y2="1147.4687158371707" /><line stroke="rgb(0,0,0)" stroke-linecap="square" stroke-width="9" x1="741.7459761340236" x2="477.0046387042229" y1="1842.502067753086" y2="1842.502067753086" /><line stroke="rgb(0,0,0)" stroke-linecap="square" stroke-width="9" x1="609.3753074191233" x2="609.3753074191233" y1="1842.502067753086" y2="2109.879231898776" /><polygon fill="none" points="716.7324933897353,2125.215972751721 609.3753074191233,2140.5527136046658 502.01812144851124,2125.215972751721 609.3753074191233,2109.879231898776" stroke="rgb(0,0,0)" stroke-width="9" /><circle cx="374.745298506087" cy="1842.502067753086" fill="none" r="102.25934019813589" stroke="rgb(0,0,0)" stroke-width="9" /><polygon fill="none" points="539.7203328739645,1968.329270003776 374.745298506087,1991.8971320563298 209.77026413820957,1968.329270003776 374.745298506087,1944.761407951222" stroke="rgb(0,0,0)" stroke-width="9" /><line stroke="rgb(0,0,0)" stroke-linecap="square" stroke-width="9" x1="502.01812144851124" x2="245.53757105271785" y1="2125.215972751721" y2="2125.215972751721" /><polygon fill="none" points="536.2396434889115,1717.172106843118 374.745298506087,1740.24272755495 213.25095352326258,1717.172106843118 374.745298506087,1694.1014861312858" stroke="rgb(0,0,0)" stroke-width="9" /><line stroke="rgb(0,0,0)" stroke-linecap="square" stroke-width="9" x1="553.5405087676784" x2="113.24480040458997" y1="1503.474229545414" y2="1503.474229545414" /><polygon fill="none" points="501.9992556208612,1527.5608868360891 333.3926545861342,1551.6475441267644 164.78605355140718,1527.5608868360891 333.3926545861342,1503.474229545414" stroke="rgb(0,0,0)" stroke-width="9" /><line stroke="rgb(0,0,0)" stroke-linecap="square" stroke-width="9" x1="874.9017139703242" x2="874.9017139703242" y1="2758.7592641330675" y2="2892.3183231412604" /><line stroke="rgb(0,0,0)" stroke-linecap="square" stroke-width="9" x1="791.087747595732" x2="791.087747595732" y1="2206.071724026238" y2="2366.217560753307" /><line stroke="rgb(0,0,0)" stroke-linecap="square" stroke-width="9" x1="791.087747595732" x2="791.087747595732" y1="2366.217560753307" y2="2692.5421489657115" /><circle cx="1079.5978506152408" cy="2206.071724026238" fill="none" r="54.04760306584032" stroke="rgb(0,0,0)" stroke-width="9" /><line stroke="rgb(0,0,0)" stroke-linecap="square" stroke-width="9" x1="1133.645453681081" x2="1270.9697998408412" y1="2206.071724026238" y2="2206.071724026238" /><line stroke="rgb(0,0,0)" stroke-linecap="square" stroke-width="9" x1="1181.1947288795702" x2="1291.9381673143598" y1="2050.4272426960683" y2="2050.4272426960683" /><line stroke="rgb(0,0,0)" stroke-linecap="square" stroke-width="9" x1="1202.3076267609613" x2="1202.3076267609613" y1="2206.071724026238" y2="2414.659474178348" /><line stroke="rgb(0,0,0)" stroke-linecap="square" stroke-width="9" x1="1079.5978506152408" x2="1079.5978506152408" y1="2260.119327092078" y2="2407.3807752827834" /><line stroke="rgb(0,0,0)" stroke-linecap="square" stroke-width="9" x1="1079.5978506152408" x2="1079.5978506152408" y1="2407.3807752827834" y2="2495.771222137042" /><circle cx="1079.5978506152408" cy="2050.4272426960683" fill="none" r="101.59687826432946" stroke="rgb(0,0,0)" stroke-width="9" /><line stroke="rgb(0,0,0)" stroke-linecap="square" stroke-width="9" x1="889.6402230567542" x2="889.6402230567542" y1="1931.6697150482917" y2="2094.998123145874" /><circle cx="889.6402230567542" cy="2125.0301166946356" fill="none" r="30.031993548761378" stroke="rgb(0,0,0)" stroke-width="9" /><line stroke="rgb(0,0,0)" stroke-linecap="square" stroke-width="9" x1="767.558431107913" x2="767.558431107913" y1="2023.1892525703113" y2="2142.5331130819286" /><line stroke="rgb(0,0,0)" stroke-linecap="square" stroke-width="9" x1="1079.5978506152408" x2="985.909560031706" y1="1842.502067753086" y2="1842.502067753086" /><line stroke="rgb(0,0,0)" stroke-linecap="square" stroke-width="9" x1="985.909560031706" x2="793.3708860818023" y1="1842.502067753086" y2="1842.502067753086" /><line stroke="rgb(0,0,0)" stroke-linecap="square" stroke-width="9" x1="889.6402230567542" x2="889.6402230567542" y1="1842.502067753086" y2="1931.6697150482917" /><line stroke="rgb(0,0,0)" stroke-linecap="square" stroke-width="9" x1="1079.5978506152408" x2="805.2241571306847" y1="1503.474229545414" y2="1503.474229545414" /><circle cx="940.0269942256866" cy="1644.8501357636344" fill="none" r="53.71533291218928" stroke="rgb(0,0,0)" stroke-width="9" /><line stroke="rgb(0,0,0)" stroke-linecap="square" stroke-width="9" x1="942.4110038729627" x2="942.4110038729627" y1="1503.474229545414" y2="1174.1467564569518" /><polygon fill="none" points="793.3708860818023,1842.502067753086 767.558431107913,2023.1892525703113 741.7459761340236,1842.502067753086 767.558431107913,1661.8148829358609" stroke="rgb(0,0,0)" stroke-width="9" /><circle cx="769.0404060053559" cy="1503.474229545414" fill="none" r="36.18375112532891" stroke="rgb(0,0,0)" stroke-width="9" /><line stroke="rgb(0,0,0)" stroke-linecap="square" stroke-width="9" x1="1236.566448096965" x2="1236.566448096965" y1="2050.4272426960683" y2="1720.0070404338765" /><line stroke="rgb(0,0,0)" stroke-linecap="square" stroke-width="9" x1="1236.566448096965" x2="1236.566448096965" y1="1720.0070404338765" y2="1483.0383090748423" /><circle cx="1202.780084632557" cy="1601.5226747543593" fill="none" r="33.786363464408005" stroke="rgb(0,0,0)" stroke-width="9" /><polygon fill="none" points="1168.993721168149,1601.5226747543593 1152.7466671964528,1715.2520525562336 1136.4996132247566,1601.5226747543593 1152.7466671964528,1487.793296952485" stroke="rgb(0,0,0)" stroke-width="9" /><line stroke="rgb(0,0,0)" stroke-linecap="square" stroke-width="9" x1="1236.566448096965" x2="1236.566448096965" y1="1483.0383090748423" y2="1390.101348836112" /><line stroke="rgb(0,0,0)" stroke-linecap="square" stroke-width="9" x1="1079.5978506152408" x2="1079.5978506152408" y1="1948.8303644317389" y2="1736.1737710744335" /><line stroke="rgb(0,0,0)" stroke-linecap="square" stroke-width="9" x1="1079.5978506152408" x2="1079.5978506152408" y1="1736.1737710744335" y2="1270.7746880163943" /><line stroke="rgb(0,0,0)" stroke-linecap="square" stroke-width="9" x1="1152.7466671964528" x2="1152.7466671964528" y1="1487.793296952485" y2="1178.9560125555477" /><line stroke="rgb(0,0,0)" stroke-linecap="square" stroke-width="9" x1="1152.7466671964528" x2="1152.7466671964528" y1="1715.2520525562336" y2="1883.0438820602512" /><polygon fill="none" points="1292.6492461770877,2526.2071357887344 1079.5978506152408,2556.6430494404267 866.546455053394,2526.2071357887344 1079.5978506152408,2495.771222137042" stroke="rgb(0,0,0)" stroke-width="9" /><circle cx="1079.5978506152408" cy="2622.0651321391556" fill="none" r="65.42208269872896" stroke="rgb(0,0,0)" stroke-width="9" /><line stroke="rgb(0,0,0)" stroke-linecap="square" stroke-width="9" x1="1090.7741614279985" x2="1090.7741614279985" y1="2967.4454002220264" y2="2815.096314830114" /><line stroke="rgb(0,0,0)" stroke-linecap="square" stroke-width="9" x1="1357.778508260612" x2="1357.778508260612" y1="2927.337435039303" y2="2539.983670798223" /><line stroke="rgb(0,0,0)" stroke-linecap="square" stroke-width="9" x1="1357.778508260612" x2="1357.778508260612" y1="2539.983670798223" y2="2359.0022416974675" /><line stroke="rgb(0,0,0)" stroke-linecap="square" stroke-width="9" x1="1357.778508260612" x2="1357.778508260612" y1="2261.359600223946" y2="1809.3397628568512" /><line stroke="rgb(0,0,0)" stroke-linecap="square" stroke-width="9" x1="1357.778508260612" x2="1357.778508260612" y1="1809.3397628568512" y2="1691.9307700659288" /><line stroke="rgb(0,0,0)" stroke-linecap="square" stroke-width="9" x1="1357.778508260612" x2="1357.778508260612" y1="1691.9307700659288" y2="1413.2411040104232" /><circle cx="1357.778508260612" cy="2310.1809209607068" fill="none" r="48.82132073676097" stroke="rgb(0,0,0)" stroke-width="9" /><circle cx="1421.2000975904357" cy="2035.3496815403987" fill="none" r="63.421589329823696" stroke="rgb(0,0,0)" stroke-width="9" /><line stroke="rgb(0,0,0)" stroke-linecap="square" stroke-width="9" x1="1421.2000975904357" x2="1421.2000975904357" y1="1971.928092210575" y2="1888.6941552011249" /><line stroke="rgb(0,0,0)" stroke-linecap="square" stroke-width="9" x1="1421.2000975904357" x2="1421.2000975904357" y1="1888.6941552011249" y2="1584.6410539433077" /><line stroke="rgb(0,0,0)" stroke-linecap="square" stroke-width="9" x1="1421.2000975904357" x2="1421.2000975904357" y1="1584.6410539433077" y2="1164.052770792566" /><circle cx="874.9017139703242" cy="2967.4454002220264" fill="none" r="75.12707708076601" stroke="rgb(0,0,0)" stroke-width="9" /><polygon fill="none" points="1001.3575555565093,3060.6375975293904 874.9017139703242,3078.7027177559885 748.4458723841391,3060.6375975293904 874.9017139703242,3042.5724773027923" stroke="rgb(0,0,0)" stroke-width="9" /><polygon fill="none" points="1024.8954138720512,3578.671409075585 912.6243389213112,3594.7101340685476 800.3532639705711,3578.671409075585 912.6243389213112,3562.6326840826223" stroke="rgb(0,0,0)" stroke-width="9" /><line stroke="rgb(0,0,0)" stroke-linecap="square" stroke-width="9" x1="1001.3575555565093" x2="1192.2703854106005" y1="3060.6375975293904" y2="3060.6375975293904" /><line stroke="rgb(0,0,0)" stroke-linecap="square" stroke-width="9" x1="1096.8139704835548" x2="1096.8139704835548" y1="3060.6375975293904" y2="3223.558167735277" /><line stroke="rgb(0,0,0)" stroke-linecap="square" stroke-width="9" x1="1519.1109263313472" x2="1760.1961405693323" y1="3323.1902874415987" y2="3323.1902874415987" /><circle cx="1096.8139704835548" cy="3323.1902874415987" fill="none" r="99.63211970632179" stroke="rgb(0,0,0)" stroke-width="9" /><line stroke="rgb(0,0,0)" stroke-linecap="square" stroke-width="9" x1="1357.778508260612" x2="1720.3467134784455" y1="3210.685067868204" y2="3210.685067868204" /><line stroke="rgb(0,0,0)" stroke-linecap="square" stroke-width="9" x1="1096.8139704835548" x2="1096.8139704835548" y1="3483.609208307244" y2="3770.377848440241" /><circle cx="1096.8139704835548" cy="3843.3279350622333" fill="none" r="72.95008662199226" stroke="rgb(0,0,0)" stroke-width="9" /><line stroke="rgb(0,0,0)" stroke-linecap="square" stroke-width="9" x1="912.6243389213112" x2="912.6243389213112" y1="3993.8310343609296" y2="3594.7101340685476" /><circle cx="1096.8139704835548" cy="3970.996504250618" fill="none" r="54.71848256639198" stroke="rgb(0,0,0)" stroke-width="9" /><line stroke="rgb(0,0,0)" stroke-linecap="square" stroke-width="9" x1="1512.4312770256938" x2="1982.942078855107" y1="3865.7284633498684" y2="3865.7284633498684" /><circle cx="1096.8139704835548" cy="4112.992537998261" fill="none" r="87.27755118125057" stroke="rgb(0,0,0)" stroke-width="9" /><line stroke="rgb(0,0,0)" stroke-linecap="square" stroke-width="9" x1="912.6243389213112" x2="912.6243389213112" y1="4201.382979696671" y2="3993.8310343609296" /><line stroke="rgb(0,0,0)" stroke-linecap="square" stroke-width="9" x1="813.045670564581" x2="813.045670564581" y1="3794.270584214739" y2="4253.500860668477" /><line stroke="rgb(0,0,0)" stroke-linecap="square" stroke-width="9" x1="813.045670564581" x2="813.045670564581" y1="4253.500860668477" y2="4613.001089200111" /><line stroke="rgb(0,0,0)" stroke-linecap="square" stroke-width="9" x1="1096.8139704835548" x2="1096.8139704835548" y1="4200.270089179511" y2="4369.0611984357565" /><line stroke="rgb(0,0,0)" stroke-linecap="square" stroke-width="9" x1="1096.8139704835548" x2="1096.8139704835548" y1="4369.0611984357565" y2="4490.283420330189" /><line stroke="rgb(0,0,0)" stroke-linecap="square" stroke-width="9" x1="1096.8139704835548" x2="1096.8139704835548" y1="4640.323404109001" y2="4952.825304879229" /><line stroke="rgb(0,0,0)" stroke-linecap="square" stroke-width="9" x1="1096.8139704835548" x2="1096.8139704835548" y1="4952.825304879229" y2="5235.809545493878" /><line stroke="rgb(0,0,0)" stroke-linecap="square" stroke-width="9" x1="1096.8139704835548" x2="1096.8139704835548" y1="5235.809545493878" y2="5403.246852973351" /><line stroke="rgb(0,0,0)" stroke-linecap="square" stroke-width="9" x1="1096.8139704835548" x2="1096.8139704835548" y1="5403.246852973351" y2="5551.787238698455" /><line stroke="rgb(0,0,0)" stroke-linecap="square" stroke-width="9" x1="1096.8139704835548" x2="1096.8139704835548" y1="5551.787238698455" y2="5928.216223303307" /><line stroke="rgb(0,0,0)" stroke-linecap="square" stroke-width="9" x1="1096.8139704835548" x2="1096.8139704835548" y1="6081.3122136505735" y2="6503.1473079769685" /><line stroke="rgb(0,0,0)" stroke-linecap="square" stroke-width="9" x1="1096.8139704835548" x2="1096.8139704835548" y1="6503.1473079769685" y2="6810.926475187978" /><circle cx="1143.8274887173088" cy="6292.229760813771" fill="none" r="47.013518233753906" stroke="rgb(0,0,0)" stroke-width="9" /><line stroke="rgb(0,0,0)" stroke-linecap="square" stroke-width="9" x1="1283.3500439732486" x2="1283.3500439732486" y1="6292.229760813771" y2="6616.80636825191" /><line stroke="rgb(0,0,0)" stroke-linecap="square" stroke-width="9" x1="1283.3500439732486" x2="1171.427889861095" y1="6454.51806453284" y2="6454.51806453284" /><line stroke="rgb(0,0,0)" stroke-linecap="square" stroke-width="9" x1="1227.3889669171717" x2="1227.3889669171717" y1="6454.51806453284" y2="6532.740584859082" /><line stroke="rgb(0,0,0)" stroke-linecap="square" stroke-width="9" x1="1096.8139704835548" x2="1295.6365359867712" y1="4796.574354494115" y2="4796.574354494115" /><line stroke="rgb(0,0,0)" stroke-linecap="square" stroke-width="9" x1="1196.225253235163" x2="1196.225253235163" y1="4796.574354494115" y2="4914.542720842878" /><line stroke="rgb(0,0,0)" stroke-linecap="square" stroke-width="9" x1="1043.5292297766223" x2="1043.5292297766223" y1="5004.306034312293" y2="4709.659843639783" /><circle cx="817.859482336877" cy="6559.0037821392725" fill="none" r="52.03408832271344" stroke="rgb(0,0,0)" stroke-width="9" /><line stroke="rgb(0,0,0)" stroke-linecap="square" stroke-width="9" x1="817.859482336877" x2="817.859482336877" y1="6506.969693816559" y2="6422.793292794278" /><circle cx="817.859482336877" cy="6391.128505107474" fill="none" r="31.664787686804313" stroke="rgb(0,0,0)" stroke-width="9" /><line stroke="rgb(0,0,0)" stroke-linecap="square" stroke-width="9" x1="885.7690428255577" x2="775.5123434838214" y1="6140.094730016907" y2="6140.094730016907" /><circle cx="939.1756844050678" cy="6559.0037821392725" fill="none" r="69.28211374547737" stroke="rgb(0,0,0)" stroke-width="9" /><polygon fill="none" points="1044.6850109877462,6559.0037821392725 1026.5714045691457,6685.799027069475 1008.4577981505453,6559.0037821392725 1026.5714045691457,6432.20853720907" stroke="rgb(0,0,0)" stroke-width="9" /><line stroke="rgb(0,0,0)" stroke-linecap="square" stroke-width="9" x1="1026.5714045691457" x2="1026.5714045691457" y1="6432.20853720907" y2="6356.339617868972" /><line stroke="rgb(0,0,0)" stroke-linecap="square" stroke-width="9" x1="1026.5714045691457" x2="1026.5714045691457" y1="6356.339617868972" y2="6264.446107641415" /><line stroke="rgb(0,0,0)" stroke-linecap="square" stroke-width="9" x1="939.1756844050678" x2="939.1756844050678" y1="6489.721668393795" y2="6193.501371596418" /><line stroke="rgb(0,0,0)" stroke-linecap="square" stroke-width="9" x1="752.4415687525377" x2="752.4415687525377" y1="4433.2509749342935" y2="4309.684031542829" /><line stroke="rgb(0,0,0)" stroke-linecap="square" stroke-width="9" x1="752.4415687525377" x2="752.4415687525377" y1="4309.684031542829" y2="3948.9145646890975" /><circle cx="1096.8139704835548" cy="4565.303412219595" fill="none" r="75.01999188940567" stroke="rgb(0,0,0)" stroke-width="9" /><line stroke="rgb(0,0,0)" stroke-linecap="square" stroke-width="9" x1="1427.4694369747199" x2="1427.4694369747199" y1="4796.574354494115" y2="4369.184821219901" /><line stroke="rgb(0,0,0)" stroke-linecap="square" stroke-width="9" x1="1427.4694369747199" x2="1427.4694369747199" y1="4194.030654614166" y2="4004.931188389795" /><line stroke="rgb(0,0,0)" stroke-linecap="square" stroke-width="9" x1="1427.4694369747199" x2="1427.4694369747199" y1="4004.931188389795" y2="3726.5257383099424" /><line stroke="rgb(0,0,0)" stroke-linecap="square" stroke-width="9" x1="1427.4694369747199" x2="1427.4694369747199" y1="3561.105698632372" y2="3433.966098100305" /><circle cx="1427.4694369747199" cy="3675.944444336436" fill="none" r="50.58129397350656" stroke="rgb(0,0,0)" stroke-width="9" /><circle cx="1469.9503570002068" cy="3865.7284633498684" fill="none" r="42.48092002548686" stroke="rgb(0,0,0)" stroke-width="9" /><line stroke="rgb(0,0,0)" stroke-linecap="square" stroke-width="9" x1="1427.4694369747199" x2="1568.6120603471459" y1="3497.535898366338" y2="3497.535898366338" /><line stroke="rgb(0,0,0)" stroke-linecap="square" stroke-width="9" x1="1498.0407486609329" x2="1498.0407486609329" y1="3497.535898366338" y2="3409.325697408788" /><circle cx="1427.4694369747199" cy="4281.607737917034" fill="none" r="87.5770833028673" stroke="rgb(0,0,0)" stroke-width="9" /><line stroke="rgb(0,0,0)" stroke-linecap="square" stroke-width="9" x1="1427.4694369747199" x2="1526.8955016194348" y1="4099.48092150198" y2="4099.48092150198" /><polygon fill="none" points="1370.51949022798,3970.996504250618 1349.7291967605804,4116.528558522415 1328.9389032931808,3970.996504250618 1349.7291967605804,3825.4644499788214" stroke="rgb(0,0,0)" stroke-width="9" /><line stroke="rgb(0,0,0)" stroke-linecap="square" stroke-width="9" x1="1376.8881430012134" x2="1271.887690892506" y1="3675.944444336436" y2="3675.944444336436" /><line stroke="rgb(0,0,0)" stroke-linecap="square" stroke-width="9" x1="1324.3879169468596" x2="1324.3879169468596" y1="3675.944444336436" y2="3773.8875760237343" /><line stroke="rgb(0,0,0)" stroke-linecap="square" stroke-width="9" x1="1151.5324530499468" x2="1328.9389032931808" y1="3970.996504250618" y2="3970.996504250618" /><line stroke="rgb(0,0,0)" stroke-linecap="square" stroke-width="9" x1="1271.887690892506" x2="1178.1961680799477" y1="3675.944444336436" y2="3675.944444336436" /><line stroke="rgb(0,0,0)" stroke-linecap="square" stroke-width="9" x1="1240.235678171564" x2="1240.235678171564" y1="3970.996504250618" y2="4171.798800560681" /><line stroke="rgb(0,0,0)" stroke-linecap="square" stroke-width="9" x1="1240.235678171564" x2="1240.235678171564" y1="4171.798800560681" y2="4580.8447865551225" /><line stroke="rgb(0,0,0)" stroke-linecap="square" stroke-width="9" x1="1240.235678171564" x2="1240.235678171564" y1="4580.8447865551225" y2="4727.513928843035" /><line stroke="rgb(0,0,0)" stroke-linecap="square" stroke-width="9" x1="1240.235678171564" x2="1165.1668264315906" y1="4376.321793557901" y2="4376.321793557901" /><circle cx="1511.510328581557" cy="4582.879587857008" fill="none" r="84.04089160683709" stroke="rgb(0,0,0)" stroke-width="9" /><circle cx="1511.510328581557" cy="4466.000240343459" fill="none" r="32.83845590671162" stroke="rgb(0,0,0)" stroke-width="9" /><line stroke="rgb(0,0,0)" stroke-linecap="square" stroke-width="9" x1="1511.510328581557" x2="1511.510328581557" y1="4666.920479463845" y2="4746.5030327449695" /><line stroke="rgb(0,0,0)" stroke-linecap="square" stroke-width="9" x1="1515.0465202775872" x2="1831.5096361830733" y1="4281.607737917034" y2="4281.607737917034" /><polygon fill="none" points="1652.3705180316704,3593.2344244976507 1427.4694369747199,3625.3631503629294 1202.5683559177694,3593.2344244976507 1427.4694369747199,3561.105698632372" stroke="rgb(0,0,0)" stroke-width="9" /><line stroke="rgb(0,0,0)" stroke-linecap="square" stroke-width="9" x1="912.6243389213112" x2="912.6243389213112" y1="5000.822053930382" y2="4671.611368070043" /><line stroke="rgb(0,0,0)" stroke-linecap="square" stroke-width="9" x1="912.6243389213112" x2="912.6243389213112" y1="4671.611368070043" y2="4201.382979696671" /><polygon fill="none" points="1291.0075532801566,5955.958163702821 1096.8139704835548,5983.700104102336 902.6203876869532,5955.958163702821 1096.8139704835548,5928.216223303307" stroke="rgb(0,0,0)" stroke-width="9" /><line stroke="rgb(0,0,0)" stroke-linecap="square" stroke-width="9" x1="1291.0075532801566" x2="1782.4770647336509" y1="5955.958163702821" y2="5955.958163702821" /><polygon fill="none" points="1672.9505720465013,5936.49984041145 1536.7423090069037,5955.958163702821 1400.5340459673062,5936.49984041145 1536.7423090069037,5917.041517120079" stroke="rgb(0,0,0)" stroke-width="9" /><line stroke="rgb(0,0,0)" stroke-linecap="square" stroke-width="9" x1="1096.8139704835548" x2="1096.8139704835548" y1="5983.700104102336" y2="6081.3122136505735" /><circle cx="939.1756844050678" cy="6140.094730016907" fill="none" r="53.4066415795102" stroke="rgb(0,0,0)" stroke-width="9" /><line stroke="rgb(0,0,0)" stroke-linecap="square" stroke-width="9" x1="830.6406931546895" x2="830.6406931546895" y1="6140.094730016907" y2="6291.900860926134" /><polygon fill="none" points="1044.8120498936469,6071.597179081886 939.1756844050678,6086.688088437397 833.5393189164887,6071.597179081886 939.1756844050678,6056.506269726375" stroke="rgb(0,0,0)" stroke-width="9" /><line stroke="rgb(0,0,0)" stroke-linecap="square" stroke-width="9" x1="1190.8410069510628" x2="1375.8590809954344" y1="6292.229760813771" y2="6292.229760813771" /><line stroke="rgb(0,0,0)" stroke-linecap="square" stroke-width="9" x1="1375.8590809954344" x2="1766.8525190906596" y1="6292.229760813771" y2="6292.229760813771" /><polygon fill="none" points="1690.620955486504,6275.191881464705 1571.355800043047,6292.229760813771 1452.0906445995902,6275.191881464705 1571.355800043047,6258.15400211564" stroke="rgb(0,0,0)" stroke-width="9" /><line stroke="rgb(0,0,0)" stroke-linecap="square" stroke-width="9" x1="1096.8139704835548" x2="1530.0324572470538" y1="5319.528199233615" y2="5319.528199233615" /><line stroke="rgb(0,0,0)" stroke-linecap="square" stroke-width="9" x1="1313.4232138653042" x2="1313.4232138653042" y1="5319.528199233615" y2="5632.85815231836" /><line stroke="rgb(0,0,0)" stroke-linecap="square" stroke-width="9" x1="1313.4232138653042" x2="1313.4232138653042" y1="5632.85815231836" y2="5820.108864689946" /><polygon fill="none" points="1457.190108432995,5840.646992485331 1313.4232138653042,5861.185120280716 1169.6563192976134,5840.646992485331 1313.4232138653042,5820.108864689946" stroke="rgb(0,0,0)" stroke-width="9" /><line stroke="rgb(0,0,0)" stroke-linecap="square" stroke-width="9" x1="912.6243389213112" x2="912.6243389213112" y1="5740.001731000881" y2="5573.792591594235" /><line stroke="rgb(0,0,0)" stroke-linecap="square" stroke-width="9" x1="912.6243389213112" x2="912.6243389213112" y1="5573.792591594235" y2="5219.4133499087275" /><line stroke="rgb(0,0,0)" stroke-linecap="square" stroke-width="9" x1="912.6243389213112" x2="912.6243389213112" y1="5219.4133499087275" y2="5000.822053930382" /><line stroke="rgb(0,0,0)" stroke-linecap="square" stroke-width="9" x1="800.8285722652575" x2="800.8285722652575" y1="5656.897161297558" y2="5323.689292022465" /><line stroke="rgb(0,0,0)" stroke-linecap="square" stroke-width="9" x1="845.2304934886023" x2="845.2304934886023" y1="4836.216711000212" y2="5081.600683867702" /><line stroke="rgb(0,0,0)" stroke-linecap="square" stroke-width="9" x1="912.6243389213112" x2="777.8366480558934" y1="4836.216711000212" y2="4836.216711000212" /><line stroke="rgb(0,0,0)" stroke-linecap="square" stroke-width="9" x1="1295.6365359867712" x2="1559.3023379626684" y1="4796.574354494115" y2="4796.574354494115" /><line stroke="rgb(0,0,0)" stroke-linecap="square" stroke-width="9" x1="1386.6896272285298" x2="1869.6491743900476" y1="4980.013949430871" y2="4980.013949430871" /><polygon fill="none" points="1743.1394932289652,4963.589650513774 1628.1694008092886,4980.013949430871 1513.199308389612,4963.589650513774 1628.1694008092886,4947.165351596677" stroke="rgb(0,0,0)" stroke-width="9" /><line stroke="rgb(0,0,0)" stroke-linecap="square" stroke-width="9" x1="1196.225253235163" x2="1196.225253235163" y1="4914.542720842878" y2="5045.485178018865" /><line stroke="rgb(0,0,0)" stroke-linecap="square" stroke-width="9" x1="1196.225253235163" x2="1196.225253235163" y1="5045.485178018865" y2="5190.438251599257" /><circle cx="1196.225253235163" cy="5224.391823600046" fill="none" r="33.953572000789805" stroke="rgb(0,0,0)" stroke-width="9" /><line stroke="rgb(0,0,0)" stroke-linecap="square" stroke-width="9" x1="1291.4574402318465" x2="1291.4574402318465" y1="5054.5820178266895" y2="5222.116048850747" /><line stroke="rgb(0,0,0)" stroke-linecap="square" stroke-width="9" x1="1196.225253235163" x2="1386.6896272285298" y1="4980.013949430871" y2="4980.013949430871" /><circle cx="1291.4574402318465" cy="5017.2979836287805" fill="none" r="37.28403419790938" stroke="rgb(0,0,0)" stroke-width="9" /><line stroke="rgb(0,0,0)" stroke-linecap="square" stroke-width="9" x1="1291.4574402318465" x2="1428.5926498920167" y1="5138.349033338718" y2="5138.349033338718" /><line stroke="rgb(0,0,0)" stroke-linecap="square" stroke-width="9" x1="1096.8139704835548" x2="990.2444890696895" y1="5477.517045835903" y2="5477.517045835903" /><line stroke="rgb(0,0,0)" stroke-linecap="square" stroke-width="9" x1="1043.5292297766223" x2="1043.5292297766223" y1="5477.517045835903" y2="5004.306034312293" /><circle cx="945.2265711525363" cy="5110.117701919555" fill="none" r="32.60223223122515" stroke="rgb(0,0,0)" stroke-width="9" /><line stroke="rgb(0,0,0)" stroke-linecap="square" stroke-width="9" x1="1313.4232138653042" x2="1656.0601797155668" y1="5726.483508504153" y2="5726.483508504153" /><line stroke="rgb(0,0,0)" stroke-linecap="square" stroke-width="9" x1="1484.7416967904355" x2="1484.7416967904355" y1="5726.483508504153" y2="5524.830778322753" /><circle cx="1518.2610168217639" cy="5625.657143413453" fill="none" r="33.51932003132837" stroke="rgb(0,0,0)" stroke-width="9" /><circle cx="1484.7416967904355" cy="5482.9689004151705" fill="none" r="41.861877907582276" stroke="rgb(0,0,0)" stroke-width="9" /><circle cx="1484.7416967904355" cy="5407.323002840866" fill="none" r="33.78401966672217" stroke="rgb(0,0,0)" stroke-width="9" /><line stroke="rgb(0,0,0)" stroke-linecap="square" stroke-width="9" x1="1428.5926498920167" x2="1777.673860031183" y1="5138.349033338718" y2="5138.349033338718" /><polygon fill="none" points="1708.381095131949,5153.384439077339 1603.1332549616,5168.4198448159605 1497.885414791251,5153.384439077339 1603.1332549616,5138.349033338718" stroke="rgb(0,0,0)" stroke-width="9" /><line stroke="rgb(0,0,0)" stroke-linecap="square" stroke-width="9" x1="1360.0250450619315" x2="1360.0250450619315" y1="5138.349033338718" y2="5225.802897671428" /><polygon fill="none" points="1309.567774541188,3453.215807727582 1096.8139704835548,3483.609208307244 884.0601664259215,3453.215807727582 1096.8139704835548,3422.8224071479203" stroke="rgb(0,0,0)" stroke-width="9" /><line stroke="rgb(0,0,0)" stroke-linecap="square" stroke-width="9" x1="1196.4460901898767" x2="1519.1109263313472" y1="3323.1902874415987" y2="3323.1902874415987" /><line stroke="rgb(0,0,0)" stroke-linecap="square" stroke-width="9" x1="1357.778508260612" x2="1357.778508260612" y1="3323.1902874415987" y2="3098.1798482948093" /><line stroke="rgb(0,0,0)" stroke-linecap="square" stroke-width="9" x1="1357.778508260612" x2="1357.778508260612" y1="3098.1798482948093" y2="3015.7722480491616" /><line stroke="rgb(0,0,0)" stroke-linecap="square" stroke-width="9" x1="1357.778508260612" x2="1357.778508260612" y1="3015.7722480491616" y2="2927.337435039303" /><circle cx="1539.0626108695287" cy="3153.8340147395256" fill="none" r="56.85105312867857" stroke="rgb(0,0,0)" stroke-width="9" /><circle cx="1539.0626108695287" cy="3052.3025366804704" fill="none" r="44.680424930377" stroke="rgb(0,0,0)" stroke-width="9" /><circle cx="1539.0626108695287" cy="2888.9217591285246" fill="none" r="118.700352621569" stroke="rgb(0,0,0)" stroke-width="9" /><circle cx="1539.0626108695287" cy="2693.796777859266" fill="none" r="76.42462864768976" stroke="rgb(0,0,0)" stroke-width="9" /><circle cx="1539.0626108695287" cy="2560.9333540361768" fill="none" r="56.43879517539986" stroke="rgb(0,0,0)" stroke-width="9" /><circle cx="1539.0626108695287" cy="2429.353842857579" fill="none" r="75.14071600319821" stroke="rgb(0,0,0)" stroke-width="9" /><circle cx="1539.0626108695287" cy="2276.019639125666" fill="none" r="78.19348772871493" stroke="rgb(0,0,0)" stroke-width="9" /><polygon fill="none" points="1667.7343552161524,2179.4444736331475 1539.0626108695287,2197.826151396951 1410.390866522905,2179.4444736331475 1539.0626108695287,2161.062795869344" stroke="rgb(0,0,0)" stroke-width="9" /><line stroke="rgb(0,0,0)" stroke-linecap="square" stroke-width="9" x1="1484.6216869202594" x2="1621.2161329131686" y1="2035.3496815403987" y2="2035.3496815403987" /><line stroke="rgb(0,0,0)" stroke-linecap="square" stroke-width="9" x1="1421.2000975904357" x2="1817.0619311714313" y1="1736.6676045722163" y2="1736.6676045722163" /><polygon fill="none" points="1759.5372742857778,1716.6095674429528 1619.1310143809335,1736.6676045722163 1478.7247544760892,1716.6095674429528 1619.1310143809335,1696.5515303136892" stroke="rgb(0,0,0)" stroke-width="9" /><circle cx="1231.9867031015929" cy="3060.6375975293904" fill="none" r="39.71631769099245" stroke="rgb(0,0,0)" stroke-width="9" /><line stroke="rgb(0,0,0)" stroke-linecap="square" stroke-width="9" x1="950.0287910510901" x2="1029.8537929184647" y1="2967.4454002220264" y2="2967.4454002220264" /><line stroke="rgb(0,0,0)" stroke-linecap="square" stroke-width="9" x1="1029.8537929184647" x2="1151.6945299375325" y1="2967.4454002220264" y2="2967.4454002220264" /><line stroke="rgb(0,0,0)" stroke-linecap="square" stroke-width="9" x1="1151.6945299375325" x2="1242.451126526997" y1="2967.4454002220264" y2="2967.4454002220264" /><line stroke="rgb(0,0,0)" stroke-linecap="square" stroke-width="9" x1="1145.0199333139697" x2="1299.1809254989182" y1="2622.0651321391556" y2="2622.0651321391556" /><line stroke="rgb(0,0,0)" stroke-linecap="square" stroke-width="9" x1="1014.1757679165119" x2="872.2072791269804" y1="2622.0651321391556" y2="2622.0651321391556" /><line stroke="rgb(0,0,0)" stroke-linecap="square" stroke-width="9" x1="943.1915235217461" x2="943.1915235217461" y1="2622.0651321391556" y2="2697.103611512592" /><line stroke="rgb(0,0,0)" stroke-linecap="square" stroke-width="9" x1="1222.100429406444" x2="1222.100429406444" y1="2622.0651321391556" y2="2701.1187978184817" /><line stroke="rgb(0,0,0)" stroke-linecap="square" stroke-width="9" x1="1222.100429406444" x2="1222.100429406444" y1="2701.1187978184817" y2="2791.1357591970523" /><circle cx="1222.100429406444" cy="2839.0163231857236" fill="none" r="47.88056398867134" stroke="rgb(0,0,0)" stroke-width="9" /><line stroke="rgb(0,0,0)" stroke-linecap="square" stroke-width="9" x1="912.4155511740815" x2="912.4155511740815" y1="3142.0978826323335" y2="3348.056773020253" /><line stroke="rgb(0,0,0)" stroke-linecap="square" stroke-width="9" x1="940.0269942256866" x2="940.0269942256866" y1="1698.5654686758237" y2="1783.459067387513" /><line stroke="rgb(0,0,0)" stroke-linecap="square" stroke-width="9" x1="6666.711192541016" x2="6951.980591997689" y1="3058.76175400627" y2="3058.76175400627" /><circle cx="7021.046598968296" cy="3058.76175400627" fill="none" r="69.0660069706069" stroke="rgb(0,0,0)" stroke-width="9" /><polygon fill="none" points="7145.375151227784,2971.9345252843077 7021.046598968296,2989.6957470356633 6896.718046708808,2971.9345252843077 7021.046598968296,2954.173303532952" stroke="rgb(0,0,0)" stroke-width="9" /><circle cx="7114.889537101977" cy="2871.3403952765734" fill="none" r="31.7123349038967" stroke="rgb(0,0,0)" stroke-width="9" /><line stroke="rgb(0,0,0)" stroke-linecap="square" stroke-width="9" x1="6799.152438695873" x2="6799.152438695873" y1="2835.813855094091" y2="2952.7896008479124" /><circle cx="6645.966688161179" cy="2957.237679062589" fill="none" r="44.10255322562865" stroke="rgb(0,0,0)" stroke-width="9" /><line stroke="rgb(0,0,0)" stroke-linecap="square" stroke-width="9" x1="6552.892161086719" x2="7045.412716305026" y1="2447.6412493274293" y2="2447.6412493274293" /><line stroke="rgb(0,0,0)" stroke-linecap="square" stroke-width="9" x1="7184.366357898929" x2="7406.58769307618" y1="2447.6412493274293" y2="2447.6412493274293" /><line stroke="rgb(0,0,0)" stroke-linecap="square" stroke-width="9" x1="7406.58769307618" x2="7583.813234066016" y1="2447.6412493274293" y2="2447.6412493274293" /><line stroke="rgb(0,0,0)" stroke-linecap="square" stroke-width="9" x1="6963.311297332914" x2="6645.908048829629" y1="2265.031156801352" y2="2265.031156801352" /><circle cx="6804.6096730812715" cy="2203.223550676554" fill="none" r="61.8076061247979" stroke="rgb(0,0,0)" stroke-width="9" /><line stroke="rgb(0,0,0)" stroke-linecap="square" stroke-width="9" x1="6804.6096730812715" x2="6621.537204016263" y1="2014.826080479118" y2="2014.826080479118" /><circle cx="6585.967957485671" cy="2014.826080479118" fill="none" r="35.569246530592004" stroke="rgb(0,0,0)" stroke-width="9" /><line stroke="rgb(0,0,0)" stroke-linecap="square" stroke-width="9" x1="7495.200463571098" x2="7812.520572762337" y1="1949.6061430482737" y2="1949.6061430482737" /><line stroke="rgb(0,0,0)" stroke-linecap="square" stroke-width="9" x1="7045.412716305026" x2="7184.366357898929" y1="2447.6412493274293" y2="2447.6412493274293" /><line stroke="rgb(0,0,0)" stroke-linecap="square" stroke-width="9" x1="7114.889537101977" x2="6964.546702550096" y1="2532.08327827268" y2="2532.08327827268" /><line stroke="rgb(0,0,0)" stroke-linecap="square" stroke-width="9" x1="6964.546702550096" x2="6850.515571807158" y1="2532.08327827268" y2="2532.08327827268" /><line stroke="rgb(0,0,0)" stroke-linecap="square" stroke-width="9" x1="7114.889537101977" x2="7114.889537101977" y1="2447.6412493274293" y2="2616.5253072179316" /><line stroke="rgb(0,0,0)" stroke-linecap="square" stroke-width="9" x1="7214.579815824583" x2="6963.311297332914" y1="2265.031156801352" y2="2265.031156801352" /><circle cx="7088.945556578748" cy="1739.5836187283169" fill="none" r="37.55858832876656" stroke="rgb(0,0,0)" stroke-width="9" /><line stroke="rgb(0,0,0)" stroke-linecap="square" stroke-width="9" x1="7088.945556578748" x2="6977.034264004319" y1="1840.0313471517752" y2="1840.0313471517752" /><line stroke="rgb(0,0,0)" stroke-linecap="square" stroke-width="9" x1="7032.989910291533" x2="7032.989910291533" y1="1840.0313471517752" y2="2080.280523314399" /><line stroke="rgb(0,0,0)" stroke-linecap="square" stroke-width="9" x1="7032.989910291533" x2="7032.989910291533" y1="2080.280523314399" y2="2207.9542778582904" /><polygon fill="none" points="6977.034264004319,1840.0313471517752 6942.474837473397,2081.9473328682316 6907.915410942475,1840.0313471517752 6942.474837473397,1598.115361435319" stroke="rgb(0,0,0)" stroke-width="9" /><line stroke="rgb(0,0,0)" stroke-linecap="square" stroke-width="9" x1="6942.474837473397" x2="6942.474837473397" y1="1598.115361435319" y2="1332.5301469558613" /><line stroke="rgb(0,0,0)" stroke-linecap="square" stroke-width="9" x1="6942.474837473397" x2="6942.474837473397" y1="2081.9473328682316" y2="2182.065120160694" /><circle cx="7114.889537101977" cy="2693.4508733327652" fill="none" r="76.9255661148336" stroke="rgb(0,0,0)" stroke-width="9" /><circle cx="7114.889537101977" cy="2805.002249910138" fill="none" r="34.62581046253897" stroke="rgb(0,0,0)" stroke-width="9" /><line stroke="rgb(0,0,0)" stroke-linecap="square" stroke-width="9" x1="6907.5311371786265" x2="6907.5311371786265" y1="2532.08327827268" y2="2896.2509145574795" /><line stroke="rgb(0,0,0)" stroke-linecap="square" stroke-width="9" x1="6804.6096730812715" x2="6804.6096730812715" y1="2141.415944551756" y2="1888.23621640648" /><line stroke="rgb(0,0,0)" stroke-linecap="square" stroke-width="9" x1="6804.6096730812715" x2="6804.6096730812715" y1="1827.540790913513" y2="1432.3025586430485" /><circle cx="6804.6096730812715" cy="1857.8885036599966" fill="none" r="30.34771274648355" stroke="rgb(0,0,0)" stroke-width="9" /><circle cx="6657.674066997117" cy="1721.1195947604735" fill="none" r="55.39937155164948" stroke="rgb(0,0,0)" stroke-width="9" /><polygon fill="none" points="6602.274695445467,1721.1195947604735 6579.195690504202,1882.672629349328 6556.116685562936,1721.1195947604735 6579.195690504202,1559.5665601716191" stroke="rgb(0,0,0)" stroke-width="9" /><line stroke="rgb(0,0,0)" stroke-linecap="square" stroke-width="9" x1="6579.195690504202" x2="6579.195690504202" y1="1559.5665601716191" y2="1342.7363809288256" /><line stroke="rgb(0,0,0)" stroke-linecap="square" stroke-width="9" x1="6713.073438548767" x2="6713.073438548767" y1="2014.826080479118" y2="1903.8261613858485" /><line stroke="rgb(0,0,0)" stroke-linecap="square" stroke-width="9" x1="6713.073438548767" x2="6713.073438548767" y1="1903.8261613858485" y2="1538.4130281350986" /><line stroke="rgb(0,0,0)" stroke-linecap="square" stroke-width="9" x1="6713.073438548767" x2="6713.073438548767" y1="1538.4130281350986" y2="1171.7951085460097" /><line stroke="rgb(0,0,0)" stroke-linecap="square" stroke-width="9" x1="6657.674066997117" x2="6657.674066997117" y1="1665.720223208824" y2="1439.041782280911" /><line stroke="rgb(0,0,0)" stroke-linecap="square" stroke-width="9" x1="6657.674066997117" x2="6657.674066997117" y1="1776.518966312123" y2="1868.074779230244" /><line stroke="rgb(0,0,0)" stroke-linecap="square" stroke-width="9" x1="6593.218846910849" x2="6698.714529411511" y1="2622.8632645083235" y2="2622.8632645083235" /><line stroke="rgb(0,0,0)" stroke-linecap="square" stroke-width="9" x1="6645.966688161179" x2="6645.966688161179" y1="2622.8632645083235" y2="2818.54815588567" /><polygon fill="none" points="6729.071820668896,2622.8632645083235 6713.8931750402035,2729.1137839091703 6698.714529411511,2622.8632645083235 6713.8931750402035,2516.6127451074767" stroke="rgb(0,0,0)" stroke-width="9" /><circle cx="6645.966688161179" cy="2865.841640861315" fill="none" r="47.29348497564502" stroke="rgb(0,0,0)" stroke-width="9" /><line stroke="rgb(0,0,0)" stroke-linecap="square" stroke-width="9" x1="7295.477025487555" x2="7295.477025487555" y1="2447.6412493274293" y2="2082.421064275275" /><line stroke="rgb(0,0,0)" stroke-linecap="square" stroke-width="9" x1="7295.477025487555" x2="7295.477025487555" y1="2082.421064275275" y2="1980.4545600179945" /><line stroke="rgb(0,0,0)" stroke-linecap="square" stroke-width="9" x1="7295.477025487555" x2="7295.477025487555" y1="1563.4299599833482" y2="1105.9313666942517" /><polygon fill="none" points="7336.070923993888,1334.6806633388 7315.773974740721,1476.7593081109674 7295.477025487555,1334.6806633388 7315.773974740721,1192.6020185666328" stroke="rgb(0,0,0)" stroke-width="9" /><circle cx="7255.028420656069" cy="2265.031156801352" fill="none" r="40.448604831485454" stroke="rgb(0,0,0)" stroke-width="9" /><circle cx="7295.477025487555" cy="1896.216449811037" fill="none" r="84.23811020695766" stroke="rgb(0,0,0)" stroke-width="9" /><line stroke="rgb(0,0,0)" stroke-linecap="square" stroke-width="9" x1="7295.477025487555" x2="7295.477025487555" y1="1811.9783396040793" y2="1632.4756586064498" /><line stroke="rgb(0,0,0)" stroke-linecap="square" stroke-width="9" x1="7088.945556578748" x2="7088.945556578748" y1="2265.031156801352" y2="2068.6582007410557" /><line stroke="rgb(0,0,0)" stroke-linecap="square" stroke-width="9" x1="7088.945556578748" x2="7088.945556578748" y1="2068.6582007410557" y2="1982.0867384240114" /><line stroke="rgb(0,0,0)" stroke-linecap="square" stroke-width="9" x1="7088.945556578748" x2="7088.945556578748" y1="1982.0867384240114" y2="1902.9204872464668" /><line stroke="rgb(0,0,0)" stroke-linecap="square" stroke-width="9" x1="7088.945556578748" x2="7088.945556578748" y1="1902.9204872464668" y2="1777.1422070570834" /><line stroke="rgb(0,0,0)" stroke-linecap="square" stroke-width="9" x1="7295.477025487555" x2="7213.880378658451" y1="1722.2269991052644" y2="1722.2269991052644" /><line stroke="rgb(0,0,0)" stroke-linecap="square" stroke-width="9" x1="7495.200463571098" x2="7495.200463571098" y1="2447.6412493274293" y2="2141.024640610289" /><line stroke="rgb(0,0,0)" stroke-linecap="square" stroke-width="9" x1="7435.236176877481" x2="7435.236176877481" y1="2294.332944968859" y2="2069.6077297741085" /><line stroke="rgb(0,0,0)" stroke-linecap="square" stroke-width="9" x1="7435.236176877481" x2="7435.236176877481" y1="2069.6077297741085" y2="1992.9335433109347" /><line stroke="rgb(0,0,0)" stroke-linecap="square" stroke-width="9" x1="7435.236176877481" x2="7435.236176877481" y1="1992.9335433109347" y2="1900.5041256476834" /><line stroke="rgb(0,0,0)" stroke-linecap="square" stroke-width="9" x1="7435.236176877481" x2="7435.236176877481" y1="1900.5041256476834" y2="1817.4063490207677" /><line stroke="rgb(0,0,0)" stroke-linecap="square" stroke-width="9" x1="7495.200463571098" x2="7495.200463571098" y1="2141.024640610289" y2="1758.187645486258" /><line stroke="rgb(0,0,0)" stroke-linecap="square" stroke-width="9" x1="7495.200463571098" x2="7375.271890183864" y1="2294.332944968859" y2="2294.332944968859" /><circle cx="7495.200463571098" cy="1723.4330315575123" fill="none" r="34.75461392874561" stroke="rgb(0,0,0)" stroke-width="9" /><polygon fill="none" points="7537.13697066841,1597.952809294899 7295.477025487555,1632.4756586064498 7053.8170803067,1597.952809294899 7295.477025487555,1563.4299599833482" stroke="rgb(0,0,0)" stroke-width="9" /><line stroke="rgb(0,0,0)" stroke-linecap="square" stroke-width="9" x1="6799.152438695873" x2="6799.152438695873" y1="2447.6412493274293" y2="2707.281059720679" /><line stroke="rgb(0,0,0)" stroke-linecap="square" stroke-width="9" x1="6799.152438695873" x2="6799.152438695873" y1="2707.281059720679" y2="2835.813855094091" /><line stroke="rgb(0,0,0)" stroke-linecap="square" stroke-width="9" x1="6485.444496408337" x2="6485.444496408337" y1="3135.7459923428833" y2="2730.637615010835" /><line stroke="rgb(0,0,0)" stroke-linecap="square" stroke-width="9" x1="6485.444496408337" x2="6485.444496408337" y1="2172.907056767794" y2="1699.118104509762" /><line stroke="rgb(0,0,0)" stroke-linecap="square" stroke-width="9" x1="6485.444496408337" x2="6485.444496408337" y1="1699.118104509762" y2="1465.6277470941643" /><circle cx="6485.444496408337" cy="2622.8632645083235" fill="none" r="107.7743505025115" stroke="rgb(0,0,0)" stroke-width="9" /><line stroke="rgb(0,0,0)" stroke-linecap="square" stroke-width="9" x1="6485.444496408337" x2="6216.2880029558755" y1="2933.1918036768593" y2="2933.1918036768593" /><circle cx="6485.444496408337" cy="2447.6412493274293" fill="none" r="67.4476646783827" stroke="rgb(0,0,0)" stroke-width="9" /><circle cx="6485.444496408337" cy="2276.5503207084203" fill="none" r="103.64326394062603" stroke="rgb(0,0,0)" stroke-width="9" /><line stroke="rgb(0,0,0)" stroke-linecap="square" stroke-width="9" x1="6485.444496408337" x2="6131.4474637964195" y1="1582.372925801963" y2="1582.372925801963" /><circle cx="6809.345892269353" cy="3140.263946159337" fill="none" r="81.50219215306703" stroke="rgb(0,0,0)" stroke-width="9" /><circle cx="6809.345892269353" cy="3304.4837057558466" fill="none" r="82.71756744344262" stroke="rgb(0,0,0)" stroke-width="9" /><line stroke="rgb(0,0,0)" stroke-linecap="square" stroke-width="9" x1="6726.62832482591" x2="6509.54988403876" y1="3304.4837057558466" y2="3304.4837057558466" /><circle cx="6618.089104432334" cy="3263.8033436072615" fill="none" r="40.68036214858529" stroke="rgb(0,0,0)" stroke-width="9" /><line stroke="rgb(0,0,0)" stroke-linecap="square" stroke-width="9" x1="6618.089104432334" x2="6618.089104432334" y1="3223.1229814586763" y2="3117.169711179287" /><polygon fill="none" points="6509.54988403876,3304.4837057558466 6485.444496408337,3473.22141916881 6461.339108777914,3304.4837057558466 6485.444496408337,3135.7459923428833" stroke="rgb(0,0,0)" stroke-width="9" /><line stroke="rgb(0,0,0)" stroke-linecap="square" stroke-width="9" x1="6485.444496408337" x2="6025.484902674656" y1="4049.119178175529" y2="4049.119178175529" /><line stroke="rgb(0,0,0)" stroke-linecap="square" stroke-width="9" x1="7021.046598968296" x2="7021.046598968296" y1="3127.827760976877" y2="3318.320320016975" /><line stroke="rgb(0,0,0)" stroke-linecap="square" stroke-width="9" x1="7021.046598968296" x2="7215.399631299253" y1="3223.074040496926" y2="3223.074040496926" /><circle cx="7118.223115133775" cy="3268.299503736702" fill="none" r="45.225463239775976" stroke="rgb(0,0,0)" stroke-width="9" /><line stroke="rgb(0,0,0)" stroke-linecap="square" stroke-width="9" x1="7118.223115133775" x2="7118.223115133775" y1="3313.5249669764776" y2="3466.752860385971" /><line stroke="rgb(0,0,0)" stroke-linecap="square" stroke-width="9" x1="7335.394311168458" x2="7335.394311168458" y1="3162.6735861799734" y2="3467.216421911312" /><line stroke="rgb(0,0,0)" stroke-linecap="square" stroke-width="9" x1="7335.394311168458" x2="7335.394311168458" y1="3467.216421911312" y2="3648.9000694275455" /><line stroke="rgb(0,0,0)" stroke-linecap="square" stroke-width="9" x1="7498.939496099962" x2="7498.939496099962" y1="3558.0582456694287" y2="3187.0956574342144" /><circle cx="7498.939496099962" cy="3150.4816737097403" fill="none" r="36.61398372447422" stroke="rgb(0,0,0)" stroke-width="9" /><polygon fill="none" points="7545.433790266494,3678.9057092986936 7335.394311168458,3708.9113491698417 7125.354832070423,3678.9057092986936 7335.394311168458,3648.9000694275455" stroke="rgb(0,0,0)" stroke-width="9" /><line stroke="rgb(0,0,0)" stroke-linecap="square" stroke-width="9" x1="7335.394311168458" x2="7335.394311168458" y1="3708.9113491698417" y2="3963.361677194032" /><line stroke="rgb(0,0,0)" stroke-linecap="square" stroke-width="9" x1="7090.1126059389035" x2="7580.6760163980125" y1="3058.76175400627" y2="3058.76175400627" /><circle cx="7335.394311168458" cy="3110.717670093122" fill="none" r="51.95591608685153" stroke="rgb(0,0,0)" stroke-width="9" /><polygon fill="none" points="7042.323592500212,3420.4838018036976 6809.345892269353,3453.766330408106 6576.368192038493,3420.4838018036976 6809.345892269353,3387.201273199289" stroke="rgb(0,0,0)" stroke-width="9" /><line stroke="rgb(0,0,0)" stroke-linecap="square" stroke-width="9" x1="7498.939496099962" x2="7968.6549441801135" y1="3372.5769515518214" y2="3372.5769515518214" /><line stroke="rgb(0,0,0)" stroke-linecap="square" stroke-width="9" x1="6809.345892269353" x2="6809.345892269353" y1="3453.766330408106" y2="3898.4062365258533" /><circle cx="6923.144336598924" cy="3676.0862834669797" fill="none" r="113.79844432957162" stroke="rgb(0,0,0)" stroke-width="9" /><polygon fill="none" points="7074.009872013911,3676.0862834669797 7055.476326471204,3805.821102265932 7036.942780928496,3676.0862834669797 7055.476326471204,3546.3514646680273" stroke="rgb(0,0,0)" stroke-width="9" /><line stroke="rgb(0,0,0)" stroke-linecap="square" stroke-width="9" x1="7181.50468011455" x2="7181.50468011455" y1="3937.18506657234" y2="3765.092266938503" /><line stroke="rgb(0,0,0)" stroke-linecap="square" stroke-width="9" x1="7335.394311168458" x2="7430.07961084163" y1="3558.0582456694287" y2="3558.0582456694287" /><line stroke="rgb(0,0,0)" stroke-linecap="square" stroke-width="9" x1="7430.07961084163" x2="7567.799381358293" y1="3558.0582456694287" y2="3558.0582456694287" /><line stroke="rgb(0,0,0)" stroke-linecap="square" stroke-width="9" x1="6485.444496408337" x2="6485.444496408337" y1="3473.22141916881" y2="3955.3582804190664" /><line stroke="rgb(0,0,0)" stroke-linecap="square" stroke-width="9" x1="6485.444496408337" x2="6735.0220646611815" y1="3714.289849793938" y2="3714.289849793938" /><circle cx="6610.23328053476" cy="3679.644788039803" fill="none" r="34.64506175413494" stroke="rgb(0,0,0)" stroke-width="9" /><line stroke="rgb(0,0,0)" stroke-linecap="square" stroke-width="9" x1="6610.23328053476" x2="6610.23328053476" y1="3644.999726285668" y2="3509.724807199422" /><polygon fill="none" points="7080.79770259476,3937.18506657234 6809.345892269353,3975.9638966188268 6537.894081943945,3937.18506657234 6809.345892269353,3898.4062365258533" stroke="rgb(0,0,0)" stroke-width="9" /><line stroke="rgb(0,0,0)" stroke-linecap="square" stroke-width="9" x1="6485.444496408337" x2="6485.444496408337" y1="3955.3582804190664" y2="4142.880075931992" /><line stroke="rgb(0,0,0)" stroke-linecap="square" stroke-width="9" x1="6485.444496408337" x2="6485.444496408337" y1="4142.880075931992" y2="4600.028368355507" /><line stroke="rgb(0,0,0)" stroke-linecap="square" stroke-width="9" x1="6485.444496408337" x2="6485.444496408337" y1="4600.028368355507" y2="4765.462916750736" /><line stroke="rgb(0,0,0)" stroke-linecap="square" stroke-width="9" x1="6809.345892269353" x2="7223.338930370955" y1="5120.483275433277" y2="5120.483275433277" /><circle cx="7016.342411320154" cy="5087.796855099313" fill="none" r="32.686420333964236" stroke="rgb(0,0,0)" stroke-width="9" /><polygon fill="none" points="7153.097712351775,5035.573963189402 7016.342411320154,5055.110434765348 6879.587110288532,5035.573963189402 7016.342411320154,5016.037491613456" stroke="rgb(0,0,0)" stroke-width="9" /><circle cx="6973.672638135024" cy="5444.101717780228" fill="none" r="56.56180231350059" stroke="rgb(0,0,0)" stroke-width="9" /><circle cx="7106.987350636664" cy="5444.101717780228" fill="none" r="76.75291018814028" stroke="rgb(0,0,0)" stroke-width="9" /><line stroke="rgb(0,0,0)" stroke-linecap="square" stroke-width="9" x1="7335.394311168458" x2="7335.394311168458" y1="3963.361677194032" y2="4360.272643538924" /><line stroke="rgb(0,0,0)" stroke-linecap="square" stroke-width="9" x1="7400.043645941332" x2="7400.043645941332" y1="4097.167825593604" y2="3784.1562301745994" /><line stroke="rgb(0,0,0)" stroke-linecap="square" stroke-width="9" x1="7400.043645941332" x2="7400.043645941332" y1="4226.4664951393515" y2="4400.802875538281" /><line stroke="rgb(0,0,0)" stroke-linecap="square" stroke-width="9" x1="7400.043645941332" x2="7400.043645941332" y1="4400.802875538281" y2="4518.367412089335" /><circle cx="7400.043645941332" cy="4161.817160366478" fill="none" r="64.64933477287401" stroke="rgb(0,0,0)" stroke-width="9" /><circle cx="7540.931952867174" cy="4161.817160366478" fill="none" r="76.23897215296765" stroke="rgb(0,0,0)" stroke-width="9" /><line stroke="rgb(0,0,0)" stroke-linecap="square" stroke-width="9" x1="7400.043645941332" x2="7858.689527027955" y1="4313.634685338817" y2="4313.634685338817" /><polygon fill="none" points="7779.053676752589,4335.018555377094 7629.366586484643,4356.402425415372 7479.679496216698,4335.018555377094 7629.366586484643,4313.634685338817" stroke="rgb(0,0,0)" stroke-width="9" /><line stroke="rgb(0,0,0)" stroke-linecap="square" stroke-width="9" x1="7400.043645941332" x2="7568.039686178116" y1="4459.585143813808" y2="4459.585143813808" /><circle cx="7484.041666059724" cy="4493.452053443613" fill="none" r="33.86690962980531" stroke="rgb(0,0,0)" stroke-width="9" /><line stroke="rgb(0,0,0)" stroke-linecap="square" stroke-width="9" x1="7469.8001791360375" x2="7793.008173079012" y1="4612.279868630317" y2="4612.279868630317" /><polygon fill="none" points="7738.148587309602,4597.03066703002 7631.404176107524,4612.279868630317 7524.6597649054465,4597.03066703002 7631.404176107524,4581.781465429723" stroke="rgb(0,0,0)" stroke-width="9" /><line stroke="rgb(0,0,0)" stroke-linecap="square" stroke-width="9" x1="7335.394311168458" x2="7335.394311168458" y1="4360.272643538924" y2="4593.079030349234" /><line stroke="rgb(0,0,0)" stroke-linecap="square" stroke-width="9" x1="7282.533091320018" x2="7282.533091320018" y1="4476.6758369440795" y2="4165.562693628266" /><circle cx="7240.657005281335" cy="4321.119265286173" fill="none" r="41.876086038683034" stroke="rgb(0,0,0)" stroke-width="9" /><circle cx="7161.114164911047" cy="4321.119265286173" fill="none" r="37.666754331605475" stroke="rgb(0,0,0)" stroke-width="9" /><circle cx="7091.799281458444" cy="4321.119265286173" fill="none" r="31.6481291209972" stroke="rgb(0,0,0)" stroke-width="9" /><line stroke="rgb(0,0,0)" stroke-linecap="square" stroke-width="9" x1="7282.533091320018" x2="7282.533091320018" y1="4165.562693628266" y2="4080.8067172893966" /><line stroke="rgb(0,0,0)" stroke-linecap="square" stroke-width="9" x1="7282.533091320018" x2="7282.533091320018" y1="4080.8067172893966" y2="4003.7182971290295" /><line stroke="rgb(0,0,0)" stroke-linecap="square" stroke-width="9" x1="7335.394311168458" x2="7229.671871471576" y1="4476.6758369440795" y2="4476.6758369440795" /><line stroke="rgb(0,0,0)" stroke-linecap="square" stroke-width="9" x1="7080.79770259476" x2="7282.21165763434" y1="3937.18506657234" y2="3937.18506657234" /><circle cx="7007.618346269839" cy="4063.459616446348" fill="none" r="32.78831973163118" stroke="rgb(0,0,0)" stroke-width="9" /><polygon fill="none" points="7469.8001791360375,4612.279868630317 7335.394311168458,4631.4807069113995 7200.988443200879,4612.279868630317 7335.394311168458,4593.079030349234" stroke="rgb(0,0,0)" stroke-width="9" /><line stroke="rgb(0,0,0)" stroke-linecap="square" stroke-width="9" x1="7242.474776335591" x2="7242.474776335591" y1="5035.573963189402" y2="4727.628208079419" /><circle cx="7208.374142730837" cy="4881.601085634411" fill="none" r="34.10063360475409" stroke="rgb(0,0,0)" stroke-width="9" /><line stroke="rgb(0,0,0)" stroke-linecap="square" stroke-width="9" x1="7476.071510721417" x2="7476.071510721417" y1="5035.573963189402" y2="4721.650259531598" /><polygon fill="none" points="7592.269349522871,4705.050568274247 7476.071510721417,4721.650259531598 7359.873671919963,4705.050568274247 7476.071510721417,4688.450877016896" stroke="rgb(0,0,0)" stroke-width="9" /><circle cx="7007.618346269839" cy="4624.735175659099" fill="none" r="101.29163309587047" stroke="rgb(0,0,0)" stroke-width="9" /><circle cx="7007.618346269839" cy="4759.779053467401" fill="none" r="33.75224471243174" stroke="rgb(0,0,0)" stroke-width="9" /><polygon fill="none" points="7147.511001255725,4624.735175659099 7128.210490310717,4759.838752274155 7108.90997936571,4624.735175659099 7128.210490310717,4489.631599044043" stroke="rgb(0,0,0)" stroke-width="9" /><line stroke="rgb(0,0,0)" stroke-linecap="square" stroke-width="9" x1="7174.273509126083" x2="7081.029257930814" y1="4881.601085634411" y2="4881.601085634411" /><line stroke="rgb(0,0,0)" stroke-linecap="square" stroke-width="9" x1="7223.338930370955" x2="7600.6726248057585" y1="5120.483275433277" y2="5120.483275433277" /><line stroke="rgb(0,0,0)" stroke-linecap="square" stroke-width="9" x1="7498.434714318613" x2="7962.41867710775" y1="5330.148703253261" y2="5330.148703253261" /><line stroke="rgb(0,0,0)" stroke-linecap="square" stroke-width="9" x1="7412.005777588356" x2="7412.005777588356" y1="5120.483275433277" y2="5210.317012030158" /><line stroke="rgb(0,0,0)" stroke-linecap="square" stroke-width="9" x1="7412.005777588356" x2="7412.005777588356" y1="5210.317012030158" y2="5449.980394476364" /><line stroke="rgb(0,0,0)" stroke-linecap="square" stroke-width="9" x1="7412.005777588356" x2="7412.005777588356" y1="5449.980394476364" y2="5820.923679915432" /><line stroke="rgb(0,0,0)" stroke-linecap="square" stroke-width="9" x1="7412.005777588356" x2="7412.005777588356" y1="5820.923679915432" y2="5960.120719462654" /><line stroke="rgb(0,0,0)" stroke-linecap="square" stroke-width="9" x1="7412.005777588356" x2="7412.005777588356" y1="6215.140133342426" y2="6529.9939745286665" /><circle cx="7412.005777588356" cy="6008.000802489649" fill="none" r="47.8800830269944" stroke="rgb(0,0,0)" stroke-width="9" /><circle cx="7412.005777588356" cy="6135.510509429535" fill="none" r="79.62962391289176" stroke="rgb(0,0,0)" stroke-width="9" /><line stroke="rgb(0,0,0)" stroke-linecap="square" stroke-width="9" x1="7491.6354015012475" x2="7722.062760857126" y1="6135.510509429535" y2="6135.510509429535" /><line stroke="rgb(0,0,0)" stroke-linecap="square" stroke-width="9" x1="6973.672638135024" x2="7049.934467025584" y1="6110.267380300733" y2="6110.267380300733" /><line stroke="rgb(0,0,0)" stroke-linecap="square" stroke-width="9" x1="7412.005777588356" x2="7849.856207540573" y1="5890.522199689043" y2="5890.522199689043" /><polygon fill="none" points="7797.231310128343,5866.765011465632 7630.930992564465,5890.522199689043 7464.630675000587,5866.765011465632 7630.930992564465,5843.00782324222" stroke="rgb(0,0,0)" stroke-width="9" /><polygon fill="none" points="7298.286796293456,6484.585406289776 7106.987350636664,6511.913898526461 6915.687904979872,6484.585406289776 7106.987350636664,6457.256914053091" stroke="rgb(0,0,0)" stroke-width="9" /><line stroke="rgb(0,0,0)" stroke-linecap="square" stroke-width="9" x1="7106.987350636664" x2="6882.144296978067" y1="6380.889418321765" y2="6380.889418321765" /><polygon fill="none" points="7309.8323625727635,6540.891757374475 7106.987350636664,6569.869616222489 6904.142338700564,6540.891757374475 7106.987350636664,6511.913898526461" stroke="rgb(0,0,0)" stroke-width="9" /><line stroke="rgb(0,0,0)" stroke-linecap="square" stroke-width="9" x1="7412.005777588356" x2="7749.290426636193" y1="6372.567053935547" y2="6372.567053935547" /><circle cx="7580.6481021122745" cy="6461.316104020328" fill="none" r="88.74905008478058" stroke="rgb(0,0,0)" stroke-width="9" /><line stroke="rgb(0,0,0)" stroke-linecap="square" stroke-width="9" x1="7106.987350636664" x2="7106.987350636664" y1="5520.854627968368" y2="5984.034424178712" /><line stroke="rgb(0,0,0)" stroke-linecap="square" stroke-width="9" x1="7106.987350636664" x2="7106.987350636664" y1="5367.348807592088" y2="5199.828834593721" /><line stroke="rgb(0,0,0)" stroke-linecap="square" stroke-width="9" x1="7106.987350636664" x2="7106.987350636664" y1="5984.034424178712" y2="6175.661941141884" /><line stroke="rgb(0,0,0)" stroke-linecap="square" stroke-width="9" x1="7106.987350636664" x2="7106.987350636664" y1="6175.661941141884" y2="6304.521922590438" /><line stroke="rgb(0,0,0)" stroke-linecap="square" stroke-width="9" x1="7106.987350636664" x2="7106.987350636664" y1="6304.521922590438" y2="6457.256914053091" /><line stroke="rgb(0,0,0)" stroke-linecap="square" stroke-width="9" x1="7106.987350636664" x2="7196.017023114243" y1="6240.091931866162" y2="6240.091931866162" /><circle cx="7231.67322558738" cy="6240.091931866162" fill="none" r="35.65620247313756" stroke="rgb(0,0,0)" stroke-width="9" /><line stroke="rgb(0,0,0)" stroke-linecap="square" stroke-width="9" x1="7106.987350636664" x2="7198.502513544596" y1="6079.848182660298" y2="6079.848182660298" /><line stroke="rgb(0,0,0)" stroke-linecap="square" stroke-width="9" x1="7183.740260824804" x2="7287.994579390503" y1="5444.101717780228" y2="5444.101717780228" /><line stroke="rgb(0,0,0)" stroke-linecap="square" stroke-width="9" x1="7235.867420107654" x2="7235.867420107654" y1="5444.101717780228" y2="5564.696643296132" /><line stroke="rgb(0,0,0)" stroke-linecap="square" stroke-width="9" x1="7153.097712351775" x2="7331.851840319407" y1="5035.573963189402" y2="5035.573963189402" /><polygon fill="none" points="7356.416726384985,5444.101717780228 7322.205652887744,5683.579232260918 7287.994579390503,5444.101717780228 7322.205652887744,5204.624203299538" stroke="rgb(0,0,0)" stroke-width="9" /><circle cx="7322.205652887744" cy="5722.8100715816" fill="none" r="39.23083932068241" stroke="rgb(0,0,0)" stroke-width="9" /><line stroke="rgb(0,0,0)" stroke-linecap="square" stroke-width="9" x1="7322.205652887744" x2="7322.205652887744" y1="5762.040910902282" y2="5871.6162770509445" /><line stroke="rgb(0,0,0)" stroke-linecap="square" stroke-width="9" x1="7412.005777588356" x2="7498.434714318613" y1="5330.148703253261" y2="5330.148703253261" /><circle cx="7492.793995617304" cy="5635.452037195899" fill="none" r="80.7882180289476" stroke="rgb(0,0,0)" stroke-width="9" /><circle cx="7492.793995617304" cy="5746.3250245540585" fill="none" r="30.084769329211767" stroke="rgb(0,0,0)" stroke-width="9" /><line stroke="rgb(0,0,0)" stroke-linecap="square" stroke-width="9" x1="7492.793995617304" x2="7492.793995617304" y1="5554.663819166951" y2="5466.2154586475735" /><line stroke="rgb(0,0,0)" stroke-linecap="square" stroke-width="9" x1="7492.793995617304" x2="7492.793995617304" y1="5466.2154586475735" y2="5383.411363327893" /><line stroke="rgb(0,0,0)" stroke-linecap="square" stroke-width="9" x1="7331.851840319407" x2="7620.291181123428" y1="5035.573963189402" y2="5035.573963189402" /><circle cx="6809.345892269353" cy="4044.28312325378" fill="none" r="68.31922663495348" stroke="rgb(0,0,0)" stroke-width="9" /><line stroke="rgb(0,0,0)" stroke-linecap="square" stroke-width="9" x1="6809.345892269353" x2="6809.345892269353" y1="4112.602349888733" y2="4419.394890786924" /><line stroke="rgb(0,0,0)" stroke-linecap="square" stroke-width="9" x1="6809.345892269353" x2="6809.345892269353" y1="4419.394890786924" y2="4527.754354754483" /><line stroke="rgb(0,0,0)" stroke-linecap="square" stroke-width="9" x1="6809.345892269353" x2="6718.750342395544" y1="4265.9986203378285" y2="4265.9986203378285" /><line stroke="rgb(0,0,0)" stroke-linecap="square" stroke-width="9" x1="6636.891647038661" x2="6636.891647038661" y1="4549.261751333023" y2="4226.425827296281" /><line stroke="rgb(0,0,0)" stroke-linecap="square" stroke-width="9" x1="6636.891647038661" x2="6636.891647038661" y1="4226.425827296281" y2="4040.9605133062028" /><line stroke="rgb(0,0,0)" stroke-linecap="square" stroke-width="9" x1="7007.618346269839" x2="7007.618346269839" y1="4523.443542563228" y2="4096.247936177979" /><circle cx="6941.571474854212" cy="4309.845739370603" fill="none" r="66.04687141562675" stroke="rgb(0,0,0)" stroke-width="9" /><line stroke="rgb(0,0,0)" stroke-linecap="square" stroke-width="9" x1="6941.571474854212" x2="6941.571474854212" y1="4243.798867954976" y2="4159.0978162511665" /><circle cx="6809.345892269353" cy="4624.735175659099" fill="none" r="96.9808209046162" stroke="rgb(0,0,0)" stroke-width="9" /><line stroke="rgb(0,0,0)" stroke-linecap="square" stroke-width="9" x1="6941.571474854212" x2="6941.571474854212" y1="4375.89261078623" y2="4468.541833703136" /><circle cx="6636.891647038661" cy="4624.735175659099" fill="none" r="75.47342432607566" stroke="rgb(0,0,0)" stroke-width="9" /><line stroke="rgb(0,0,0)" stroke-linecap="square" stroke-width="9" x1="6485.444496408337" x2="6289.563638780412" y1="4371.45422214375" y2="4371.45422214375" /><line stroke="rgb(0,0,0)" stroke-linecap="square" stroke-width="9" x1="6485.444496408337" x2="6138.364504983683" y1="4682.745642553122" y2="4682.745642553122" /><line stroke="rgb(0,0,0)" stroke-linecap="square" stroke-width="9" x1="6809.345892269353" x2="6809.345892269353" y1="4721.715996563715" y2="4845.74661988578" /><line stroke="rgb(0,0,0)" stroke-linecap="square" stroke-width="9" x1="6809.345892269353" x2="6809.345892269353" y1="4904.629776638498" y2="5336.336774228057" /><line stroke="rgb(0,0,0)" stroke-linecap="square" stroke-width="9" x1="6809.345892269353" x2="6809.345892269353" y1="5551.8666613323985" y2="5928.335825912237" /><line stroke="rgb(0,0,0)" stroke-linecap="square" stroke-width="9" x1="6809.345892269353" x2="6809.345892269353" y1="5928.335825912237" y2="6268.644332665135" /><circle cx="6809.345892269353" cy="5444.101717780228" fill="none" r="107.764943552171" stroke="rgb(0,0,0)" stroke-width="9" /><circle cx="6667.639752501091" cy="5444.101717780228" fill="none" r="33.9411962160909" stroke="rgb(0,0,0)" stroke-width="9" /><circle cx="6619.522237413214" cy="5565.477478147803" fill="none" r="31.571033184331682" stroke="rgb(0,0,0)" stroke-width="9" /><line stroke="rgb(0,0,0)" stroke-linecap="square" stroke-width="9" x1="6619.522237413214" x2="6619.522237413214" y1="6380.889418321765" y2="5928.455765115267" /><line stroke="rgb(0,0,0)" stroke-linecap="square" stroke-width="9" x1="6619.522237413214" x2="6619.522237413214" y1="5928.455765115267" y2="5680.378805355593" /><line stroke="rgb(0,0,0)" stroke-linecap="square" stroke-width="9" x1="6619.522237413214" x2="6619.522237413214" y1="5680.378805355593" y2="5597.048511332135" /><line stroke="rgb(0,0,0)" stroke-linecap="square" stroke-width="9" x1="6973.672638135024" x2="6973.672638135024" y1="5500.663520093728" y2="5673.781861457336" /><line stroke="rgb(0,0,0)" stroke-linecap="square" stroke-width="9" x1="6973.672638135024" x2="6973.672638135024" y1="5673.781861457336" y2="5754.454686375925" /><line stroke="rgb(0,0,0)" stroke-linecap="square" stroke-width="9" x1="6973.672638135024" x2="6973.672638135024" y1="5754.454686375925" y2="6059.251620523289" /><line stroke="rgb(0,0,0)" stroke-linecap="square" stroke-width="9" x1="6973.672638135024" x2="6973.672638135024" y1="6059.251620523289" y2="6161.283140078176" /><line stroke="rgb(0,0,0)" stroke-linecap="square" stroke-width="9" x1="6485.444496408337" x2="6485.444496408337" y1="5469.32954425183" y2="5956.029031129228" /><line stroke="rgb(0,0,0)" stroke-linecap="square" stroke-width="9" x1="6485.444496408337" x2="6485.444496408337" y1="5956.029031129228" y2="6437.248439671361" /><line stroke="rgb(0,0,0)" stroke-linecap="square" stroke-width="9" x1="6485.444496408337" x2="6167.14477184935" y1="5712.679287690529" y2="5712.679287690529" /><line stroke="rgb(0,0,0)" stroke-linecap="square" stroke-width="9" x1="6485.444496408337" x2="5998.38118901593" y1="4921.052270866587" y2="4921.052270866587" /><polygon fill="none" points="6949.093899899611,6288.608333755172 6809.345892269353,6308.572334845208 6669.597884639094,6288.608333755172 6809.345892269353,6268.644332665135" stroke="rgb(0,0,0)" stroke-width="9" /><line stroke="rgb(0,0,0)" stroke-linecap="square" stroke-width="9" x1="6882.144296978067" x2="6697.25544885587" y1="6380.889418321765" y2="6380.889418321765" /><line stroke="rgb(0,0,0)" stroke-linecap="square" stroke-width="9" x1="6697.25544885587" x2="6541.789025970556" y1="6380.889418321765" y2="6380.889418321765" /><line stroke="rgb(0,0,0)" stroke-linecap="square" stroke-width="9" x1="6789.699872916968" x2="6789.699872916968" y1="6380.889418321765" y2="6462.386834723098" /><line stroke="rgb(0,0,0)" stroke-linecap="square" stroke-width="9" x1="6485.444496408337" x2="6379.014746394697" y1="6196.6387354002945" y2="6196.6387354002945" /><polygon fill="none" points="6703.373111581808,6468.381098981857 6485.444496408337,6499.513758292353 6267.515881234865,6468.381098981857 6485.444496408337,6437.248439671361" stroke="rgb(0,0,0)" stroke-width="9" /><line stroke="rgb(0,0,0)" stroke-linecap="square" stroke-width="9" x1="6789.699872916968" x2="6789.699872916968" y1="6462.386834723098" y2="6604.99117200313" /><line stroke="rgb(0,0,0)" stroke-linecap="square" stroke-width="9" x1="6485.444496408337" x2="6485.444496408337" y1="6499.513758292353" y2="6679.0893807492575" /><polygon fill="none" points="7015.4369409038645,4875.188198262139 6809.345892269353,4904.629776638498 6603.254843634841,4875.188198262139 6809.345892269353,4845.74661988578" stroke="rgb(0,0,0)" stroke-width="9" /><line stroke="rgb(0,0,0)" stroke-linecap="square" stroke-width="9" x1="6809.345892269353" x2="6595.411104685003" y1="4783.731308224747" y2="4783.731308224747" /><line stroke="rgb(0,0,0)" stroke-linecap="square" stroke-width="9" x1="6973.672638135024" x2="6973.672638135024" y1="5387.5399154667275" y2="5196.183973916445" /><circle cx="6631.724436123249" cy="5189.621533292731" fill="none" r="33.4686744457975" stroke="rgb(0,0,0)" stroke-width="9" /><line stroke="rgb(0,0,0)" stroke-linecap="square" stroke-width="9" x1="6665.193110569046" x2="6758.06833159472" y1="5189.621533292731" y2="5189.621533292731" /><line stroke="rgb(0,0,0)" stroke-linecap="square" stroke-width="9" x1="6485.444496408337" x2="6485.444496408337" y1="4765.462916750736" y2="5076.641624982437" /><line stroke="rgb(0,0,0)" stroke-linecap="square" stroke-width="9" x1="6485.444496408337" x2="6485.444496408337" y1="5076.641624982437" y2="5302.601441603027" /><line stroke="rgb(0,0,0)" stroke-linecap="square" stroke-width="9" x1="6541.850129042894" x2="6541.850129042894" y1="5189.621533292731" y2="4806.831585075723" /><circle cx="6485.444496408337" cy="5385.965492927428" fill="none" r="83.36405132440169" stroke="rgb(0,0,0)" stroke-width="9" /><line stroke="rgb(0,0,0)" stroke-linecap="square" stroke-width="9" x1="6485.444496408337" x2="6598.255761677451" y1="5189.621533292731" y2="5189.621533292731" /></svg>